Muli-Bold.ufo
<glyph name="quotedbl" format="1">
  <advance width="343"/>
  <unicode hex="0022"/>
  <outline>
    <contour>
      <point x="224" y="467" type="line"/>
      <point x="198" y="711" type="line"/>
      <point x="314" y="711" type="line"/>
      <point x="289" y="467" type="line"/>
    </contour>
    <contour>
      <point x="56" y="467" type="line"/>
      <point x="30" y="711" type="line"/>
      <point x="147" y="711" type="line"/>
      <point x="122" y="467" type="line"/>
    </contour>
  </outline>
</glyph>
<glyph name="numbersign" format="1">
  <advance width="715"/>
  <unicode hex="0023"/>
  <outline>
    <contour>
      <point x="293" y="297" type="line"/>
      <point x="405" y="297" type="line"/>
      <point x="431" y="425" type="line"/>
      <point x="318" y="425" type="line"/>
    </contour>
    <contour>
      <point x="115" y="-5" type="line"/>
      <point x="159" y="219" type="line"/>
      <point x="43" y="219" type="line"/>
      <point x="48" y="297" type="line"/>
      <point x="174" y="297" type="line"/>
      <point x="200" y="425" type="line"/>
      <point x="69" y="425" type="line"/>
      <point x="74" y="502" type="line"/>
      <point x="215" y="502" type="line"/>
      <point x="257" y="714" type="line"/>
      <point x="375" y="714" type="line"/>
      <point x="334" y="502" type="line"/>
      <point x="446" y="502" type="line"/>
      <point x="488" y="714" type="line"/>
      <point x="607" y="714" type="line"/>
      <point x="565" y="502" type="line"/>
      <point x="673" y="502" type="line"/>
      <point x="670" y="425" type="line"/>
      <point x="549" y="425" type="line"/>
      <point x="524" y="297" type="line"/>
      <point x="647" y="297" type="line"/>
      <point x="644" y="219" type="line"/>
      <point x="509" y="219" type="line"/>
      <point x="465" y="-5" type="line"/>
      <point x="346" y="-5" type="line"/>
      <point x="390" y="219" type="line"/>
      <point x="278" y="219" type="line"/>
      <point x="234" y="-5" type="line"/>
    </contour>
  </outline>
</glyph>
<glyph name="dollar" format="1">
  <advance width="604"/>
  <unicode hex="0024"/>
  <outline>
    <contour>
      <point x="282" y="615" type="curve"/>
      <point x="282" y="436" type="line"/>
      <point x="200" y="466"/>
      <point x="189" y="488"/>
      <point x="189" y="536" type="curve" smooth="yes"/>
      <point x="189" y="583"/>
      <point x="228" y="608"/>
    </contour>
    <contour>
      <point x="331" y="97" type="curve"/>
      <point x="331" y="294" type="line"/>
      <point x="416" y="262"/>
      <point x="425" y="238"/>
      <point x="425" y="193" type="curve" smooth="yes"/>
      <point x="425" y="136"/>
      <point x="395" y="105"/>
    </contour>
    <contour>
      <point x="282" y="-107" type="line"/>
      <point x="331" y="-107" type="line"/>
      <point x="331" y="-10" type="line"/>
      <point x="451" y="-3"/>
      <point x="557" y="53"/>
      <point x="557" y="191" type="curve" smooth="yes"/>
      <point x="557" y="298"/>
      <point x="517" y="350"/>
      <point x="402" y="396" type="curve" smooth="yes"/>
      <point x="381" y="404"/>
      <point x="355" y="411"/>
      <point x="331" y="419" type="curve"/>
      <point x="331" y="617" type="line"/>
      <point x="377" y="616"/>
      <point x="437" y="606"/>
      <point x="486" y="560" type="curve"/>
      <point x="550" y="642" type="line"/>
      <point x="494" y="695"/>
      <point x="442" y="721"/>
      <point x="331" y="724" type="curve"/>
      <point x="331" y="794" type="line"/>
      <point x="282" y="794" type="line"/>
      <point x="282" y="724" type="line"/>
      <point x="154" y="718"/>
      <point x="57" y="653"/>
      <point x="57" y="531" type="curve" smooth="yes"/>
      <point x="57" y="425"/>
      <point x="112" y="372"/>
      <point x="224" y="330" type="curve" smooth="yes"/>
      <point x="243" y="324"/>
      <point x="262" y="317"/>
      <point x="282" y="311" type="curve"/>
      <point x="282" y="95" type="line"/>
      <point x="228" y="99"/>
      <point x="152" y="125"/>
      <point x="109" y="159" type="curve"/>
      <point x="56" y="70" type="line"/>
      <point x="105" y="22"/>
      <point x="194" y="-7"/>
      <point x="282" y="-11" type="curve"/>
    </contour>
  </outline>
</glyph>
<glyph name="percent" format="1">
  <advance width="927"/>
  <unicode hex="0025"/>
  <outline>
    <contour>
      <point x="700" y="-10" type="curve" smooth="yes"/>
      <point x="590" y="-10"/>
      <point x="521" y="69"/>
      <point x="521" y="175" type="curve" smooth="yes"/>
      <point x="521" y="278"/>
      <point x="590" y="361"/>
      <point x="700" y="361" type="curve" smooth="yes"/>
      <point x="810" y="361"/>
      <point x="880" y="277"/>
      <point x="880" y="175" type="curve" smooth="yes"/>
      <point x="880" y="69"/>
      <point x="810" y="-10"/>
    </contour>
    <contour>
      <point x="700" y="66" type="curve" smooth="yes"/>
      <point x="750" y="66"/>
      <point x="777" y="97"/>
      <point x="777" y="175" type="curve" smooth="yes"/>
      <point x="777" y="247"/>
      <point x="754" y="285"/>
      <point x="700" y="285" type="curve" smooth="yes"/>
      <point x="646" y="285"/>
      <point x="623" y="248"/>
      <point x="623" y="176" type="curve" smooth="yes"/>
      <point x="623" y="98"/>
      <point x="650" y="66"/>
    </contour>
    <contour>
      <point x="188" y="0" type="line"/>
      <point x="643" y="711" type="line"/>
      <point x="742" y="711" type="line"/>
      <point x="288" y="0" type="line"/>
    </contour>
    <contour>
      <point x="227" y="349" type="curve" smooth="yes"/>
      <point x="118" y="349"/>
      <point x="47" y="417"/>
      <point x="47" y="534" type="curve" smooth="yes"/>
      <point x="47" y="648"/>
      <point x="117" y="720"/>
      <point x="227" y="720" type="curve" smooth="yes"/>
      <point x="337" y="720"/>
      <point x="407" y="647"/>
      <point x="407" y="534" type="curve" smooth="yes"/>
      <point x="407" y="416"/>
      <point x="337" y="349"/>
    </contour>
    <contour>
      <point x="227" y="425" type="curve" smooth="yes"/>
      <point x="277" y="425"/>
      <point x="304" y="456"/>
      <point x="304" y="534" type="curve" smooth="yes"/>
      <point x="304" y="606"/>
      <point x="281" y="644"/>
      <point x="227" y="644" type="curve" smooth="yes"/>
      <point x="173" y="644"/>
      <point x="150" y="606"/>
      <point x="150" y="534" type="curve" smooth="yes"/>
      <point x="150" y="456"/>
      <point x="177" y="425"/>
    </contour>
  </outline>
</glyph>
<glyph name="ampersand" format="1">
  <advance width="774"/>
  <unicode hex="0026"/>
  <outline>
    <contour>
      <point x="299" y="469" type="curve"/>
      <point x="341" y="495"/>
      <point x="374" y="524"/>
      <point x="374" y="563" type="curve" smooth="yes"/>
      <point x="374" y="605"/>
      <point x="342" y="618"/>
      <point x="314" y="618" type="curve" smooth="yes"/>
      <point x="279" y="618"/>
      <point x="253" y="602"/>
      <point x="253" y="562" type="curve" smooth="yes"/>
      <point x="253" y="527"/>
      <point x="270" y="498"/>
    </contour>
    <contour>
      <point x="307" y="91" type="curve" smooth="yes"/>
      <point x="369" y="91"/>
      <point x="415" y="119"/>
      <point x="452" y="153" type="curve"/>
      <point x="277" y="341" type="line"/>
      <point x="223" y="310"/>
      <point x="176" y="273"/>
      <point x="176" y="207" type="curve" smooth="yes"/>
      <point x="176" y="140"/>
      <point x="232" y="91"/>
    </contour>
    <contour>
      <point x="307" y="-14" type="curve" smooth="yes"/>
      <point x="165" y="-14"/>
      <point x="55" y="68"/>
      <point x="55" y="206" type="curve" smooth="yes"/>
      <point x="55" y="310"/>
      <point x="125" y="369"/>
      <point x="208" y="418" type="curve"/>
      <point x="162" y="469"/>
      <point x="134" y="506"/>
      <point x="134" y="564" type="curve" smooth="yes"/>
      <point x="134" y="666"/>
      <point x="214" y="718"/>
      <point x="309" y="718" type="curve" smooth="yes"/>
      <point x="401" y="718"/>
      <point x="492" y="671"/>
      <point x="492" y="568" type="curve" smooth="yes"/>
      <point x="492" y="495"/>
      <point x="436" y="437"/>
      <point x="371" y="395" type="curve"/>
      <point x="516" y="236" type="line"/>
      <point x="552" y="303"/>
      <point x="565" y="378"/>
      <point x="565" y="461" type="curve"/>
      <point x="677" y="437" type="line"/>
      <point x="677" y="336"/>
      <point x="645" y="225"/>
      <point x="594" y="148" type="curve"/>
      <point x="646" y="93"/>
      <point x="700" y="78"/>
      <point x="747" y="62" type="curve"/>
      <point x="668" y="-9" type="line"/>
      <point x="602" y="2"/>
      <point x="577" y="20"/>
      <point x="524" y="76" type="curve"/>
      <point x="472" y="28"/>
      <point x="398" y="-14"/>
    </contour>
  </outline>
</glyph>
<glyph name="quotesingle" format="1">
  <advance width="236"/>
  <unicode hex="0027"/>
  <outline>
    <contour>
      <point x="83" y="444" type="line"/>
      <point x="64" y="711" type="line"/>
      <point x="190" y="711" type="line"/>
      <point x="172" y="444" type="line"/>
    </contour>
  </outline>
</glyph>
<glyph name="parenleft" format="1">
  <advance width="336"/>
  <unicode hex="0028"/>
  <outline>
    <contour>
      <point x="198" y="-83" type="line"/>
      <point x="119" y="37"/>
      <point x="58" y="185"/>
      <point x="58" y="325" type="curve" smooth="yes"/>
      <point x="58" y="473"/>
      <point x="113" y="612"/>
      <point x="194" y="740" type="curve"/>
      <point x="312" y="740" type="line"/>
      <point x="228" y="608"/>
      <point x="179" y="459"/>
      <point x="179" y="324" type="curve" smooth="yes"/>
      <point x="179" y="198"/>
      <point x="234" y="44"/>
      <point x="312" y="-83" type="curve"/>
    </contour>
  </outline>
</glyph>
<glyph name="parenright" format="1">
  <advance width="336"/>
  <unicode hex="0029"/>
  <outline>
    <contour>
      <point x="25" y="-93" type="line"/>
      <point x="109" y="39"/>
      <point x="158" y="188"/>
      <point x="158" y="324" type="curve" smooth="yes"/>
      <point x="158" y="450"/>
      <point x="103" y="604"/>
      <point x="25" y="730" type="curve"/>
      <point x="139" y="730" type="line"/>
      <point x="217" y="611"/>
      <point x="279" y="462"/>
      <point x="279" y="322" type="curve" smooth="yes"/>
      <point x="279" y="174"/>
      <point x="224" y="35"/>
      <point x="143" y="-93" type="curve"/>
    </contour>
  </outline>
</glyph>
<glyph name="asterisk" format="1">
  <advance width="514"/>
  <unicode hex="002A"/>
  <outline>
    <contour>
      <point x="329" y="314" type="line"/>
      <point x="247" y="436" type="line"/>
      <point x="164" y="314" type="line"/>
      <point x="75" y="376" type="line"/>
      <point x="181" y="489" type="line"/>
      <point x="44" y="542" type="line"/>
      <point x="86" y="629" type="line"/>
      <point x="205" y="568" type="line"/>
      <point x="190" y="711" type="line"/>
      <point x="305" y="711" type="line"/>
      <point x="289" y="568" type="line"/>
      <point x="410" y="629" type="line"/>
      <point x="450" y="542" type="line"/>
      <point x="313" y="489" type="line"/>
      <point x="418" y="376" type="line"/>
    </contour>
  </outline>
</glyph>
<glyph name="plus" format="1">
  <advance width="619"/>
  <unicode hex="002B"/>
  <outline>
    <contour>
      <point x="252" y="38" type="line"/>
      <point x="252" y="229" type="line"/>
      <point x="67" y="229" type="line"/>
      <point x="67" y="330" type="line"/>
      <point x="253" y="330" type="line"/>
      <point x="253" y="523" type="line"/>
      <point x="366" y="523" type="line"/>
      <point x="366" y="330" type="line"/>
      <point x="552" y="330" type="line"/>
      <point x="552" y="229" type="line"/>
      <point x="366" y="229" type="line"/>
      <point x="366" y="38" type="line"/>
    </contour>
  </outline>
</glyph>
<glyph name="comma" format="1">
  <advance width="266"/>
  <unicode hex="002C"/>
  <outline>
    <contour>
      <point x="25" y="-112" type="line"/>
      <point x="80" y="131" type="line"/>
      <point x="216" y="131" type="line"/>
      <point x="128" y="-112" type="line"/>
    </contour>
  </outline>
</glyph>
<glyph name="hyphen" format="1">
  <advance width="361"/>
  <unicode hex="002D"/>
  <outline>
    <contour>
      <point x="26" y="223" type="line"/>
      <point x="26" y="316" type="line"/>
      <point x="335" y="316" type="line"/>
      <point x="335" y="223" type="line"/>
    </contour>
  </outline>
</glyph>
<glyph name="period" format="1">
  <advance width="263"/>
  <unicode hex="002E"/>
  <outline>
    <contour>
      <point x="54" y="0" type="line"/>
      <point x="54" y="132" type="line"/>
      <point x="196" y="132" type="line"/>
      <point x="196" y="0" type="line"/>
    </contour>
  </outline>
</glyph>
<glyph name="slash" format="1">
  <advance width="333"/>
  <unicode hex="002F"/>
  <outline>
    <contour>
      <point x="-40" y="-116" type="line"/>
      <point x="275" y="711" type="line"/>
      <point x="383" y="711" type="line"/>
      <point x="65" y="-116" type="line"/>
    </contour>
  </outline>
</glyph>
<glyph name="zero" format="1">
  <advance width="621"/>
  <unicode hex="0030"/>
  <outline>
    <contour>
      <point x="311" y="-11" type="curve" smooth="yes"/>
      <point x="150" y="-11"/>
      <point x="61" y="139"/>
      <point x="61" y="362" type="curve" smooth="yes"/>
      <point x="61" y="590"/>
      <point x="148" y="724"/>
      <point x="312" y="724" type="curve" smooth="yes"/>
      <point x="475" y="724"/>
      <point x="561" y="582"/>
      <point x="561" y="362" type="curve" smooth="yes"/>
      <point x="561" y="140"/>
      <point x="476" y="-11"/>
    </contour>
    <contour>
      <point x="312" y="95" type="curve" smooth="yes"/>
      <point x="404" y="95"/>
      <point x="434" y="207"/>
      <point x="434" y="361" type="curve" smooth="yes"/>
      <point x="434" y="491"/>
      <point x="405" y="618"/>
      <point x="313" y="618" type="curve" smooth="yes"/>
      <point x="217" y="618"/>
      <point x="188" y="493"/>
      <point x="188" y="361" type="curve" smooth="yes"/>
      <point x="188" y="207"/>
      <point x="216" y="95"/>
    </contour>
  </outline>
</glyph>
<glyph name="one" format="1">
  <advance width="621"/>
  <unicode hex="0031"/>
  <outline>
    <contour>
      <point x="143" y="0" type="line"/>
      <point x="143" y="99" type="line"/>
      <point x="269" y="99" type="line"/>
      <point x="269" y="585" type="line"/>
      <point x="236" y="569"/>
      <point x="182" y="547"/>
      <point x="126" y="529" type="curve"/>
      <point x="126" y="642" type="line"/>
      <point x="178" y="659"/>
      <point x="240" y="687"/>
      <point x="283" y="711" type="curve"/>
      <point x="393" y="711" type="line"/>
      <point x="393" y="97" type="line"/>
      <point x="521" y="97" type="line"/>
      <point x="521" y="0" type="line"/>
    </contour>
  </outline>
</glyph>
<glyph name="two" format="1">
  <advance width="621"/>
  <unicode hex="0032"/>
  <outline>
    <contour>
      <point x="293" y="723" type="curve" smooth="yes"/>
      <point x="419" y="723"/>
      <point x="510" y="645"/>
      <point x="510" y="492" type="curve" smooth="yes"/>
      <point x="510" y="380"/>
      <point x="446" y="313"/>
      <point x="386" y="250" type="curve" smooth="yes"/>
      <point x="244" y="102" type="line"/>
      <point x="504" y="102" type="line"/>
      <point x="504" y="0" type="line"/>
      <point x="92" y="0" type="line"/>
      <point x="92" y="89" type="line"/>
      <point x="298" y="318" type="line" smooth="yes"/>
      <point x="360" y="386"/>
      <point x="392" y="421"/>
      <point x="392" y="486" type="curve" smooth="yes"/>
      <point x="392" y="498"/>
      <point x="391" y="511"/>
      <point x="389" y="525" type="curve" smooth="yes"/>
      <point x="377" y="599"/>
      <point x="333" y="618"/>
      <point x="282" y="618" type="curve" smooth="yes"/>
      <point x="198" y="618"/>
      <point x="103" y="556"/>
      <point x="103" y="556" type="curve" smooth="yes"/>
      <point x="62" y="653" type="line"/>
      <point x="62" y="653"/>
      <point x="156" y="723"/>
    </contour>
  </outline>
</glyph>
<glyph name="three" format="1">
  <advance width="621"/>
  <unicode hex="0033"/>
  <outline>
    <contour>
      <point x="304" y="-11" type="curve" smooth="yes"/>
      <point x="159" y="-11"/>
      <point x="82" y="49"/>
      <point x="82" y="49" type="curve"/>
      <point x="119" y="142" type="line"/>
      <point x="123" y="139"/>
      <point x="200" y="95"/>
      <point x="283" y="95" type="curve" smooth="yes"/>
      <point x="372" y="95"/>
      <point x="419" y="138"/>
      <point x="419" y="207" type="curve" smooth="yes"/>
      <point x="419" y="284"/>
      <point x="347" y="318"/>
      <point x="239" y="318" type="curve" smooth="yes"/>
      <point x="224" y="318" type="line"/>
      <point x="192" y="317" type="line"/>
      <point x="191" y="422" type="line"/>
      <point x="227" y="422" type="line" smooth="yes"/>
      <point x="352" y="422"/>
      <point x="399" y="450"/>
      <point x="399" y="536" type="curve" smooth="yes"/>
      <point x="399" y="592"/>
      <point x="336" y="618"/>
      <point x="278" y="618" type="curve" smooth="yes"/>
      <point x="196" y="618"/>
      <point x="151" y="579"/>
      <point x="128" y="566" type="curve"/>
      <point x="73" y="656" type="line"/>
      <point x="142" y="702"/>
      <point x="185" y="724"/>
      <point x="294" y="724" type="curve" smooth="yes"/>
      <point x="411" y="724"/>
      <point x="523" y="664"/>
      <point x="523" y="539" type="curve" smooth="yes"/>
      <point x="523" y="468"/>
      <point x="485" y="388"/>
      <point x="391" y="374" type="curve"/>
      <point x="487" y="356"/>
      <point x="540" y="285"/>
      <point x="540" y="202" type="curve" smooth="yes"/>
      <point x="540" y="68"/>
      <point x="430" y="-11"/>
    </contour>
    <contour>
      <point x="119" y="142" type="line"/>
      <point x="119" y="142" type="line"/>
    </contour>
  </outline>
</glyph>
<glyph name="four" format="1">
  <advance width="621"/>
  <unicode hex="0034"/>
  <outline>
    <contour>
      <point x="190" y="283" type="curve"/>
      <point x="355" y="283" type="line"/>
      <point x="355" y="554" type="line"/>
      <point x="299" y="465"/>
      <point x="245" y="373"/>
    </contour>
    <contour>
      <point x="354" y="0" type="line"/>
      <point x="354" y="186" type="line"/>
      <point x="52" y="186" type="line"/>
      <point x="52" y="278" type="line"/>
      <point x="337" y="711" type="line"/>
      <point x="477" y="711" type="line"/>
      <point x="477" y="283" type="line"/>
      <point x="589" y="283" type="line"/>
      <point x="589" y="186" type="line"/>
      <point x="479" y="186" type="line"/>
      <point x="479" y="0" type="line"/>
    </contour>
  </outline>
</glyph>
<glyph name="five" format="1">
  <advance width="621"/>
  <unicode hex="0035"/>
  <outline>
    <contour>
      <point x="304" y="-11" type="curve" smooth="yes"/>
      <point x="224" y="-11"/>
      <point x="141" y="21"/>
      <point x="79" y="86" type="curve"/>
      <point x="144" y="179" type="line"/>
      <point x="190" y="122"/>
      <point x="249" y="95"/>
      <point x="301" y="95" type="curve" smooth="yes"/>
      <point x="368" y="95"/>
      <point x="432" y="139"/>
      <point x="432" y="232" type="curve" smooth="yes"/>
      <point x="432" y="298"/>
      <point x="398" y="359"/>
      <point x="338" y="359" type="curve" smooth="yes"/>
      <point x="305" y="359"/>
      <point x="273" y="351"/>
      <point x="256" y="327" type="curve"/>
      <point x="133" y="344" type="line"/>
      <point x="133" y="711" type="line"/>
      <point x="528" y="711" type="line"/>
      <point x="528" y="605" type="line"/>
      <point x="242" y="605" type="line"/>
      <point x="236" y="423" type="line"/>
      <point x="264" y="460"/>
      <point x="312" y="469"/>
      <point x="363" y="469" type="curve" smooth="yes"/>
      <point x="469" y="469"/>
      <point x="560" y="367"/>
      <point x="560" y="230" type="curve" smooth="yes"/>
      <point x="560" y="68"/>
      <point x="431" y="-11"/>
    </contour>
  </outline>
</glyph>
<glyph name="six" format="1">
  <advance width="621"/>
  <unicode hex="0036"/>
  <outline>
    <contour>
      <point x="332" y="95" type="curve" smooth="yes"/>
      <point x="403" y="95"/>
      <point x="450" y="154"/>
      <point x="450" y="231" type="curve" smooth="yes"/>
      <point x="450" y="308"/>
      <point x="412" y="368"/>
      <point x="339" y="368" type="curve" smooth="yes"/>
      <point x="259" y="368"/>
      <point x="212" y="309"/>
      <point x="212" y="229" type="curve" smooth="yes"/>
      <point x="212" y="145"/>
      <point x="276" y="95"/>
    </contour>
    <contour>
      <point x="335" y="-11" type="curve" smooth="yes"/>
      <point x="160" y="-11"/>
      <point x="74" y="131"/>
      <point x="74" y="341" type="curve" smooth="yes"/>
      <point x="74" y="551"/>
      <point x="173" y="724"/>
      <point x="361" y="724" type="curve" smooth="yes"/>
      <point x="434" y="724"/>
      <point x="496" y="704"/>
      <point x="542" y="661" type="curve"/>
      <point x="501" y="568" type="line"/>
      <point x="458" y="602"/>
      <point x="413" y="618"/>
      <point x="362" y="618" type="curve" smooth="yes"/>
      <point x="271" y="618"/>
      <point x="210" y="521"/>
      <point x="205" y="396" type="curve"/>
      <point x="245" y="453"/>
      <point x="297" y="470"/>
      <point x="346" y="470" type="curve" smooth="yes"/>
      <point x="488" y="470"/>
      <point x="578" y="377"/>
      <point x="578" y="232" type="curve" smooth="yes"/>
      <point x="578" y="93"/>
      <point x="483" y="-11"/>
    </contour>
  </outline>
</glyph>
<glyph name="seven" format="1">
  <advance width="621"/>
  <unicode hex="0037"/>
  <outline>
    <contour>
      <point x="153" y="0" type="line"/>
      <point x="422" y="609" type="line"/>
      <point x="71" y="609" type="line"/>
      <point x="71" y="711" type="line"/>
      <point x="565" y="711" type="line"/>
      <point x="565" y="616" type="line"/>
      <point x="286" y="0" type="line"/>
    </contour>
  </outline>
</glyph>
<glyph name="eight" format="1">
  <advance width="622"/>
  <unicode hex="0038"/>
  <outline>
    <contour>
      <point x="310" y="419" type="curve"/>
      <point x="373" y="438"/>
      <point x="412" y="477"/>
      <point x="412" y="535" type="curve" smooth="yes"/>
      <point x="412" y="586"/>
      <point x="366" y="615"/>
      <point x="309" y="615" type="curve" smooth="yes"/>
      <point x="248" y="615"/>
      <point x="207" y="589"/>
      <point x="207" y="529" type="curve" smooth="yes"/>
      <point x="207" y="476"/>
      <point x="246" y="436"/>
    </contour>
    <contour>
      <point x="310" y="97" type="curve" smooth="yes"/>
      <point x="380" y="97"/>
      <point x="427" y="129"/>
      <point x="427" y="202" type="curve" smooth="yes"/>
      <point x="427" y="258"/>
      <point x="376" y="312"/>
      <point x="313" y="329" type="curve"/>
      <point x="245" y="314"/>
      <point x="194" y="264"/>
      <point x="194" y="200" type="curve" smooth="yes"/>
      <point x="194" y="134"/>
      <point x="239" y="97"/>
    </contour>
    <contour>
      <point x="312" y="-11" type="curve" smooth="yes"/>
      <point x="174" y="-11"/>
      <point x="68" y="63"/>
      <point x="68" y="193" type="curve" smooth="yes"/>
      <point x="68" y="273"/>
      <point x="113" y="336"/>
      <point x="188" y="373" type="curve"/>
      <point x="126" y="408"/>
      <point x="82" y="461"/>
      <point x="82" y="537" type="curve" smooth="yes"/>
      <point x="82" y="656"/>
      <point x="179" y="724"/>
      <point x="309" y="724" type="curve" smooth="yes"/>
      <point x="451" y="724"/>
      <point x="538" y="651"/>
      <point x="538" y="531" type="curve" smooth="yes"/>
      <point x="538" y="454"/>
      <point x="497" y="403"/>
      <point x="433" y="372" type="curve"/>
      <point x="500" y="338"/>
      <point x="552" y="266"/>
      <point x="552" y="189" type="curve" smooth="yes"/>
      <point x="552" y="59"/>
      <point x="437" y="-11"/>
    </contour>
  </outline>
</glyph>
<glyph name="nine" format="1">
  <advance width="621"/>
  <unicode hex="0039"/>
  <outline>
    <contour>
      <point x="293" y="355" type="curve" smooth="yes"/>
      <point x="366" y="355"/>
      <point x="421" y="402"/>
      <point x="421" y="496" type="curve" smooth="yes"/>
      <point x="421" y="561"/>
      <point x="377" y="618"/>
      <point x="303" y="618" type="curve" smooth="yes"/>
      <point x="227" y="618"/>
      <point x="178" y="564"/>
      <point x="178" y="486" type="curve" smooth="yes"/>
      <point x="178" y="412"/>
      <point x="215" y="355"/>
    </contour>
    <contour>
      <point x="272" y="-13" type="curve" smooth="yes"/>
      <point x="219" y="-13"/>
      <point x="155" y="5"/>
      <point x="88" y="38" type="curve"/>
      <point x="133" y="138" type="line"/>
      <point x="173" y="112"/>
      <point x="220" y="96"/>
      <point x="262" y="96" type="curve" smooth="yes"/>
      <point x="346" y="96"/>
      <point x="424" y="155"/>
      <point x="424" y="307" type="curve" smooth="yes"/>
      <point x="424" y="320" type="line"/>
      <point x="390" y="269"/>
      <point x="333" y="252"/>
      <point x="281" y="252" type="curve" smooth="yes"/>
      <point x="142" y="252"/>
      <point x="53" y="347"/>
      <point x="53" y="484" type="curve" smooth="yes"/>
      <point x="53" y="621"/>
      <point x="147" y="724"/>
      <point x="297" y="724" type="curve" smooth="yes"/>
      <point x="455" y="724"/>
      <point x="547" y="606"/>
      <point x="547" y="376" type="curve" smooth="yes"/>
      <point x="547" y="148"/>
      <point x="448" y="-13"/>
    </contour>
  </outline>
</glyph>
<glyph name="colon" format="1">
  <advance width="288"/>
  <unicode hex="003A"/>
  <outline>
    <contour>
      <point x="65" y="439" type="line"/>
      <point x="65" y="572" type="line"/>
      <point x="217" y="572" type="line"/>
      <point x="217" y="439" type="line"/>
    </contour>
    <contour>
      <point x="65" y="-7" type="line"/>
      <point x="65" y="125" type="line"/>
      <point x="217" y="125" type="line"/>
      <point x="217" y="-7" type="line"/>
    </contour>
  </outline>
</glyph>
<glyph name="semicolon" format="1">
  <advance width="263"/>
  <unicode hex="003B"/>
  <outline>
    <contour>
      <point x="87" y="439" type="line"/>
      <point x="87" y="572" type="line"/>
      <point x="210" y="572" type="line"/>
      <point x="210" y="439" type="line"/>
    </contour>
    <contour>
      <point x="32" y="-112" type="line"/>
      <point x="85" y="131" type="line"/>
      <point x="222" y="131" type="line"/>
      <point x="135" y="-112" type="line"/>
    </contour>
  </outline>
</glyph>
<glyph name="less" format="1">
  <advance width="691"/>
  <unicode hex="003C"/>
  <outline>
    <contour>
      <point x="584" y="18" type="line"/>
      <point x="72" y="249" type="line"/>
      <point x="72" y="305" type="line"/>
      <point x="586" y="544" type="line"/>
      <point x="586" y="434" type="line"/>
      <point x="232" y="278" type="line"/>
      <point x="584" y="126" type="line"/>
    </contour>
  </outline>
</glyph>
<glyph name="equal" format="1">
  <advance width="722"/>
  <unicode hex="003D"/>
  <outline>
    <contour>
      <point x="106" y="326" type="line"/>
      <point x="106" y="424" type="line"/>
      <point x="615" y="424" type="line"/>
      <point x="615" y="326" type="line"/>
    </contour>
    <contour>
      <point x="105" y="127" type="line"/>
      <point x="105" y="225" type="line"/>
      <point x="616" y="225" type="line"/>
      <point x="616" y="127" type="line"/>
    </contour>
  </outline>
</glyph>
<glyph name="greater" format="1">
  <advance width="692"/>
  <unicode hex="003E"/>
  <outline>
    <contour>
      <point x="104" y="19" type="line"/>
      <point x="104" y="133" type="line"/>
      <point x="456" y="280" type="line"/>
      <point x="107" y="438" type="line"/>
      <point x="107" y="548" type="line"/>
      <point x="620" y="305" type="line"/>
      <point x="620" y="244" type="line"/>
    </contour>
  </outline>
</glyph>
<glyph name="question" format="1">
  <advance width="497"/>
  <unicode hex="003F"/>
  <outline>
    <contour>
      <point x="126" y="0" type="line"/>
      <point x="126" y="133" type="line"/>
      <point x="279" y="133" type="line"/>
      <point x="279" y="0" type="line"/>
    </contour>
    <contour>
      <point x="147" y="201" type="line"/>
      <point x="147" y="268" type="line" smooth="yes"/>
      <point x="147" y="396"/>
      <point x="318" y="449"/>
      <point x="318" y="545" type="curve" smooth="yes"/>
      <point x="318" y="599"/>
      <point x="274" y="619"/>
      <point x="219" y="619" type="curve" smooth="yes"/>
      <point x="162" y="619"/>
      <point x="95" y="598"/>
      <point x="71" y="587" type="curve"/>
      <point x="71" y="690" type="line"/>
      <point x="78" y="694"/>
      <point x="136" y="725"/>
      <point x="230" y="725" type="curve" smooth="yes"/>
      <point x="343" y="725"/>
      <point x="443" y="668"/>
      <point x="443" y="549" type="curve" smooth="yes"/>
      <point x="443" y="401"/>
      <point x="244" y="367"/>
      <point x="244" y="232" type="curve" smooth="yes"/>
      <point x="244" y="201" type="line"/>
    </contour>
  </outline>
</glyph>
<glyph name="at" format="1">
  <advance width="885"/>
  <unicode hex="0040"/>
  <outline>
    <contour>
      <point x="418" y="219" type="curve" smooth="yes"/>
      <point x="485" y="219"/>
      <point x="529" y="307"/>
      <point x="529" y="399" type="curve" smooth="yes"/>
      <point x="529" y="442"/>
      <point x="504" y="464"/>
      <point x="469" y="464" type="curve" smooth="yes"/>
      <point x="395" y="464"/>
      <point x="355" y="370"/>
      <point x="355" y="290" type="curve" smooth="yes"/>
      <point x="355" y="247"/>
      <point x="382" y="219"/>
    </contour>
    <contour>
      <point x="460" y="-49" type="curve" smooth="yes"/>
      <point x="228" y="-49"/>
      <point x="52" y="95"/>
      <point x="52" y="325" type="curve" smooth="yes"/>
      <point x="52" y="574"/>
      <point x="242" y="724"/>
      <point x="472" y="724" type="curve" smooth="yes"/>
      <point x="677" y="724"/>
      <point x="834" y="586"/>
      <point x="834" y="387" type="curve" smooth="yes"/>
      <point x="834" y="264"/>
      <point x="756" y="124"/>
      <point x="655" y="124" type="curve" smooth="yes"/>
      <point x="585" y="124"/>
      <point x="544" y="173"/>
      <point x="544" y="227" type="curve"/>
      <point x="527" y="172"/>
      <point x="482" y="125"/>
      <point x="402" y="125" type="curve" smooth="yes"/>
      <point x="324" y="125"/>
      <point x="235" y="184"/>
      <point x="235" y="307" type="curve" smooth="yes"/>
      <point x="235" y="460"/>
      <point x="363" y="555"/>
      <point x="455" y="555" type="curve" smooth="yes"/>
      <point x="506" y="555"/>
      <point x="538" y="538"/>
      <point x="554" y="499" type="curve"/>
      <point x="564" y="546" type="line"/>
      <point x="670" y="546" type="line"/>
      <point x="627" y="314" type="line" smooth="yes"/>
      <point x="618" y="267"/>
      <point x="617" y="248"/>
      <point x="617" y="234" type="curve" smooth="yes"/>
      <point x="617" y="228" type="line" smooth="yes"/>
      <point x="617" y="212"/>
      <point x="625" y="184"/>
      <point x="645" y="184" type="curve" smooth="yes"/>
      <point x="682" y="184"/>
      <point x="755" y="264"/>
      <point x="755" y="390" type="curve" smooth="yes"/>
      <point x="755" y="569"/>
      <point x="614" y="645"/>
      <point x="477" y="645" type="curve" smooth="yes"/>
      <point x="299" y="645"/>
      <point x="151" y="544"/>
      <point x="151" y="325" type="curve" smooth="yes"/>
      <point x="151" y="122"/>
      <point x="311" y="27"/>
      <point x="471" y="27" type="curve" smooth="yes"/>
      <point x="547" y="27"/>
      <point x="626" y="50"/>
      <point x="701" y="92" type="curve"/>
      <point x="741" y="34" type="line"/>
      <point x="661" y="-22"/>
      <point x="561" y="-49"/>
    </contour>
  </outline>
</glyph>
<glyph name="A" format="1">
  <advance width="711"/>
  <unicode hex="0041"/>
  <outline>
    <contour>
      <point x="256" y="289" type="curve"/>
      <point x="446" y="289" type="line"/>
      <point x="415" y="382"/>
      <point x="384" y="474"/>
      <point x="352" y="566" type="curve"/>
      <point x="320" y="474"/>
      <point x="288" y="381"/>
    </contour>
    <contour>
      <point x="6" y="0" type="line"/>
      <point x="292" y="711" type="line"/>
      <point x="417" y="711" type="line"/>
      <point x="706" y="0" type="line"/>
      <point x="565" y="0" type="line"/>
      <point x="497" y="173" type="line"/>
      <point x="209" y="173" type="line"/>
      <point x="142" y="0" type="line"/>
    </contour>
  </outline>
</glyph>
<glyph name="B" format="1">
  <advance width="667"/>
  <unicode hex="0042"/>
  <outline>
    <contour>
      <point x="217" y="416" type="line"/>
      <point x="323" y="416" type="line" smooth="yes"/>
      <point x="385" y="416"/>
      <point x="449" y="437"/>
      <point x="449" y="513" type="curve" smooth="yes"/>
      <point x="449" y="587"/>
      <point x="394" y="604"/>
      <point x="297" y="604" type="curve" smooth="yes"/>
      <point x="217" y="604" type="line"/>
    </contour>
    <contour>
      <point x="218" y="106" type="line"/>
      <point x="330" y="106" type="line" smooth="yes"/>
      <point x="427" y="106"/>
      <point x="480" y="139"/>
      <point x="480" y="206" type="curve" smooth="yes"/>
      <point x="480" y="290"/>
      <point x="440" y="315"/>
      <point x="327" y="315" type="curve" smooth="yes"/>
      <point x="218" y="315" type="line"/>
    </contour>
    <contour>
      <point x="93" y="0" type="line"/>
      <point x="93" y="711" type="line"/>
      <point x="290" y="711" type="line" smooth="yes"/>
      <point x="413" y="711"/>
      <point x="581" y="698"/>
      <point x="581" y="529" type="curve" smooth="yes"/>
      <point x="581" y="467"/>
      <point x="555" y="411"/>
      <point x="486" y="377" type="curve"/>
      <point x="574" y="354"/>
      <point x="613" y="284"/>
      <point x="613" y="201" type="curve" smooth="yes"/>
      <point x="613" y="96"/>
      <point x="530" y="0"/>
      <point x="352" y="0" type="curve" smooth="yes"/>
    </contour>
  </outline>
</glyph>
<glyph name="C" format="1">
  <advance width="701"/>
  <unicode hex="0043"/>
  <outline>
    <contour>
      <point x="408" y="-11" type="curve" smooth="yes"/>
      <point x="223" y="-11"/>
      <point x="52" y="118"/>
      <point x="52" y="355" type="curve" smooth="yes"/>
      <point x="52" y="604"/>
      <point x="229" y="724"/>
      <point x="398" y="724" type="curve" smooth="yes"/>
      <point x="479" y="724"/>
      <point x="560" y="706"/>
      <point x="635" y="647" type="curve"/>
      <point x="587" y="561" type="line"/>
      <point x="521" y="607"/>
      <point x="463" y="617"/>
      <point x="408" y="617" type="curve" smooth="yes"/>
      <point x="288" y="617"/>
      <point x="182" y="519"/>
      <point x="182" y="356" type="curve" smooth="yes"/>
      <point x="182" y="196"/>
      <point x="284" y="96"/>
      <point x="416" y="96" type="curve" smooth="yes"/>
      <point x="478" y="96"/>
      <point x="545" y="114"/>
      <point x="612" y="168" type="curve"/>
      <point x="654" y="70" type="line"/>
      <point x="577" y="10"/>
      <point x="494" y="-11"/>
    </contour>
  </outline>
</glyph>
<glyph name="D" format="1">
  <advance width="767"/>
  <unicode hex="0044"/>
  <outline>
    <contour>
      <point x="93" y="0" type="line"/>
      <point x="93" y="711" type="line"/>
      <point x="291" y="711" type="line" smooth="yes"/>
      <point x="581" y="711"/>
      <point x="715" y="582"/>
      <point x="715" y="360" type="curve" smooth="yes"/>
      <point x="715" y="125"/>
      <point x="574" y="0"/>
      <point x="311" y="0" type="curve" smooth="yes"/>
    </contour>
    <contour>
      <point x="217" y="106" type="line"/>
      <point x="317" y="106" type="line" smooth="yes"/>
      <point x="487" y="106"/>
      <point x="584" y="192"/>
      <point x="584" y="360" type="curve" smooth="yes"/>
      <point x="584" y="515"/>
      <point x="496" y="604"/>
      <point x="302" y="604" type="curve" smooth="yes"/>
      <point x="217" y="604" type="line"/>
    </contour>
  </outline>
</glyph>
<glyph name="E" format="1">
  <advance width="609"/>
  <unicode hex="0045"/>
  <outline>
    <contour>
      <point x="93" y="0" type="line"/>
      <point x="93" y="711" type="line"/>
      <point x="542" y="711" type="line"/>
      <point x="542" y="604" type="line"/>
      <point x="217" y="604" type="line"/>
      <point x="217" y="415" type="line"/>
      <point x="524" y="415" type="line"/>
      <point x="524" y="308" type="line"/>
      <point x="218" y="308" type="line"/>
      <point x="218" y="106" type="line"/>
      <point x="556" y="106" type="line"/>
      <point x="556" y="0" type="line"/>
    </contour>
  </outline>
</glyph>
<glyph name="F" format="1">
  <advance width="559"/>
  <unicode hex="0046"/>
  <outline>
    <contour>
      <point x="93" y="0" type="line"/>
      <point x="93" y="711" type="line"/>
      <point x="527" y="711" type="line"/>
      <point x="527" y="604" type="line"/>
      <point x="217" y="604" type="line"/>
      <point x="217" y="411" type="line"/>
      <point x="509" y="411" type="line"/>
      <point x="509" y="304" type="line"/>
      <point x="217" y="304" type="line"/>
      <point x="217" y="0" type="line"/>
    </contour>
  </outline>
</glyph>
<glyph name="G" format="1">
  <advance width="750"/>
  <unicode hex="0047"/>
  <outline>
    <contour>
      <point x="416" y="-11" type="curve" smooth="yes"/>
      <point x="177" y="-11"/>
      <point x="51" y="131"/>
      <point x="51" y="344" type="curve" smooth="yes"/>
      <point x="51" y="547"/>
      <point x="183" y="724"/>
      <point x="428" y="724" type="curve" smooth="yes"/>
      <point x="572" y="724"/>
      <point x="634" y="676"/>
      <point x="665" y="653" type="curve"/>
      <point x="615" y="566" type="line"/>
      <point x="585" y="588"/>
      <point x="529" y="617"/>
      <point x="429" y="617" type="curve" smooth="yes"/>
      <point x="258" y="617"/>
      <point x="181" y="482"/>
      <point x="181" y="349" type="curve" smooth="yes"/>
      <point x="181" y="201"/>
      <point x="259" y="95"/>
      <point x="421" y="95" type="curve" smooth="yes"/>
      <point x="461" y="95"/>
      <point x="503" y="101"/>
      <point x="543" y="113" type="curve"/>
      <point x="543" y="281" type="line"/>
      <point x="377" y="281" type="line"/>
      <point x="377" y="387" type="line"/>
      <point x="669" y="387" type="line"/>
      <point x="669" y="43" type="line"/>
      <point x="579" y="3"/>
      <point x="498" y="-11"/>
    </contour>
  </outline>
</glyph>
<glyph name="H" format="1">
  <advance width="767"/>
  <unicode hex="0048"/>
  <outline>
    <contour>
      <point x="93" y="0" type="line"/>
      <point x="93" y="711" type="line"/>
      <point x="217" y="711" type="line"/>
      <point x="217" y="418" type="line"/>
      <point x="550" y="418" type="line"/>
      <point x="550" y="711" type="line"/>
      <point x="674" y="711" type="line"/>
      <point x="674" y="0" type="line"/>
      <point x="553" y="0" type="line"/>
      <point x="553" y="311" type="line"/>
      <point x="219" y="311" type="line"/>
      <point x="219" y="0" type="line"/>
    </contour>
  </outline>
</glyph>
<glyph name="I" format="1">
  <advance width="286"/>
  <unicode hex="0049"/>
  <outline>
    <contour>
      <point x="78" y="0" type="line"/>
      <point x="78" y="711" type="line"/>
      <point x="202" y="711" type="line"/>
      <point x="202" y="0" type="line"/>
    </contour>
  </outline>
</glyph>
<glyph name="J" format="1">
  <advance width="497"/>
  <unicode hex="004A"/>
  <outline>
    <contour>
      <point x="204" y="-162" type="curve" smooth="yes"/>
      <point x="162" y="-162"/>
      <point x="111" y="-153"/>
      <point x="47" y="-130" type="curve"/>
      <point x="69" y="-36" type="line"/>
      <point x="121" y="-53"/>
      <point x="156" y="-58"/>
      <point x="181" y="-58" type="curve" smooth="yes"/>
      <point x="255" y="-58"/>
      <point x="281" y="-13"/>
      <point x="281" y="54" type="curve" smooth="yes"/>
      <point x="281" y="711" type="line"/>
      <point x="405" y="711" type="line"/>
      <point x="405" y="60" type="line" smooth="yes"/>
      <point x="405" y="-84"/>
      <point x="330" y="-162"/>
    </contour>
  </outline>
</glyph>
<glyph name="K" format="1">
  <advance width="659"/>
  <unicode hex="004B"/>
  <outline>
    <contour>
      <point x="93" y="0" type="line"/>
      <point x="93" y="711" type="line"/>
      <point x="217" y="711" type="line"/>
      <point x="217" y="400" type="line"/>
      <point x="491" y="711" type="line"/>
      <point x="646" y="711" type="line"/>
      <point x="337" y="368" type="line"/>
      <point x="669" y="0" type="line"/>
      <point x="508" y="0" type="line"/>
      <point x="218" y="318" type="line"/>
      <point x="218" y="0" type="line"/>
    </contour>
  </outline>
</glyph>
<glyph name="L" format="1">
  <advance width="572"/>
  <unicode hex="004C"/>
  <outline>
    <contour>
      <point x="93" y="0" type="line"/>
      <point x="93" y="711" type="line"/>
      <point x="217" y="711" type="line"/>
      <point x="217" y="106" type="line"/>
      <point x="546" y="106" type="line"/>
      <point x="546" y="0" type="line"/>
    </contour>
    <contour>
      <point x="159" y="501" type="move" name="caron.alt"/>
    </contour>
  </outline>
</glyph>
<glyph name="M" format="1">
  <advance width="970"/>
  <unicode hex="004D"/>
  <outline>
    <contour>
      <point x="93" y="0" type="line"/>
      <point x="93" y="711" type="line"/>
      <point x="238" y="711" type="line"/>
      <point x="321" y="527"/>
      <point x="404" y="342"/>
      <point x="487" y="159" type="curve"/>
      <point x="570" y="341"/>
      <point x="650" y="527"/>
      <point x="732" y="711" type="curve"/>
      <point x="877" y="711" type="line"/>
      <point x="877" y="0" type="line"/>
      <point x="761" y="0" type="line"/>
      <point x="761" y="508" type="line"/>
      <point x="683" y="340"/>
      <point x="608" y="169"/>
      <point x="532" y="0" type="curve"/>
      <point x="441" y="0" type="line"/>
      <point x="365" y="167"/>
      <point x="291" y="336"/>
      <point x="212" y="500" type="curve"/>
      <point x="212" y="0" type="line"/>
    </contour>
  </outline>
</glyph>
<glyph name="N" format="1">
  <advance width="795"/>
  <unicode hex="004E"/>
  <outline>
    <contour>
      <point x="93" y="0" type="line"/>
      <point x="93" y="711" type="line"/>
      <point x="224" y="711" type="line"/>
      <point x="344" y="537"/>
      <point x="464" y="362"/>
      <point x="585" y="188" type="curve"/>
      <point x="585" y="711" type="line"/>
      <point x="703" y="711" type="line"/>
      <point x="703" y="0" type="line"/>
      <point x="571" y="0" type="line"/>
      <point x="450" y="175"/>
      <point x="330" y="350"/>
      <point x="208" y="524" type="curve"/>
      <point x="208" y="0" type="line"/>
    </contour>
  </outline>
</glyph>
<glyph name="O" format="1">
  <advance width="815"/>
  <unicode hex="004F"/>
  <outline>
    <contour>
      <point x="410" y="-11" type="curve" smooth="yes"/>
      <point x="187" y="-11"/>
      <point x="52" y="134"/>
      <point x="52" y="359" type="curve" smooth="yes"/>
      <point x="52" y="577"/>
      <point x="187" y="724"/>
      <point x="412" y="724" type="curve" smooth="yes"/>
      <point x="629" y="724"/>
      <point x="764" y="578"/>
      <point x="764" y="359" type="curve" smooth="yes"/>
      <point x="764" y="134"/>
      <point x="633" y="-11"/>
    </contour>
    <contour>
      <point x="407" y="95" type="curve" smooth="yes"/>
      <point x="554" y="95"/>
      <point x="629" y="192"/>
      <point x="629" y="359" type="curve" smooth="yes"/>
      <point x="629" y="521"/>
      <point x="554" y="618"/>
      <point x="409" y="618" type="curve" smooth="yes"/>
      <point x="264" y="618"/>
      <point x="186" y="522"/>
      <point x="186" y="359" type="curve" smooth="yes"/>
      <point x="186" y="191"/>
      <point x="260" y="95"/>
    </contour>
  </outline>
</glyph>
<glyph name="P" format="1">
  <advance width="634"/>
  <unicode hex="0050"/>
  <outline>
    <contour>
      <point x="217" y="413" type="line"/>
      <point x="323" y="413" type="line" smooth="yes"/>
      <point x="411" y="413"/>
      <point x="471" y="429"/>
      <point x="471" y="507" type="curve" smooth="yes"/>
      <point x="471" y="603"/>
      <point x="403" y="603"/>
      <point x="300" y="603" type="curve" smooth="yes"/>
      <point x="217" y="603" type="line"/>
    </contour>
    <contour>
      <point x="93" y="0" type="line"/>
      <point x="93" y="711" type="line"/>
      <point x="295" y="711" type="line" smooth="yes"/>
      <point x="463" y="711"/>
      <point x="601" y="696"/>
      <point x="601" y="508" type="curve" smooth="yes"/>
      <point x="601" y="353"/>
      <point x="498" y="307"/>
      <point x="325" y="307" type="curve" smooth="yes"/>
      <point x="217" y="307" type="line"/>
      <point x="217" y="0" type="line"/>
    </contour>
  </outline>
</glyph>
<glyph name="Q" format="1">
  <advance width="815"/>
  <unicode hex="0051"/>
  <outline>
    <contour>
      <point x="407" y="95" type="curve" smooth="yes"/>
      <point x="260" y="95"/>
      <point x="186" y="191"/>
      <point x="186" y="359" type="curve" smooth="yes"/>
      <point x="186" y="522"/>
      <point x="264" y="618"/>
      <point x="409" y="618" type="curve" smooth="yes"/>
      <point x="554" y="618"/>
      <point x="629" y="521"/>
      <point x="629" y="359" type="curve" smooth="yes"/>
      <point x="629" y="192"/>
      <point x="554" y="95"/>
    </contour>
    <contour>
      <point x="616" y="-218" type="curve"/>
      <point x="684" y="-145" type="line"/>
      <point x="684" y="-145"/>
      <point x="608" y="-60"/>
      <point x="562" y="16" type="curve"/>
      <point x="692" y="68"/>
      <point x="764" y="192"/>
      <point x="764" y="359" type="curve" smooth="yes"/>
      <point x="764" y="578"/>
      <point x="629" y="724"/>
      <point x="412" y="724" type="curve" smooth="yes"/>
      <point x="187" y="724"/>
      <point x="52" y="577"/>
      <point x="52" y="359" type="curve" smooth="yes"/>
      <point x="52" y="134"/>
      <point x="187" y="-11"/>
      <point x="410" y="-11" type="curve" smooth="yes"/>
      <point x="425" y="-11"/>
      <point x="440" y="-10"/>
      <point x="455" y="-9" type="curve"/>
      <point x="521" y="-119"/>
      <point x="616" y="-218"/>
    </contour>
  </outline>
</glyph>
<glyph name="R" format="1">
  <advance width="677"/>
  <unicode hex="0052"/>
  <outline>
    <contour>
      <point x="215" y="406" type="line"/>
      <point x="334" y="406" type="line" smooth="yes"/>
      <point x="407" y="406"/>
      <point x="467" y="428"/>
      <point x="467" y="509" type="curve" smooth="yes"/>
      <point x="467" y="587"/>
      <point x="428" y="604"/>
      <point x="347" y="604" type="curve" smooth="yes"/>
      <point x="215" y="604" type="line"/>
    </contour>
    <contour>
      <point x="93" y="0" type="line"/>
      <point x="93" y="711" type="line"/>
      <point x="349" y="711" type="line" smooth="yes"/>
      <point x="496" y="711"/>
      <point x="598" y="673"/>
      <point x="598" y="515" type="curve" smooth="yes"/>
      <point x="598" y="441"/>
      <point x="556" y="369"/>
      <point x="455" y="346" type="curve"/>
      <point x="491" y="326"/>
      <point x="525" y="296"/>
      <point x="549" y="235" type="curve" smooth="yes"/>
      <point x="645" y="0" type="line"/>
      <point x="511" y="0" type="line"/>
      <point x="429" y="211" type="line" smooth="yes"/>
      <point x="403" y="280"/>
      <point x="379" y="301"/>
      <point x="315" y="301" type="curve" smooth="yes"/>
      <point x="217" y="301" type="line"/>
      <point x="217" y="0" type="line"/>
    </contour>
  </outline>
</glyph>
<glyph name="S" format="1">
  <advance width="613"/>
  <unicode hex="0053"/>
  <outline>
    <contour>
      <point x="304" y="-11" type="curve" smooth="yes"/>
      <point x="209" y="-11"/>
      <point x="109" y="18"/>
      <point x="56" y="70" type="curve"/>
      <point x="109" y="159" type="line"/>
      <point x="156" y="122"/>
      <point x="242" y="95"/>
      <point x="296" y="95" type="curve" smooth="yes"/>
      <point x="384" y="95"/>
      <point x="425" y="127"/>
      <point x="425" y="193" type="curve" smooth="yes"/>
      <point x="425" y="239"/>
      <point x="416" y="264"/>
      <point x="324" y="297" type="curve" smooth="yes"/>
      <point x="295" y="307"/>
      <point x="256" y="319"/>
      <point x="224" y="330" type="curve" smooth="yes"/>
      <point x="112" y="372"/>
      <point x="57" y="425"/>
      <point x="57" y="531" type="curve" smooth="yes"/>
      <point x="57" y="659"/>
      <point x="164" y="724"/>
      <point x="302" y="724" type="curve" smooth="yes"/>
      <point x="433" y="724"/>
      <point x="490" y="700"/>
      <point x="550" y="642" type="curve"/>
      <point x="486" y="560" type="line"/>
      <point x="433" y="610"/>
      <point x="368" y="617"/>
      <point x="320" y="617" type="curve" smooth="yes"/>
      <point x="248" y="617"/>
      <point x="189" y="594"/>
      <point x="189" y="536" type="curve" smooth="yes"/>
      <point x="189" y="486"/>
      <point x="202" y="464"/>
      <point x="293" y="432" type="curve" smooth="yes"/>
      <point x="325" y="421"/>
      <point x="368" y="409"/>
      <point x="402" y="396" type="curve" smooth="yes"/>
      <point x="517" y="350"/>
      <point x="557" y="298"/>
      <point x="557" y="191" type="curve" smooth="yes"/>
      <point x="557" y="43"/>
      <point x="434" y="-11"/>
    </contour>
  </outline>
</glyph>
<glyph name="T" format="1">
  <advance width="576"/>
  <unicode hex="0054"/>
  <outline>
    <contour>
      <point x="225" y="0" type="line"/>
      <point x="225" y="604" type="line"/>
      <point x="5" y="604" type="line"/>
      <point x="5" y="711" type="line"/>
      <point x="571" y="711" type="line"/>
      <point x="571" y="604" type="line"/>
      <point x="349" y="604" type="line"/>
      <point x="349" y="0" type="line"/>
    </contour>
  </outline>
</glyph>
<glyph name="U" format="1">
  <advance width="736"/>
  <unicode hex="0055"/>
  <outline>
    <contour>
      <point x="369" y="-11" type="curve" smooth="yes"/>
      <point x="134" y="-11"/>
      <point x="80" y="131"/>
      <point x="80" y="292" type="curve" smooth="yes"/>
      <point x="80" y="711" type="line"/>
      <point x="204" y="711" type="line"/>
      <point x="204" y="287" type="line" smooth="yes"/>
      <point x="204" y="137"/>
      <point x="276" y="95"/>
      <point x="368" y="95" type="curve" smooth="yes"/>
      <point x="462" y="95"/>
      <point x="533" y="138"/>
      <point x="533" y="288" type="curve" smooth="yes"/>
      <point x="533" y="711" type="line"/>
      <point x="657" y="711" type="line"/>
      <point x="657" y="292" type="line" smooth="yes"/>
      <point x="657" y="133"/>
      <point x="608" y="-11"/>
    </contour>
  </outline>
</glyph>
<glyph name="V" format="1">
  <advance width="680"/>
  <unicode hex="0056"/>
  <outline>
    <contour>
      <point x="279" y="0" type="line"/>
      <point x="8" y="711" type="line"/>
      <point x="147" y="711" type="line"/>
      <point x="212" y="528"/>
      <point x="276" y="344"/>
      <point x="343" y="163" type="curve"/>
      <point x="409" y="346"/>
      <point x="476" y="528"/>
      <point x="542" y="711" type="curve"/>
      <point x="672" y="711" type="line"/>
      <point x="402" y="0" type="line"/>
    </contour>
  </outline>
</glyph>
<glyph name="W" format="1">
  <advance width="1023"/>
  <unicode hex="0057"/>
  <outline>
    <contour>
      <point x="209" y="0" type="line"/>
      <point x="6" y="711" type="line"/>
      <point x="138" y="711" type="line"/>
      <point x="187" y="524"/>
      <point x="239" y="338"/>
      <point x="285" y="149" type="curve"/>
      <point x="336" y="342"/>
      <point x="398" y="524"/>
      <point x="456" y="711" type="curve"/>
      <point x="574" y="711" type="line"/>
      <point x="701" y="313" type="line"/>
      <point x="750" y="147" type="line"/>
      <point x="794" y="337"/>
      <point x="843" y="523"/>
      <point x="890" y="711" type="curve"/>
      <point x="1018" y="711" type="line"/>
      <point x="819" y="0" type="line"/>
      <point x="677" y="0" type="line"/>
      <point x="511" y="540" type="line"/>
      <point x="349" y="0" type="line"/>
    </contour>
  </outline>
</glyph>
<glyph name="X" format="1">
  <advance width="687"/>
  <unicode hex="0058"/>
  <outline>
    <contour>
      <point x="11" y="0" type="line"/>
      <point x="272" y="359" type="line"/>
      <point x="29" y="711" type="line"/>
      <point x="184" y="711" type="line"/>
      <point x="350" y="465" type="line"/>
      <point x="525" y="711" type="line"/>
      <point x="669" y="711" type="line"/>
      <point x="421" y="365" type="line"/>
      <point x="674" y="0" type="line"/>
      <point x="520" y="0" type="line"/>
      <point x="343" y="260" type="line"/>
      <point x="159" y="0" type="line"/>
    </contour>
  </outline>
</glyph>
<glyph name="Y" format="1">
  <advance width="625"/>
  <unicode hex="0059"/>
  <outline>
    <contour>
      <point x="247" y="0" type="line"/>
      <point x="247" y="275" type="line"/>
      <point x="-7" y="711" type="line"/>
      <point x="134" y="711" type="line"/>
      <point x="311" y="385" type="line"/>
      <point x="485" y="711" type="line"/>
      <point x="630" y="711" type="line"/>
      <point x="371" y="275" type="line"/>
      <point x="371" y="0" type="line"/>
    </contour>
  </outline>
</glyph>
<glyph name="Z" format="1">
  <advance width="586"/>
  <unicode hex="005A"/>
  <outline>
    <contour>
      <point x="35" y="0" type="line"/>
      <point x="35" y="66" type="line"/>
      <point x="371" y="604" type="line"/>
      <point x="47" y="604" type="line"/>
      <point x="47" y="711" type="line"/>
      <point x="542" y="711" type="line"/>
      <point x="542" y="646" type="line"/>
      <point x="204" y="106" type="line"/>
      <point x="542" y="106" type="line"/>
      <point x="542" y="0" type="line"/>
    </contour>
  </outline>
</glyph>
<glyph name="bracketleft" format="1">
  <advance width="302"/>
  <unicode hex="005B"/>
  <outline>
    <contour>
      <point x="68" y="-77" type="line"/>
      <point x="68" y="733" type="line"/>
      <point x="274" y="733" type="line"/>
      <point x="274" y="641" type="line"/>
      <point x="191" y="641" type="line"/>
      <point x="191" y="16" type="line"/>
      <point x="274" y="16" type="line"/>
      <point x="274" y="-77" type="line"/>
    </contour>
  </outline>
</glyph>
<glyph name="backslash" format="1">
  <advance width="317"/>
  <unicode hex="005C"/>
  <outline>
    <contour>
      <point x="259" y="-55" type="line"/>
      <point x="-85" y="711" type="line"/>
      <point x="49" y="711" type="line"/>
      <point x="390" y="-55" type="line"/>
    </contour>
  </outline>
</glyph>
<glyph name="bracketright" format="1">
  <advance width="302"/>
  <unicode hex="005D"/>
  <outline>
    <contour>
      <point x="44" y="-77" type="line"/>
      <point x="44" y="16" type="line"/>
      <point x="125" y="16" type="line"/>
      <point x="125" y="641" type="line"/>
      <point x="45" y="641" type="line"/>
      <point x="45" y="733" type="line"/>
      <point x="248" y="733" type="line"/>
      <point x="248" y="-77" type="line"/>
    </contour>
  </outline>
</glyph>
<glyph name="asciicircum" format="1">
  <advance width="761"/>
  <unicode hex="005E"/>
  <outline>
    <contour>
      <point x="89" y="260" type="line"/>
      <point x="340" y="711" type="line"/>
      <point x="418" y="711" type="line"/>
      <point x="672" y="260" type="line"/>
      <point x="549" y="260" type="line"/>
      <point x="377" y="573" type="line"/>
      <point x="214" y="260" type="line"/>
    </contour>
  </outline>
</glyph>
<glyph name="underscore" format="1">
  <advance width="494"/>
  <unicode hex="005F"/>
  <outline>
    <contour>
      <point x="-7" y="-124" type="line"/>
      <point x="-7" y="-29" type="line"/>
      <point x="500" y="-29" type="line"/>
      <point x="500" y="-124" type="line"/>
    </contour>
  </outline>
</glyph>
<glyph name="grave" format="1">
  <advance width="297"/>
  <unicode hex="0060"/>
  <outline>
    <contour>
      <point x="164" y="569" type="line"/>
      <point x="-7" y="710" type="line"/>
      <point x="148" y="710" type="line"/>
      <point x="276" y="569" type="line"/>
    </contour>
  </outline>
</glyph>
<glyph name="a" format="1">
  <advance width="630"/>
  <unicode hex="0061"/>
  <outline>
    <contour>
      <point x="314" y="86" type="curve" smooth="yes"/>
      <point x="414" y="86"/>
      <point x="449" y="158"/>
      <point x="449" y="250" type="curve" smooth="yes"/>
      <point x="449" y="348"/>
      <point x="407" y="416"/>
      <point x="312" y="416" type="curve" smooth="yes"/>
      <point x="220" y="416"/>
      <point x="173" y="349"/>
      <point x="173" y="251" type="curve" smooth="yes"/>
      <point x="173" y="155"/>
      <point x="218" y="86"/>
    </contour>
    <contour>
      <point x="299" y="-11" type="curve" smooth="yes"/>
      <point x="130" y="-11"/>
      <point x="53" y="118"/>
      <point x="53" y="245" type="curve" smooth="yes"/>
      <point x="53" y="381"/>
      <point x="133" y="514"/>
      <point x="305" y="514" type="curve" smooth="yes"/>
      <point x="372" y="514"/>
      <point x="415" y="488"/>
      <point x="445" y="448" type="curve"/>
      <point x="445" y="501" type="line"/>
      <point x="563" y="501" type="line"/>
      <point x="563" y="0" type="line"/>
      <point x="442" y="0" type="line"/>
      <point x="442" y="68" type="line"/>
      <point x="414" y="27"/>
      <point x="367" y="-11"/>
    </contour>
  </outline>
</glyph>
<glyph name="b" format="1">
  <advance width="630"/>
  <unicode hex="0062"/>
  <outline>
    <contour>
      <point x="321" y="86" type="curve" smooth="yes"/>
      <point x="414" y="86"/>
      <point x="451" y="166"/>
      <point x="451" y="250" type="curve" smooth="yes"/>
      <point x="451" y="341"/>
      <point x="411" y="416"/>
      <point x="325" y="416" type="curve" smooth="yes"/>
      <point x="237" y="416"/>
      <point x="186" y="340"/>
      <point x="186" y="251" type="curve" smooth="yes"/>
      <point x="186" y="166"/>
      <point x="230" y="86"/>
    </contour>
    <contour>
      <point x="344" y="-11" type="curve" smooth="yes"/>
      <point x="273" y="-11"/>
      <point x="215" y="25"/>
      <point x="193" y="62" type="curve"/>
      <point x="193" y="0" type="line"/>
      <point x="69" y="0" type="line"/>
      <point x="73" y="123"/>
      <point x="73" y="119"/>
      <point x="73" y="133" type="curve" smooth="yes"/>
      <point x="73" y="711" type="line"/>
      <point x="193" y="711" type="line"/>
      <point x="193" y="431" type="line"/>
      <point x="198" y="451"/>
      <point x="244" y="514"/>
      <point x="350" y="514" type="curve" smooth="yes"/>
      <point x="494" y="514"/>
      <point x="578" y="403"/>
      <point x="578" y="253" type="curve" smooth="yes"/>
      <point x="578" y="96"/>
      <point x="471" y="-11"/>
    </contour>
  </outline>
</glyph>
<glyph name="c" format="1">
  <advance width="522"/>
  <unicode hex="0063"/>
  <outline>
    <contour>
      <point x="314" y="-11" type="curve" smooth="yes"/>
      <point x="146" y="-11"/>
      <point x="53" y="114"/>
      <point x="53" y="251" type="curve" smooth="yes"/>
      <point x="53" y="399"/>
      <point x="149" y="514"/>
      <point x="313" y="514" type="curve" smooth="yes"/>
      <point x="392" y="514"/>
      <point x="453" y="490"/>
      <point x="495" y="446" type="curve"/>
      <point x="451" y="368" type="line"/>
      <point x="423" y="393"/>
      <point x="383" y="416"/>
      <point x="326" y="416" type="curve" smooth="yes"/>
      <point x="228" y="416"/>
      <point x="178" y="348"/>
      <point x="178" y="250" type="curve" smooth="yes"/>
      <point x="178" y="153"/>
      <point x="235" y="86"/>
      <point x="330" y="86" type="curve" smooth="yes"/>
      <point x="397" y="86"/>
      <point x="436" y="120"/>
      <point x="455" y="134" type="curve"/>
      <point x="492" y="45" type="line"/>
      <point x="437" y="6"/>
      <point x="383" y="-11"/>
    </contour>
  </outline>
</glyph>
<glyph name="d" format="1">
  <advance width="618"/>
  <unicode hex="0064"/>
  <outline>
    <contour>
      <point x="306" y="86" type="curve" smooth="yes"/>
      <point x="398" y="86"/>
      <point x="432" y="166"/>
      <point x="432" y="250" type="curve" smooth="yes"/>
      <point x="432" y="341"/>
      <point x="394" y="416"/>
      <point x="305" y="416" type="curve" smooth="yes"/>
      <point x="217" y="416"/>
      <point x="180" y="341"/>
      <point x="180" y="252" type="curve" smooth="yes"/>
      <point x="180" y="166"/>
      <point x="214" y="86"/>
    </contour>
    <contour>
      <point x="281" y="-11" type="curve" smooth="yes"/>
      <point x="155" y="-11"/>
      <point x="53" y="89"/>
      <point x="53" y="248" type="curve" smooth="yes"/>
      <point x="53" y="388"/>
      <point x="132" y="514"/>
      <point x="291" y="514" type="curve" smooth="yes"/>
      <point x="369" y="514"/>
      <point x="414" y="470"/>
      <point x="428" y="448" type="curve"/>
      <point x="428" y="711" type="line"/>
      <point x="548" y="711" type="line"/>
      <point x="548" y="134" type="line" smooth="yes"/>
      <point x="548" y="124"/>
      <point x="549" y="116"/>
      <point x="553" y="0" type="curve"/>
      <point x="429" y="0" type="line"/>
      <point x="428" y="64" type="line"/>
      <point x="418" y="38"/>
      <point x="373" y="-11"/>
    </contour>
    <contour>
      <point x="470" y="501" type="move" name="caron.alt"/>
    </contour>
  </outline>
</glyph>
<glyph name="e" format="1">
  <advance width="588"/>
  <unicode hex="0065"/>
  <outline>
    <contour>
      <point x="182" y="311" type="curve"/>
      <point x="431" y="311" type="line"/>
      <point x="419" y="383"/>
      <point x="374" y="420"/>
      <point x="316" y="420" type="curve" smooth="yes"/>
      <point x="245" y="420"/>
      <point x="198" y="378"/>
    </contour>
    <contour>
      <point x="325" y="-11" type="curve" smooth="yes"/>
      <point x="153" y="-11"/>
      <point x="53" y="97"/>
      <point x="53" y="250" type="curve" smooth="yes"/>
      <point x="53" y="389"/>
      <point x="147" y="514"/>
      <point x="310" y="514" type="curve" smooth="yes"/>
      <point x="474" y="514"/>
      <point x="535" y="394"/>
      <point x="535" y="251" type="curve" smooth="yes"/>
      <point x="535" y="245"/>
      <point x="534" y="236"/>
      <point x="532" y="230" type="curve"/>
      <point x="181" y="230" type="line"/>
      <point x="185" y="128"/>
      <point x="248" y="86"/>
      <point x="336" y="86" type="curve" smooth="yes"/>
      <point x="390" y="86"/>
      <point x="443" y="104"/>
      <point x="495" y="140" type="curve"/>
      <point x="527" y="52" type="line"/>
      <point x="465" y="9"/>
      <point x="404" y="-11"/>
    </contour>
  </outline>
</glyph>
<glyph name="f" format="1">
  <advance width="400"/>
  <unicode hex="0066"/>
  <outline>
    <contour>
      <point x="127" y="0" type="line"/>
      <point x="127" y="420" type="line"/>
      <point x="34" y="420" type="line"/>
      <point x="34" y="501" type="line"/>
      <point x="127" y="501" type="line"/>
      <point x="127" y="521" type="line" smooth="yes"/>
      <point x="127" y="664"/>
      <point x="143" y="725"/>
      <point x="338" y="725" type="curve" smooth="yes"/>
      <point x="364" y="725" type="line"/>
      <point x="360" y="631" type="line"/>
      <point x="257" y="631"/>
      <point x="248" y="620"/>
      <point x="248" y="522" type="curve" smooth="yes"/>
      <point x="248" y="501" type="line"/>
      <point x="361" y="501" type="line"/>
      <point x="361" y="420" type="line"/>
      <point x="248" y="420" type="line"/>
      <point x="248" y="0" type="line"/>
    </contour>
  </outline>
</glyph>
<glyph name="g" format="1">
  <advance width="603"/>
  <unicode hex="0067"/>
  <outline>
    <contour>
      <point x="306" y="91" type="curve" smooth="yes"/>
      <point x="405" y="91"/>
      <point x="429" y="176"/>
      <point x="429" y="252" type="curve" smooth="yes"/>
      <point x="429" y="344"/>
      <point x="392" y="416"/>
      <point x="307" y="416" type="curve" smooth="yes"/>
      <point x="220" y="416"/>
      <point x="180" y="336"/>
      <point x="180" y="251" type="curve" smooth="yes"/>
      <point x="180" y="155"/>
      <point x="217" y="91"/>
    </contour>
    <contour>
      <point x="282" y="-204" type="curve" smooth="yes"/>
      <point x="216" y="-204"/>
      <point x="153" y="-192"/>
      <point x="92" y="-170" type="curve"/>
      <point x="113" y="-65" type="line"/>
      <point x="174" y="-97"/>
      <point x="230" y="-104"/>
      <point x="273" y="-104" type="curve" smooth="yes"/>
      <point x="363" y="-104"/>
      <point x="423" y="-66"/>
      <point x="423" y="17" type="curve" smooth="yes"/>
      <point x="423" y="60" type="line"/>
      <point x="404" y="34"/>
      <point x="366" y="0"/>
      <point x="297" y="0" type="curve" smooth="yes"/>
      <point x="150" y="0"/>
      <point x="53" y="97"/>
      <point x="53" y="251" type="curve" smooth="yes"/>
      <point x="53" y="388"/>
      <point x="124" y="514"/>
      <point x="288" y="514" type="curve" smooth="yes"/>
      <point x="353" y="514"/>
      <point x="400" y="483"/>
      <point x="423" y="447" type="curve"/>
      <point x="423" y="501" type="line"/>
      <point x="552" y="501" type="line"/>
      <point x="552" y="501"/>
      <point x="542" y="427"/>
      <point x="542" y="333" type="curve" smooth="yes"/>
      <point x="542" y="72" type="line" smooth="yes"/>
      <point x="542" y="-46"/>
      <point x="509" y="-204"/>
    </contour>
  </outline>
</glyph>
<glyph name="h" format="1">
  <advance width="595"/>
  <unicode hex="0068"/>
  <outline>
    <contour>
      <point x="70" y="0" type="line"/>
      <point x="70" y="711" type="line"/>
      <point x="191" y="711" type="line"/>
      <point x="191" y="436" type="line"/>
      <point x="217" y="485"/>
      <point x="291" y="514"/>
      <point x="341" y="514" type="curve" smooth="yes"/>
      <point x="509" y="514"/>
      <point x="532" y="370"/>
      <point x="532" y="279" type="curve" smooth="yes"/>
      <point x="532" y="0" type="line"/>
      <point x="411" y="0" type="line"/>
      <point x="411" y="283" type="line" smooth="yes"/>
      <point x="411" y="380"/>
      <point x="380" y="416"/>
      <point x="323" y="416" type="curve" smooth="yes"/>
      <point x="258" y="416"/>
      <point x="191" y="363"/>
      <point x="191" y="302" type="curve" smooth="yes"/>
      <point x="191" y="0" type="line"/>
    </contour>
  </outline>
</glyph>
<glyph name="i" format="1">
  <advance width="255"/>
  <unicode hex="0069"/>
  <outline>
    <contour>
      <point x="69" y="604" type="line"/>
      <point x="69" y="711" type="line"/>
      <point x="187" y="711" type="line"/>
      <point x="187" y="604" type="line"/>
    </contour>
    <contour>
      <point x="70" y="0" type="line"/>
      <point x="70" y="501" type="line"/>
      <point x="187" y="501" type="line"/>
      <point x="187" y="0" type="line"/>
    </contour>
  </outline>
</glyph>
<glyph name="k" format="1">
  <advance width="525"/>
  <unicode hex="006B"/>
  <outline>
    <contour>
      <point x="68" y="0" type="line"/>
      <point x="68" y="711" type="line"/>
      <point x="189" y="711" type="line"/>
      <point x="189" y="296" type="line"/>
      <point x="371" y="501" type="line"/>
      <point x="538" y="501" type="line"/>
      <point x="299" y="259" type="line"/>
      <point x="553" y="0" type="line"/>
      <point x="393" y="0" type="line"/>
      <point x="189" y="217" type="line"/>
      <point x="189" y="0" type="line"/>
    </contour>
  </outline>
</glyph>
<glyph name="l" format="1">
  <advance width="256"/>
  <unicode hex="006C"/>
  <outline>
    <contour>
      <point x="69" y="0" type="line"/>
      <point x="69" y="711" type="line"/>
      <point x="189" y="711" type="line"/>
      <point x="189" y="0" type="line"/>
    </contour>
    <contour>
      <point x="91" y="501" type="move" name="caron.alt"/>
    </contour>
  </outline>
</glyph>
<glyph name="m" format="1">
  <advance width="897"/>
  <unicode hex="006D"/>
  <outline>
    <contour>
      <point x="78" y="0" type="line"/>
      <point x="78" y="340" type="line" smooth="yes"/>
      <point x="78" y="426"/>
      <point x="70" y="466"/>
      <point x="69" y="501" type="curve"/>
      <point x="196" y="501" type="line"/>
      <point x="196" y="436" type="line"/>
      <point x="220" y="480"/>
      <point x="274" y="514"/>
      <point x="336" y="514" type="curve" smooth="yes"/>
      <point x="398" y="514"/>
      <point x="456" y="485"/>
      <point x="486" y="421" type="curve"/>
      <point x="523" y="474"/>
      <point x="574" y="514"/>
      <point x="649" y="514" type="curve" smooth="yes"/>
      <point x="775" y="514"/>
      <point x="833" y="431"/>
      <point x="833" y="307" type="curve" smooth="yes"/>
      <point x="833" y="0" type="line"/>
      <point x="712" y="0" type="line"/>
      <point x="712" y="300" type="line" smooth="yes"/>
      <point x="712" y="348"/>
      <point x="697" y="416"/>
      <point x="640" y="416" type="curve" smooth="yes"/>
      <point x="565" y="416"/>
      <point x="517" y="346"/>
      <point x="517" y="284" type="curve" smooth="yes"/>
      <point x="517" y="0" type="line"/>
      <point x="396" y="0" type="line"/>
      <point x="396" y="306" type="line" smooth="yes"/>
      <point x="396" y="349"/>
      <point x="384" y="416"/>
      <point x="319" y="416" type="curve" smooth="yes"/>
      <point x="249" y="416"/>
      <point x="199" y="362"/>
      <point x="199" y="304" type="curve" smooth="yes"/>
      <point x="199" y="0" type="line"/>
    </contour>
  </outline>
</glyph>
<glyph name="n" format="1">
  <advance width="597"/>
  <unicode hex="006E"/>
  <outline>
    <contour>
      <point x="77" y="0" type="line"/>
      <point x="77" y="310" type="line" smooth="yes"/>
      <point x="77" y="430"/>
      <point x="67" y="501"/>
      <point x="67" y="501" type="curve"/>
      <point x="196" y="501" type="line"/>
      <point x="196" y="434" type="line"/>
      <point x="233" y="490"/>
      <point x="301" y="514"/>
      <point x="349" y="514" type="curve" smooth="yes"/>
      <point x="460" y="514"/>
      <point x="534" y="460"/>
      <point x="534" y="286" type="curve" smooth="yes"/>
      <point x="534" y="0" type="line"/>
      <point x="413" y="0" type="line"/>
      <point x="413" y="294" type="line" smooth="yes"/>
      <point x="413" y="383"/>
      <point x="387" y="416"/>
      <point x="324" y="416" type="curve" smooth="yes"/>
      <point x="280" y="416"/>
      <point x="198" y="375"/>
      <point x="198" y="300" type="curve" smooth="yes"/>
      <point x="198" y="0" type="line"/>
    </contour>
  </outline>
</glyph>
<glyph name="o" format="1">
  <advance width="627"/>
  <unicode hex="006F"/>
  <outline>
    <contour>
      <point x="316" y="-11" type="curve" smooth="yes"/>
      <point x="136" y="-11"/>
      <point x="53" y="111"/>
      <point x="53" y="250" type="curve" smooth="yes"/>
      <point x="53" y="393"/>
      <point x="140" y="514"/>
      <point x="316" y="514" type="curve" smooth="yes"/>
      <point x="496" y="514"/>
      <point x="575" y="395"/>
      <point x="575" y="250" type="curve" smooth="yes"/>
      <point x="575" y="114"/>
      <point x="491" y="-11"/>
    </contour>
    <contour>
      <point x="314" y="86" type="curve" smooth="yes"/>
      <point x="412" y="86"/>
      <point x="449" y="166"/>
      <point x="449" y="252" type="curve" smooth="yes"/>
      <point x="449" y="341"/>
      <point x="408" y="416"/>
      <point x="314" y="416" type="curve" smooth="yes"/>
      <point x="220" y="416"/>
      <point x="179" y="341"/>
      <point x="179" y="252" type="curve" smooth="yes"/>
      <point x="179" y="166"/>
      <point x="217" y="86"/>
    </contour>
  </outline>
</glyph>
<glyph name="p" format="1">
  <advance width="621"/>
  <unicode hex="0070"/>
  <outline>
    <contour>
      <point x="317" y="86" type="curve" smooth="yes"/>
      <point x="410" y="86"/>
      <point x="444" y="165"/>
      <point x="444" y="251" type="curve" smooth="yes"/>
      <point x="444" y="340"/>
      <point x="407" y="416"/>
      <point x="317" y="416" type="curve" smooth="yes"/>
      <point x="229" y="416"/>
      <point x="190" y="341"/>
      <point x="190" y="253" type="curve" smooth="yes"/>
      <point x="190" y="166"/>
      <point x="225" y="86"/>
    </contour>
    <contour>
      <point x="78" y="-193" type="line"/>
      <point x="78" y="333" type="line" smooth="yes"/>
      <point x="78" y="386"/>
      <point x="73" y="448"/>
      <point x="69" y="501" type="curve"/>
      <point x="197" y="501" type="line"/>
      <point x="197" y="429" type="line"/>
      <point x="203" y="459"/>
      <point x="260" y="514"/>
      <point x="352" y="514" type="curve" smooth="yes"/>
      <point x="488" y="514"/>
      <point x="570" y="391"/>
      <point x="570" y="256" type="curve" smooth="yes"/>
      <point x="570" y="121"/>
      <point x="489" y="-11"/>
      <point x="345" y="-11" type="curve" smooth="yes"/>
      <point x="257" y="-11"/>
      <point x="203" y="44"/>
      <point x="197" y="69" type="curve"/>
      <point x="197" y="-193" type="line"/>
    </contour>
  </outline>
</glyph>
<glyph name="q" format="1">
  <advance width="610"/>
  <unicode hex="0071"/>
  <outline>
    <contour>
      <point x="304" y="86" type="curve" smooth="yes"/>
      <point x="396" y="86"/>
      <point x="431" y="166"/>
      <point x="431" y="250" type="curve" smooth="yes"/>
      <point x="431" y="341"/>
      <point x="392" y="416"/>
      <point x="303" y="416" type="curve" smooth="yes"/>
      <point x="215" y="416"/>
      <point x="177" y="341"/>
      <point x="177" y="252" type="curve" smooth="yes"/>
      <point x="177" y="166"/>
      <point x="212" y="86"/>
    </contour>
    <contour>
      <point x="424" y="-193" type="line"/>
      <point x="424" y="40" type="line"/>
      <point x="383" y="7"/>
      <point x="333" y="-11"/>
      <point x="287" y="-11" type="curve" smooth="yes"/>
      <point x="126" y="-11"/>
      <point x="51" y="122"/>
      <point x="51" y="258" type="curve" smooth="yes"/>
      <point x="51" y="392"/>
      <point x="134" y="514"/>
      <point x="288" y="514" type="curve" smooth="yes"/>
      <point x="332" y="514"/>
      <point x="384" y="493"/>
      <point x="425" y="447" type="curve"/>
      <point x="425" y="501" type="line"/>
      <point x="548" y="501" type="line"/>
      <point x="544" y="448"/>
      <point x="543" y="405"/>
      <point x="543" y="356" type="curve" smooth="yes"/>
      <point x="543" y="-193" type="line"/>
    </contour>
  </outline>
</glyph>
<glyph name="r" format="1">
  <advance width="380"/>
  <unicode hex="0072"/>
  <outline>
    <contour>
      <point x="79" y="0" type="line"/>
      <point x="79" y="374" type="line" smooth="yes"/>
      <point x="79" y="439"/>
      <point x="69" y="501"/>
      <point x="69" y="501" type="curve"/>
      <point x="198" y="501" type="line"/>
      <point x="198" y="435" type="line"/>
      <point x="235" y="483"/>
      <point x="271" y="514"/>
      <point x="324" y="514" type="curve" smooth="yes"/>
      <point x="338" y="514"/>
      <point x="355" y="511"/>
      <point x="374" y="506" type="curve"/>
      <point x="374" y="400" type="line"/>
      <point x="352" y="407"/>
      <point x="331" y="411"/>
      <point x="313" y="411" type="curve" smooth="yes"/>
      <point x="250" y="411"/>
      <point x="200" y="370"/>
      <point x="200" y="284" type="curve" smooth="yes"/>
      <point x="200" y="0" type="line"/>
    </contour>
  </outline>
</glyph>
<glyph name="s" format="1">
  <advance width="482"/>
  <unicode hex="0073"/>
  <outline>
    <contour>
      <point x="261" y="-11" type="curve" smooth="yes"/>
      <point x="166" y="-11"/>
      <point x="91" y="21"/>
      <point x="52" y="52" type="curve"/>
      <point x="82" y="139" type="line"/>
      <point x="123" y="107"/>
      <point x="191" y="84"/>
      <point x="250" y="84" type="curve" smooth="yes"/>
      <point x="302" y="84"/>
      <point x="332" y="100"/>
      <point x="332" y="142" type="curve" smooth="yes"/>
      <point x="332" y="151" type="line" smooth="yes"/>
      <point x="332" y="169"/>
      <point x="328" y="182"/>
      <point x="264" y="203" type="curve" smooth="yes"/>
      <point x="192" y="226" type="line" smooth="yes"/>
      <point x="111" y="252"/>
      <point x="57" y="279"/>
      <point x="57" y="368" type="curve" smooth="yes"/>
      <point x="57" y="473"/>
      <point x="144" y="513"/>
      <point x="243" y="513" type="curve" smooth="yes"/>
      <point x="305" y="513"/>
      <point x="372" y="497"/>
      <point x="422" y="464" type="curve"/>
      <point x="391" y="381" type="line"/>
      <point x="353" y="401"/>
      <point x="295" y="418"/>
      <point x="251" y="418" type="curve" smooth="yes"/>
      <point x="196" y="418"/>
      <point x="173" y="407"/>
      <point x="173" y="375" type="curve" smooth="yes"/>
      <point x="173" y="346"/>
      <point x="182" y="336"/>
      <point x="263" y="309" type="curve" smooth="yes"/>
      <point x="328" y="287" type="line"/>
      <point x="400" y="263"/>
      <point x="443" y="231"/>
      <point x="443" y="142" type="curve" smooth="yes"/>
      <point x="443" y="26"/>
      <point x="345" y="-11"/>
    </contour>
  </outline>
</glyph>
<glyph name="t" format="1">
  <advance width="392"/>
  <unicode hex="0074"/>
  <outline>
    <contour>
      <point x="130" y="664" type="move" name="caron.alt"/>
    </contour>
    <contour>
      <point x="360" y="0" type="line"/>
      <point x="312" y="0" type="line" smooth="yes"/>
      <point x="188" y="0"/>
      <point x="105" y="21"/>
      <point x="105" y="184" type="curve" smooth="yes"/>
      <point x="105" y="420" type="line"/>
      <point x="0" y="420" type="line"/>
      <point x="0" y="501" type="line"/>
      <point x="110" y="501" type="line"/>
      <point x="110" y="618" type="line"/>
      <point x="226" y="654" type="line"/>
      <point x="226" y="501" type="line"/>
      <point x="356" y="501" type="line"/>
      <point x="356" y="420" type="line"/>
      <point x="226" y="420" type="line"/>
      <point x="226" y="176" type="line" smooth="yes"/>
      <point x="226" y="100"/>
      <point x="248" y="93"/>
      <point x="360" y="93" type="curve"/>
    </contour>
  </outline>
</glyph>
<glyph name="u" format="1">
  <advance width="579"/>
  <unicode hex="0075"/>
  <outline>
    <contour>
      <point x="256" y="-11" type="curve" smooth="yes"/>
      <point x="134" y="-11"/>
      <point x="63" y="64"/>
      <point x="63" y="184" type="curve" smooth="yes"/>
      <point x="63" y="501" type="line"/>
      <point x="184" y="501" type="line"/>
      <point x="184" y="186" type="line" smooth="yes"/>
      <point x="184" y="118"/>
      <point x="223" y="86"/>
      <point x="281" y="86" type="curve" smooth="yes"/>
      <point x="352" y="86"/>
      <point x="387" y="119"/>
      <point x="387" y="201" type="curve" smooth="yes"/>
      <point x="387" y="501" type="line"/>
      <point x="508" y="501" type="line"/>
      <point x="508" y="135" type="line" smooth="yes"/>
      <point x="508" y="109"/>
      <point x="514" y="0"/>
      <point x="514" y="0" type="curve"/>
      <point x="389" y="0" type="line"/>
      <point x="387" y="74" type="line"/>
      <point x="381" y="50"/>
      <point x="344" y="-11"/>
    </contour>
  </outline>
</glyph>
<glyph name="v" format="1">
  <advance width="549"/>
  <unicode hex="0076"/>
  <outline>
    <contour>
      <point x="219" y="0" type="line"/>
      <point x="8" y="501" type="line"/>
      <point x="143" y="501" type="line"/>
      <point x="188" y="379"/>
      <point x="233" y="256"/>
      <point x="279" y="135" type="curve"/>
      <point x="323" y="256"/>
      <point x="368" y="379"/>
      <point x="411" y="501" type="curve"/>
      <point x="542" y="501" type="line"/>
      <point x="329" y="0" type="line"/>
    </contour>
  </outline>
</glyph>
<glyph name="w" format="1">
  <advance width="822"/>
  <unicode hex="0077"/>
  <outline>
    <contour>
      <point x="188" y="0" type="line"/>
      <point x="7" y="501" type="line"/>
      <point x="136" y="501" type="line"/>
      <point x="174" y="384"/>
      <point x="212" y="267"/>
      <point x="250" y="149" type="curve"/>
      <point x="289" y="267"/>
      <point x="328" y="384"/>
      <point x="368" y="501" type="curve"/>
      <point x="474" y="501" type="line"/>
      <point x="512" y="383"/>
      <point x="548" y="265"/>
      <point x="586" y="148" type="curve"/>
      <point x="624" y="267"/>
      <point x="664" y="383"/>
      <point x="703" y="501" type="curve"/>
      <point x="816" y="501" type="line"/>
      <point x="626" y="0" type="line"/>
      <point x="525" y="0" type="line"/>
      <point x="487" y="114"/>
      <point x="448" y="227"/>
      <point x="411" y="341" type="curve"/>
      <point x="371" y="227"/>
      <point x="331" y="114"/>
      <point x="290" y="0" type="curve"/>
    </contour>
  </outline>
</glyph>
<glyph name="x" format="1">
  <advance width="507"/>
  <unicode hex="0078"/>
  <outline>
    <contour>
      <point x="5" y="0" type="line"/>
      <point x="186" y="244" type="line"/>
      <point x="14" y="501" type="line"/>
      <point x="148" y="501" type="line"/>
      <point x="256" y="339" type="line"/>
      <point x="376" y="501" type="line"/>
      <point x="501" y="501" type="line"/>
      <point x="325" y="261" type="line"/>
      <point x="502" y="0" type="line"/>
      <point x="368" y="0" type="line"/>
      <point x="255" y="166" type="line"/>
      <point x="133" y="0" type="line"/>
    </contour>
  </outline>
</glyph>
<glyph name="y" format="1">
  <advance width="543"/>
  <unicode hex="0079"/>
  <outline>
    <contour>
      <point x="124" y="-217" type="curve"/>
      <point x="73" y="-135" type="line"/>
      <point x="163" y="-100"/>
      <point x="205" y="-66"/>
      <point x="221" y="-13" type="curve"/>
      <point x="228" y="11" type="line"/>
      <point x="15" y="501" type="line"/>
      <point x="141" y="501" type="line"/>
      <point x="286" y="142" type="line"/>
      <point x="411" y="501" type="line"/>
      <point x="534" y="501" type="line"/>
      <point x="331" y="-27" type="line"/>
      <point x="288" y="-135"/>
      <point x="206" y="-192"/>
    </contour>
  </outline>
</glyph>
<glyph name="z" format="1">
  <advance width="486"/>
  <unicode hex="007A"/>
  <outline>
    <contour>
      <point x="47" y="0" type="line"/>
      <point x="47" y="64" type="line"/>
      <point x="284" y="404" type="line"/>
      <point x="60" y="404" type="line"/>
      <point x="60" y="501" type="line"/>
      <point x="441" y="501" type="line"/>
      <point x="441" y="438" type="line"/>
      <point x="203" y="96" type="line"/>
      <point x="454" y="96" type="line"/>
      <point x="454" y="0" type="line"/>
    </contour>
  </outline>
</glyph>
<glyph name="braceleft" format="1">
  <advance width="481"/>
  <unicode hex="007B"/>
  <outline>
    <contour>
      <point x="292" y="574" type="curve" smooth="yes"/>
      <point x="292" y="465" type="line" smooth="yes"/>
      <point x="292" y="388"/>
      <point x="262" y="335"/>
      <point x="173" y="333" type="curve"/>
      <point x="260" y="332"/>
      <point x="292" y="283"/>
      <point x="292" y="207" type="curve" smooth="yes"/>
      <point x="292" y="97" type="line" smooth="yes"/>
      <point x="292" y="8"/>
      <point x="307" y="7"/>
      <point x="422" y="7" type="curve"/>
      <point x="422" y="-88" type="line"/>
      <point x="417" y="-88" type="line" smooth="yes"/>
      <point x="197" y="-88"/>
      <point x="167" y="-50"/>
      <point x="167" y="101" type="curve" smooth="yes"/>
      <point x="167" y="213" type="line" smooth="yes"/>
      <point x="167" y="280"/>
      <point x="147" y="296"/>
      <point x="79" y="296" type="curve" smooth="yes"/>
      <point x="73" y="296" type="line"/>
      <point x="73" y="369" type="line"/>
      <point x="79" y="369" type="line" smooth="yes"/>
      <point x="150" y="369"/>
      <point x="167" y="386"/>
      <point x="167" y="456" type="curve" smooth="yes"/>
      <point x="167" y="568" type="line" smooth="yes"/>
      <point x="167" y="721"/>
      <point x="203" y="753"/>
      <point x="422" y="753" type="curve"/>
      <point x="422" y="658" type="line"/>
      <point x="384" y="658" type="line" smooth="yes"/>
      <point x="307" y="658"/>
      <point x="292" y="654"/>
    </contour>
  </outline>
</glyph>
<glyph name="bar" format="1">
  <advance width="192"/>
  <unicode hex="007C"/>
  <outline>
    <contour>
      <point x="39" y="-222" type="line"/>
      <point x="39" y="735" type="line"/>
      <point x="154" y="735" type="line"/>
      <point x="154" y="-222" type="line"/>
    </contour>
  </outline>
</glyph>
<glyph name="braceright" format="1">
  <advance width="479"/>
  <unicode hex="007D"/>
  <outline>
    <contour>
      <point x="53" y="-88" type="curve"/>
      <point x="53" y="7" type="line"/>
      <point x="90" y="7" type="line" smooth="yes"/>
      <point x="167" y="7"/>
      <point x="183" y="10"/>
      <point x="183" y="90" type="curve" smooth="yes"/>
      <point x="183" y="199" type="line" smooth="yes"/>
      <point x="183" y="276"/>
      <point x="213" y="329"/>
      <point x="302" y="332" type="curve"/>
      <point x="215" y="332"/>
      <point x="183" y="382"/>
      <point x="183" y="458" type="curve" smooth="yes"/>
      <point x="183" y="568" type="line" smooth="yes"/>
      <point x="183" y="657"/>
      <point x="167" y="657"/>
      <point x="52" y="657" type="curve"/>
      <point x="52" y="753" type="line"/>
      <point x="57" y="753" type="line" smooth="yes"/>
      <point x="277" y="753"/>
      <point x="307" y="715"/>
      <point x="307" y="564" type="curve" smooth="yes"/>
      <point x="307" y="452" type="line" smooth="yes"/>
      <point x="307" y="385"/>
      <point x="328" y="369"/>
      <point x="396" y="369" type="curve" smooth="yes"/>
      <point x="402" y="369" type="line"/>
      <point x="402" y="296" type="line"/>
      <point x="396" y="296" type="line" smooth="yes"/>
      <point x="325" y="296"/>
      <point x="307" y="279"/>
      <point x="307" y="209" type="curve" smooth="yes"/>
      <point x="307" y="96" type="line" smooth="yes"/>
      <point x="307" y="-57"/>
      <point x="272" y="-88"/>
    </contour>
  </outline>
</glyph>
<glyph name="asciitilde" format="1">
  <advance width="736"/>
  <unicode hex="007E"/>
  <outline>
    <contour>
      <point x="164" y="179" type="curve"/>
      <point x="89" y="215" type="line"/>
      <point x="126" y="340"/>
      <point x="170" y="356"/>
      <point x="230" y="356" type="curve" smooth="yes"/>
      <point x="269" y="356"/>
      <point x="316" y="346"/>
      <point x="374" y="325" type="curve" smooth="yes"/>
      <point x="434" y="302"/>
      <point x="470" y="296"/>
      <point x="500" y="296" type="curve" smooth="yes"/>
      <point x="534" y="296"/>
      <point x="544" y="300"/>
      <point x="559" y="369" type="curve"/>
      <point x="636" y="334" type="line"/>
      <point x="605" y="212"/>
      <point x="572" y="192"/>
      <point x="509" y="192" type="curve" smooth="yes"/>
      <point x="467" y="192"/>
      <point x="416" y="204"/>
      <point x="345" y="227" type="curve" smooth="yes"/>
      <point x="294" y="245"/>
      <point x="265" y="251"/>
      <point x="240" y="251" type="curve" smooth="yes"/>
      <point x="201" y="251"/>
      <point x="187" y="244"/>
    </contour>
  </outline>
</glyph>
<glyph name="uni007F" format="1">
  <advance width="742"/>
  <unicode hex="007F"/>
  <outline>
    <contour>
      <point x="92" y="0" type="line"/>
      <point x="92" y="711" type="line"/>
      <point x="651" y="711" type="line"/>
      <point x="651" y="0" type="line"/>
    </contour>
    <contour>
      <point x="176" y="61" type="line"/>
      <point x="567" y="61" type="line"/>
      <point x="567" y="649" type="line"/>
      <point x="176" y="649" type="line"/>
    </contour>
  </outline>
</glyph>
<glyph name="exclamdown" format="1">
  <advance width="383"/>
  <unicode hex="00A1"/>
  <outline>
    <contour>
      <point x="109" y="564" type="line"/>
      <point x="262" y="564" type="line"/>
      <point x="262" y="431" type="line"/>
      <point x="109" y="431" type="line"/>
    </contour>
    <contour>
      <point x="150" y="375" type="line"/>
      <point x="222" y="375" type="line"/>
      <point x="258" y="-146" type="line"/>
      <point x="114" y="-146" type="line"/>
    </contour>
  </outline>
</glyph>
<glyph name="cent" format="1">
  <advance width="525"/>
  <unicode hex="00A2"/>
  <outline>
    <contour>
      <point x="296" y="-118" type="line"/>
      <point x="363" y="-118" type="line"/>
      <point x="363" y="-8" type="line"/>
      <point x="410" y="-1"/>
      <point x="450" y="16"/>
      <point x="492" y="45" type="curve"/>
      <point x="455" y="134" type="line"/>
      <point x="440" y="123"/>
      <point x="410" y="97"/>
      <point x="363" y="89" type="curve"/>
      <point x="363" y="413" type="line"/>
      <point x="401" y="406"/>
      <point x="430" y="387"/>
      <point x="451" y="368" type="curve"/>
      <point x="495" y="446" type="line"/>
      <point x="462" y="481"/>
      <point x="418" y="502"/>
      <point x="363" y="510" type="curve"/>
      <point x="363" y="610" type="line"/>
      <point x="296" y="610" type="line"/>
      <point x="296" y="513" type="line"/>
      <point x="143" y="505"/>
      <point x="53" y="394"/>
      <point x="53" y="251" type="curve" smooth="yes"/>
      <point x="53" y="119"/>
      <point x="139" y="-2"/>
      <point x="296" y="-11" type="curve"/>
    </contour>
    <contour>
      <point x="296" y="414" type="curve"/>
      <point x="296" y="89" type="line"/>
      <point x="221" y="103"/>
      <point x="178" y="166"/>
      <point x="178" y="250" type="curve" smooth="yes"/>
      <point x="178" y="337"/>
      <point x="218" y="401"/>
    </contour>
  </outline>
</glyph>
<glyph name="sterling" format="1">
  <advance width="612"/>
  <unicode hex="00A3"/>
  <outline>
    <contour>
      <point x="533" y="595" type="line"/>
      <point x="491" y="614"/>
      <point x="451" y="626"/>
      <point x="405" y="626" type="curve" smooth="yes"/>
      <point x="321" y="626"/>
      <point x="283" y="582"/>
      <point x="283" y="463" type="curve" smooth="yes"/>
      <point x="283" y="411" type="line"/>
      <point x="448" y="411" type="line"/>
      <point x="448" y="317" type="line"/>
      <point x="282" y="317" type="line"/>
      <point x="282" y="302" type="line" smooth="yes"/>
      <point x="282" y="213"/>
      <point x="277" y="143"/>
      <point x="246" y="100" type="curve"/>
      <point x="575" y="100" type="line"/>
      <point x="575" y="0" type="line"/>
      <point x="71" y="0" type="line"/>
      <point x="71" y="91" type="line"/>
      <point x="107" y="126"/>
      <point x="162" y="158"/>
      <point x="162" y="304" type="curve" smooth="yes"/>
      <point x="162" y="317" type="line"/>
      <point x="71" y="317" type="line"/>
      <point x="71" y="411" type="line"/>
      <point x="160" y="411" type="line"/>
      <point x="160" y="436" type="line" smooth="yes"/>
      <point x="160" y="594"/>
      <point x="199" y="725"/>
      <point x="397" y="725" type="curve" smooth="yes"/>
      <point x="460" y="725"/>
      <point x="515" y="714"/>
      <point x="562" y="689" type="curve"/>
    </contour>
  </outline>
</glyph>
<glyph name="currency" format="1">
  <advance width="594"/>
  <unicode hex="00A4"/>
  <outline>
    <contour>
      <point x="297" y="347" type="curve" smooth="yes"/>
      <point x="382" y="347"/>
      <point x="445" y="413"/>
      <point x="445" y="498" type="curve" smooth="yes"/>
      <point x="445" y="583"/>
      <point x="382" y="650"/>
      <point x="297" y="650" type="curve" smooth="yes"/>
      <point x="212" y="650"/>
      <point x="150" y="583"/>
      <point x="150" y="498" type="curve" smooth="yes"/>
      <point x="150" y="413"/>
      <point x="212" y="347"/>
    </contour>
    <contour>
      <point x="83" y="265" type="line"/>
      <point x="59" y="290" type="line"/>
      <point x="150" y="381" type="line"/>
      <point x="123" y="413"/>
      <point x="107" y="455"/>
      <point x="107" y="500" type="curve" smooth="yes"/>
      <point x="107" y="547"/>
      <point x="124" y="590"/>
      <point x="153" y="623" type="curve"/>
      <point x="58" y="718" type="line"/>
      <point x="83" y="743" type="line"/>
      <point x="179" y="647" type="line"/>
      <point x="211" y="672"/>
      <point x="253" y="688"/>
      <point x="298" y="688" type="curve" smooth="yes"/>
      <point x="343" y="688"/>
      <point x="384" y="673"/>
      <point x="417" y="648" type="curve"/>
      <point x="512" y="743" type="line"/>
      <point x="537" y="718" type="line"/>
      <point x="442" y="624" type="line"/>
      <point x="471" y="591"/>
      <point x="489" y="548"/>
      <point x="489" y="500" type="curve" smooth="yes"/>
      <point x="489" y="455"/>
      <point x="473" y="413"/>
      <point x="446" y="380" type="curve"/>
      <point x="537" y="290" type="line"/>
      <point x="512" y="265" type="line"/>
      <point x="421" y="356" type="line"/>
      <point x="388" y="329"/>
      <point x="345" y="312"/>
      <point x="298" y="312" type="curve" smooth="yes"/>
      <point x="251" y="312"/>
      <point x="208" y="328"/>
      <point x="175" y="356" type="curve"/>
    </contour>
  </outline>
</glyph>
<glyph name="yen" format="1">
  <advance width="625"/>
  <unicode hex="00A5"/>
  <outline>
    <contour>
      <point x="66" y="134" type="line"/>
      <point x="66" y="205" type="line"/>
      <point x="248" y="205" type="line"/>
      <point x="248" y="273" type="line"/>
      <point x="66" y="273" type="line"/>
      <point x="66" y="346" type="line"/>
      <point x="206" y="346" type="line"/>
      <point x="-6" y="711" type="line"/>
      <point x="135" y="711" type="line"/>
      <point x="312" y="385" type="line"/>
      <point x="486" y="711" type="line"/>
      <point x="631" y="711" type="line"/>
      <point x="414" y="346" type="line"/>
      <point x="552" y="346" type="line"/>
      <point x="552" y="273" type="line"/>
      <point x="372" y="273" type="line"/>
      <point x="372" y="205" type="line"/>
      <point x="554" y="205" type="line"/>
      <point x="554" y="134" type="line"/>
      <point x="372" y="134" type="line"/>
      <point x="372" y="0" type="line"/>
      <point x="248" y="0" type="line"/>
      <point x="248" y="134" type="line"/>
    </contour>
  </outline>
</glyph>
<glyph name="brokenbar" format="1">
  <advance width="244"/>
  <unicode hex="00A6"/>
  <outline>
    <contour>
      <point x="45" y="276" type="line"/>
      <point x="45" y="735" type="line"/>
      <point x="166" y="735" type="line"/>
      <point x="166" y="276" type="line"/>
    </contour>
    <contour>
      <point x="46" y="-222" type="line"/>
      <point x="46" y="203" type="line"/>
      <point x="167" y="203" type="line"/>
      <point x="167" y="-222" type="line"/>
    </contour>
  </outline>
</glyph>
<glyph name="section" format="1">
  <advance width="539"/>
  <unicode hex="00A7"/>
  <outline>
    <contour>
      <point x="314" y="289" type="curve"/>
      <point x="323" y="301"/>
      <point x="329" y="312"/>
      <point x="329" y="334" type="curve" smooth="yes"/>
      <point x="329" y="374"/>
      <point x="297" y="382"/>
      <point x="236" y="410" type="curve"/>
      <point x="229" y="405"/>
      <point x="208" y="385"/>
      <point x="208" y="358" type="curve" smooth="yes"/>
      <point x="208" y="325"/>
      <point x="243" y="321"/>
    </contour>
    <contour>
      <point x="255" y="-30" type="curve" smooth="yes"/>
      <point x="201" y="-30"/>
      <point x="145" y="-20"/>
      <point x="91" y="0" type="curve"/>
      <point x="91" y="102" type="line"/>
      <point x="133" y="85"/>
      <point x="198" y="70"/>
      <point x="250" y="70" type="curve" smooth="yes"/>
      <point x="292" y="70"/>
      <point x="326" y="86"/>
      <point x="326" y="125" type="curve" smooth="yes"/>
      <point x="326" y="148"/>
      <point x="298" y="161"/>
      <point x="185" y="216" type="curve" smooth="yes"/>
      <point x="123" y="245"/>
      <point x="83" y="291"/>
      <point x="83" y="348" type="curve" smooth="yes"/>
      <point x="83" y="393"/>
      <point x="107" y="432"/>
      <point x="147" y="460" type="curve"/>
      <point x="110" y="489"/>
      <point x="95" y="524"/>
      <point x="95" y="576" type="curve" smooth="yes"/>
      <point x="95" y="677"/>
      <point x="181" y="723"/>
      <point x="285" y="723" type="curve" smooth="yes"/>
      <point x="331" y="723"/>
      <point x="383" y="715"/>
      <point x="431" y="699" type="curve"/>
      <point x="431" y="600" type="line"/>
      <point x="404" y="605"/>
      <point x="351" y="629"/>
      <point x="301" y="629" type="curve" smooth="yes"/>
      <point x="265" y="629"/>
      <point x="228" y="615"/>
      <point x="228" y="583" type="curve" smooth="yes"/>
      <point x="228" y="554"/>
      <point x="265" y="526"/>
      <point x="333" y="494" type="curve"/>
      <point x="401" y="458"/>
      <point x="463" y="424"/>
      <point x="463" y="353" type="curve" smooth="yes"/>
      <point x="463" y="308"/>
      <point x="439" y="273"/>
      <point x="400" y="241" type="curve"/>
      <point x="438" y="219"/>
      <point x="459" y="179"/>
      <point x="459" y="128" type="curve" smooth="yes"/>
      <point x="459" y="20"/>
      <point x="365" y="-30"/>
    </contour>
  </outline>
</glyph>
<glyph name="dieresis" format="1">
  <advance width="362"/>
  <unicode hex="00A8"/>
  <outline>
    <contour>
      <point x="232" y="562" type="line"/>
      <point x="232" y="672" type="line"/>
      <point x="352" y="672" type="line"/>
      <point x="352" y="562" type="line"/>
    </contour>
    <contour>
      <point x="9" y="562" type="line"/>
      <point x="9" y="672" type="line"/>
      <point x="129" y="672" type="line"/>
      <point x="129" y="562" type="line"/>
    </contour>
  </outline>
</glyph>
<glyph name="copyright" format="1">
  <advance width="836"/>
  <unicode hex="00A9"/>
  <outline>
    <contour>
      <point x="418" y="-11" type="curve" smooth="yes"/>
      <point x="216" y="-11"/>
      <point x="52" y="155"/>
      <point x="52" y="357" type="curve" smooth="yes"/>
      <point x="52" y="559"/>
      <point x="216" y="724"/>
      <point x="418" y="724" type="curve" smooth="yes"/>
      <point x="620" y="724"/>
      <point x="785" y="559"/>
      <point x="785" y="357" type="curve" smooth="yes"/>
      <point x="785" y="155"/>
      <point x="620" y="-11"/>
    </contour>
    <contour>
      <point x="417" y="45" type="curve" smooth="yes"/>
      <point x="585" y="45"/>
      <point x="719" y="187"/>
      <point x="719" y="356" type="curve" smooth="yes"/>
      <point x="719" y="524"/>
      <point x="585" y="665"/>
      <point x="417" y="665" type="curve" smooth="yes"/>
      <point x="249" y="665"/>
      <point x="116" y="524"/>
      <point x="116" y="356" type="curve" smooth="yes"/>
      <point x="116" y="187"/>
      <point x="249" y="45"/>
    </contour>
    <contour>
      <point x="428" y="138" type="curve" smooth="yes"/>
      <point x="285" y="138"/>
      <point x="213" y="242"/>
      <point x="213" y="355" type="curve" smooth="yes"/>
      <point x="213" y="476"/>
      <point x="293" y="571"/>
      <point x="427" y="571" type="curve" smooth="yes"/>
      <point x="492" y="571"/>
      <point x="541" y="552"/>
      <point x="576" y="515" type="curve"/>
      <point x="541" y="451" type="line"/>
      <point x="517" y="472"/>
      <point x="484" y="490"/>
      <point x="438" y="490" type="curve" smooth="yes"/>
      <point x="358" y="490"/>
      <point x="317" y="434"/>
      <point x="317" y="355" type="curve" smooth="yes"/>
      <point x="317" y="277"/>
      <point x="359" y="219"/>
      <point x="441" y="219" type="curve" smooth="yes"/>
      <point x="498" y="219"/>
      <point x="530" y="247"/>
      <point x="543" y="257" type="curve"/>
      <point x="574" y="183" type="line"/>
      <point x="530" y="152"/>
      <point x="488" y="138"/>
    </contour>
  </outline>
</glyph>
<glyph name="ordfeminine" format="1">
  <advance width="423"/>
  <unicode hex="00AA"/>
  <outline>
    <contour>
      <point x="176" y="415" type="curve" smooth="yes"/>
      <point x="212" y="415"/>
      <point x="268" y="438"/>
      <point x="268" y="502" type="curve" smooth="yes"/>
      <point x="268" y="509" type="line"/>
      <point x="164" y="509"/>
      <point x="134" y="506"/>
      <point x="134" y="457" type="curve" smooth="yes"/>
      <point x="134" y="431"/>
      <point x="156" y="415"/>
    </contour>
    <contour>
      <point x="170" y="352" type="curve" smooth="yes"/>
      <point x="110" y="352"/>
      <point x="52" y="387"/>
      <point x="52" y="457" type="curve" smooth="yes"/>
      <point x="52" y="524"/>
      <point x="95" y="562"/>
      <point x="182" y="562" type="curve" smooth="yes"/>
      <point x="269" y="562" type="line"/>
      <point x="269" y="582" type="line" smooth="yes"/>
      <point x="269" y="627"/>
      <point x="241" y="642"/>
      <point x="206" y="642" type="curve" smooth="yes"/>
      <point x="156" y="642"/>
      <point x="96" y="616"/>
      <point x="96" y="616" type="curve"/>
      <point x="67" y="687" type="line"/>
      <point x="67" y="687"/>
      <point x="127" y="721"/>
      <point x="217" y="721" type="curve" smooth="yes"/>
      <point x="296" y="721"/>
      <point x="365" y="686"/>
      <point x="365" y="578" type="curve" smooth="yes"/>
      <point x="365" y="482"/>
      <point x="367" y="485"/>
      <point x="367" y="443" type="curve" smooth="yes"/>
      <point x="368" y="387"/>
      <point x="371" y="378"/>
      <point x="372" y="368" type="curve"/>
      <point x="283" y="368" type="line"/>
      <point x="275" y="416" type="line"/>
      <point x="267" y="390"/>
      <point x="233" y="352"/>
    </contour>
  </outline>
</glyph>
<glyph name="guillemotleft" format="1">
  <advance width="574"/>
  <unicode hex="00AB"/>
  <outline>
    <contour>
      <point x="417" y="77" type="line"/>
      <point x="282" y="264" type="line"/>
      <point x="420" y="450" type="line"/>
      <point x="518" y="450" type="line"/>
      <point x="401" y="263" type="line"/>
      <point x="514" y="77" type="line"/>
    </contour>
    <contour>
      <point x="202" y="77" type="line"/>
      <point x="66" y="264" type="line"/>
      <point x="205" y="450" type="line"/>
      <point x="302" y="450" type="line"/>
      <point x="186" y="263" type="line"/>
      <point x="298" y="77" type="line"/>
    </contour>
  </outline>
</glyph>
<glyph name="logicalnot" format="1">
  <advance width="711"/>
  <unicode hex="00AC"/>
  <outline>
    <contour>
      <point x="486" y="107" type="line"/>
      <point x="486" y="297" type="line"/>
      <point x="80" y="297" type="line"/>
      <point x="80" y="397" type="line"/>
      <point x="600" y="397" type="line"/>
      <point x="600" y="107" type="line"/>
    </contour>
  </outline>
</glyph>
<glyph name="softhyphen" format="1">
  <advance width="360"/>
  <unicode hex="00AD"/>
  <outline>
    <contour>
      <point x="26" y="223" type="line"/>
      <point x="26" y="316" type="line"/>
      <point x="335" y="316" type="line"/>
      <point x="335" y="223" type="line"/>
    </contour>
  </outline>
</glyph>
<glyph name="uni00AD" format="1">
  <advance width="360"/>
  <unicode hex="00AD"/>
  <outline>
    <contour>
      <point x="26" y="223" type="line"/>
      <point x="26" y="316" type="line"/>
      <point x="335" y="316" type="line"/>
      <point x="335" y="223" type="line"/>
    </contour>
  </outline>
</glyph>
<glyph name="registered" format="1">
  <advance width="836"/>
  <unicode hex="00AE"/>
  <outline>
    <contour>
      <point x="418" y="-11" type="curve" smooth="yes"/>
      <point x="216" y="-11"/>
      <point x="52" y="155"/>
      <point x="52" y="357" type="curve" smooth="yes"/>
      <point x="52" y="559"/>
      <point x="216" y="724"/>
      <point x="418" y="724" type="curve" smooth="yes"/>
      <point x="620" y="724"/>
      <point x="785" y="559"/>
      <point x="785" y="357" type="curve" smooth="yes"/>
      <point x="785" y="155"/>
      <point x="620" y="-11"/>
    </contour>
    <contour>
      <point x="417" y="45" type="curve" smooth="yes"/>
      <point x="585" y="45"/>
      <point x="719" y="187"/>
      <point x="719" y="356" type="curve" smooth="yes"/>
      <point x="719" y="524"/>
      <point x="585" y="665"/>
      <point x="417" y="665" type="curve" smooth="yes"/>
      <point x="249" y="665"/>
      <point x="116" y="524"/>
      <point x="116" y="356" type="curve" smooth="yes"/>
      <point x="116" y="187"/>
      <point x="249" y="45"/>
    </contour>
    <contour>
      <point x="359" y="385" type="line"/>
      <point x="403" y="385" type="line" smooth="yes"/>
      <point x="462" y="385"/>
      <point x="498" y="394"/>
      <point x="498" y="437" type="curve" smooth="yes"/>
      <point x="498" y="485"/>
      <point x="483" y="490"/>
      <point x="412" y="490" type="curve" smooth="yes"/>
      <point x="359" y="490" type="line"/>
    </contour>
    <contour>
      <point x="253" y="142" type="line"/>
      <point x="253" y="572" type="line"/>
      <point x="409" y="572" type="line" smooth="yes"/>
      <point x="545" y="572"/>
      <point x="602" y="526"/>
      <point x="602" y="443" type="curve" smooth="yes"/>
      <point x="602" y="396"/>
      <point x="584" y="344"/>
      <point x="516" y="325" type="curve"/>
      <point x="607" y="142" type="line"/>
      <point x="493" y="142" type="line"/>
      <point x="418" y="308" type="line"/>
      <point x="358" y="308" type="line"/>
      <point x="358" y="142" type="line"/>
    </contour>
  </outline>
</glyph>
<glyph name="macron" format="1">
  <advance width="369"/>
  <unicode hex="00AF"/>
  <outline>
    <contour>
      <point x="32" y="560" type="line"/>
      <point x="32" y="636" type="line"/>
      <point x="337" y="636" type="line"/>
      <point x="337" y="560" type="line"/>
    </contour>
  </outline>
</glyph>
<glyph name="degree" format="1">
  <advance width="432"/>
  <unicode hex="00B0"/>
  <outline>
    <contour>
      <point x="216" y="415" type="curve" smooth="yes"/>
      <point x="133" y="415"/>
      <point x="63" y="480"/>
      <point x="63" y="565" type="curve" smooth="yes"/>
      <point x="63" y="649"/>
      <point x="133" y="716"/>
      <point x="216" y="716" type="curve" smooth="yes"/>
      <point x="300" y="716"/>
      <point x="370" y="649"/>
      <point x="370" y="565" type="curve" smooth="yes"/>
      <point x="370" y="480"/>
      <point x="300" y="415"/>
    </contour>
    <contour>
      <point x="216" y="480" type="curve" smooth="yes"/>
      <point x="263" y="480"/>
      <point x="299" y="516"/>
      <point x="299" y="564" type="curve" smooth="yes"/>
      <point x="299" y="612"/>
      <point x="263" y="648"/>
      <point x="216" y="648" type="curve" smooth="yes"/>
      <point x="170" y="648"/>
      <point x="135" y="612"/>
      <point x="135" y="564" type="curve" smooth="yes"/>
      <point x="135" y="516"/>
      <point x="171" y="480"/>
    </contour>
  </outline>
</glyph>
<glyph name="plusminus" format="1">
  <advance width="621"/>
  <unicode hex="00B1"/>
  <outline>
    <contour>
      <point x="93" y="0" type="line"/>
      <point x="93" y="90" type="line"/>
      <point x="527" y="90" type="line"/>
      <point x="527" y="0" type="line"/>
    </contour>
    <contour>
      <point x="251" y="142" type="line"/>
      <point x="251" y="289" type="line"/>
      <point x="93" y="289" type="line"/>
      <point x="93" y="387" type="line"/>
      <point x="249" y="387" type="line"/>
      <point x="249" y="537" type="line"/>
      <point x="364" y="537" type="line"/>
      <point x="364" y="387" type="line"/>
      <point x="526" y="387" type="line"/>
      <point x="526" y="289" type="line"/>
      <point x="369" y="289" type="line"/>
      <point x="369" y="142" type="line"/>
    </contour>
  </outline>
</glyph>
<glyph name="twosuperior" format="1">
  <advance width="523"/>
  <unicode hex="00B2"/>
  <outline>
    <contour>
      <point x="110" y="299" type="line"/>
      <point x="110" y="388" type="line"/>
      <point x="237" y="499" type="line"/>
      <point x="294" y="548"/>
      <point x="303" y="571"/>
      <point x="303" y="586" type="curve" smooth="yes"/>
      <point x="303" y="618"/>
      <point x="281" y="628"/>
      <point x="253" y="628" type="curve" smooth="yes"/>
      <point x="220" y="628"/>
      <point x="172" y="615"/>
      <point x="131" y="597" type="curve"/>
      <point x="102" y="678" type="line"/>
      <point x="155" y="702"/>
      <point x="213" y="716"/>
      <point x="261" y="716" type="curve" smooth="yes"/>
      <point x="339" y="716"/>
      <point x="406" y="678"/>
      <point x="406" y="587" type="curve" smooth="yes"/>
      <point x="406" y="526"/>
      <point x="357" y="479"/>
      <point x="302" y="433" type="curve"/>
      <point x="259" y="397" type="line"/>
      <point x="400" y="397" type="line"/>
      <point x="400" y="299" type="line"/>
    </contour>
  </outline>
</glyph>
<glyph name="uni00B3" format="1">
  <advance width="443"/>
  <unicode hex="00B3"/>
  <outline>
    <contour>
      <point x="245" y="295" type="curve" smooth="yes"/>
      <point x="195" y="295"/>
      <point x="141" y="311"/>
      <point x="99" y="340" type="curve"/>
      <point x="129" y="406" type="line"/>
      <point x="173" y="380"/>
      <point x="209" y="369"/>
      <point x="237" y="369" type="curve" smooth="yes"/>
      <point x="278" y="369"/>
      <point x="302" y="394"/>
      <point x="302" y="429" type="curve" smooth="yes"/>
      <point x="302" y="458"/>
      <point x="274" y="480"/>
      <point x="227" y="480" type="curve" smooth="yes"/>
      <point x="181" y="480" type="line"/>
      <point x="181" y="550" type="line"/>
      <point x="226" y="550" type="line" smooth="yes"/>
      <point x="263" y="550"/>
      <point x="292" y="571"/>
      <point x="292" y="596" type="curve" smooth="yes"/>
      <point x="292" y="628"/>
      <point x="266" y="645"/>
      <point x="231" y="645" type="curve" smooth="yes"/>
      <point x="202" y="645"/>
      <point x="164" y="634"/>
      <point x="124" y="613" type="curve"/>
      <point x="94" y="673" type="line"/>
      <point x="144" y="700"/>
      <point x="199" y="714"/>
      <point x="249" y="714" type="curve" smooth="yes"/>
      <point x="322" y="714"/>
      <point x="382" y="683"/>
      <point x="382" y="610" type="curve" smooth="yes"/>
      <point x="382" y="581"/>
      <point x="370" y="544"/>
      <point x="315" y="524" type="curve"/>
      <point x="378" y="507"/>
      <point x="397" y="464"/>
      <point x="397" y="427" type="curve" smooth="yes"/>
      <point x="397" y="334"/>
      <point x="324" y="295"/>
    </contour>
  </outline>
</glyph>
<glyph name="acute" format="1">
  <advance width="296"/>
  <unicode hex="00B4"/>
  <outline>
    <contour>
      <point x="19" y="569" type="line"/>
      <point x="148" y="711" type="line"/>
      <point x="303" y="711" type="line"/>
      <point x="130" y="569" type="line"/>
    </contour>
  </outline>
</glyph>
<glyph name="paragraph" format="1">
  <advance width="598"/>
  <unicode hex="00B6"/>
  <outline>
    <contour>
      <point x="201" y="-87" type="line"/>
      <point x="201" y="385" type="line"/>
      <point x="96" y="394"/>
      <point x="44" y="453"/>
      <point x="44" y="551" type="curve" smooth="yes"/>
      <point x="44" y="679"/>
      <point x="142" y="710"/>
      <point x="278" y="710" type="curve" smooth="yes"/>
      <point x="520" y="710" type="line"/>
      <point x="520" y="617" type="line"/>
      <point x="484" y="617" type="line"/>
      <point x="484" y="-87" type="line"/>
      <point x="383" y="-87" type="line"/>
      <point x="383" y="617" type="line"/>
      <point x="301" y="617" type="line"/>
      <point x="301" y="-87" type="line"/>
    </contour>
  </outline>
</glyph>
<glyph name="periodcentered" format="1">
  <advance width="291"/>
  <unicode hex="00B7"/>
  <outline>
    <contour>
      <point x="91" y="274" type="line"/>
      <point x="91" y="412" type="line"/>
      <point x="240" y="412" type="line"/>
      <point x="240" y="274" type="line"/>
    </contour>
  </outline>
</glyph>
<glyph name="cedilla" format="1">
  <advance width="258"/>
  <unicode hex="00B8"/>
  <outline>
    <contour>
      <point x="8" y="-208" type="curve"/>
      <point x="14" y="-144" type="line"/>
      <point x="32" y="-152"/>
      <point x="68" y="-162"/>
      <point x="98" y="-162" type="curve" smooth="yes"/>
      <point x="125" y="-162"/>
      <point x="148" y="-153"/>
      <point x="148" y="-126" type="curve" smooth="yes"/>
      <point x="148" y="-101"/>
      <point x="132" y="-77"/>
      <point x="73" y="-68" type="curve"/>
      <point x="59" y="-66" type="line"/>
      <point x="74" y="19" type="line"/>
      <point x="135" y="19" type="line"/>
      <point x="126" y="-37" type="line"/>
      <point x="200" y="-42"/>
      <point x="235" y="-90"/>
      <point x="235" y="-138" type="curve" smooth="yes"/>
      <point x="235" y="-208"/>
      <point x="180" y="-237"/>
      <point x="118" y="-237" type="curve" smooth="yes"/>
      <point x="81" y="-237"/>
      <point x="40" y="-226"/>
    </contour>
  </outline>
</glyph>
<glyph name="onesuperior" format="1">
  <advance width="415"/>
  <unicode hex="00B9"/>
  <outline>
    <contour>
      <point x="72" y="305" type="line"/>
      <point x="72" y="386" type="line"/>
      <point x="179" y="386" type="line"/>
      <point x="179" y="620" type="line"/>
      <point x="184" y="623"/>
      <point x="74" y="597"/>
      <point x="66" y="595" type="curve"/>
      <point x="66" y="678" type="line"/>
      <point x="66" y="678"/>
      <point x="206" y="720"/>
      <point x="200" y="717" type="curve"/>
      <point x="278" y="715" type="line"/>
      <point x="278" y="385" type="line"/>
      <point x="371" y="385" type="line"/>
      <point x="371" y="305" type="line"/>
    </contour>
  </outline>
</glyph>
<glyph name="ordmasculine" format="1">
  <advance width="445"/>
  <unicode hex="00BA"/>
  <outline>
    <contour>
      <point x="225" y="348" type="curve" smooth="yes"/>
      <point x="100" y="348"/>
      <point x="36" y="425"/>
      <point x="36" y="527" type="curve" smooth="yes"/>
      <point x="36" y="626"/>
      <point x="104" y="705"/>
      <point x="223" y="705" type="curve" smooth="yes"/>
      <point x="343" y="705"/>
      <point x="410" y="624"/>
      <point x="410" y="525" type="curve" smooth="yes"/>
      <point x="410" y="428"/>
      <point x="344" y="348"/>
    </contour>
    <contour>
      <point x="223" y="426" type="curve" smooth="yes"/>
      <point x="279" y="426"/>
      <point x="316" y="465"/>
      <point x="316" y="525" type="curve" smooth="yes"/>
      <point x="316" y="588"/>
      <point x="279" y="626"/>
      <point x="224" y="626" type="curve" smooth="yes"/>
      <point x="170" y="626"/>
      <point x="130" y="587"/>
      <point x="130" y="526" type="curve" smooth="yes"/>
      <point x="130" y="464"/>
      <point x="165" y="426"/>
    </contour>
  </outline>
</glyph>
<glyph name="guillemotright" format="1">
  <advance width="574"/>
  <unicode hex="00BB"/>
  <outline>
    <contour>
      <point x="281" y="77" type="line"/>
      <point x="397" y="264" type="line"/>
      <point x="285" y="450" type="line"/>
      <point x="382" y="450" type="line"/>
      <point x="517" y="263" type="line"/>
      <point x="379" y="77" type="line"/>
    </contour>
    <contour>
      <point x="65" y="77" type="line"/>
      <point x="182" y="264" type="line"/>
      <point x="69" y="450" type="line"/>
      <point x="167" y="450" type="line"/>
      <point x="302" y="263" type="line"/>
      <point x="164" y="77" type="line"/>
    </contour>
  </outline>
</glyph>
<glyph name="onequarter" format="1">
  <advance width="1031"/>
  <unicode hex="00BC"/>
  <outline>
    <contour>
      <point x="757" y="161" type="line"/>
      <point x="844" y="161" type="line"/>
      <point x="844" y="285" type="line"/>
    </contour>
    <contour>
      <point x="307" y="0" type="line"/>
      <point x="739" y="711" type="line"/>
      <point x="843" y="711" type="line"/>
      <point x="412" y="0" type="line"/>
    </contour>
    <contour>
      <point x="845" y="0" type="line"/>
      <point x="845" y="95" type="line"/>
      <point x="665" y="95" type="line"/>
      <point x="665" y="150" type="line"/>
      <point x="845" y="397" type="line"/>
      <point x="933" y="397" type="line"/>
      <point x="933" y="161" type="line"/>
      <point x="990" y="161" type="line"/>
      <point x="990" y="95" type="line"/>
      <point x="933" y="95" type="line"/>
      <point x="933" y="0" type="line"/>
    </contour>
    <contour>
      <point x="110" y="302" type="line"/>
      <point x="110" y="384" type="line"/>
      <point x="213" y="384" type="line"/>
      <point x="213" y="614" type="line"/>
      <point x="104" y="588" type="line"/>
      <point x="104" y="673" type="line"/>
      <point x="104" y="673"/>
      <point x="237" y="713"/>
      <point x="233" y="711" type="curve"/>
      <point x="310" y="711" type="line"/>
      <point x="310" y="383" type="line"/>
      <point x="399" y="383" type="line"/>
      <point x="399" y="302" type="line"/>
    </contour>
  </outline>
</glyph>
<glyph name="onehalf" format="1">
  <advance width="1247"/>
  <unicode hex="00BD"/>
  <outline>
    <contour>
      <point x="95" y="302" type="line"/>
      <point x="95" y="384" type="line"/>
      <point x="198" y="384" type="line"/>
      <point x="198" y="614" type="line"/>
      <point x="88" y="588" type="line"/>
      <point x="88" y="673" type="line"/>
      <point x="88" y="673"/>
      <point x="222" y="713"/>
      <point x="218" y="711" type="curve"/>
      <point x="294" y="711" type="line"/>
      <point x="294" y="383" type="line"/>
      <point x="384" y="383" type="line"/>
      <point x="384" y="302" type="line"/>
    </contour>
    <contour>
      <point x="312" y="0" type="line"/>
      <point x="744" y="711" type="line"/>
      <point x="848" y="711" type="line"/>
      <point x="416" y="0" type="line"/>
    </contour>
    <contour>
      <point x="979" y="274" type="curve" smooth="yes"/>
      <point x="979" y="313"/>
      <point x="961" y="330"/>
      <point x="927" y="330" type="curve" smooth="yes"/>
      <point x="894" y="330"/>
      <point x="847" y="317"/>
      <point x="807" y="297" type="curve"/>
      <point x="777" y="375" type="line"/>
      <point x="827" y="401"/>
      <point x="885" y="416"/>
      <point x="934" y="416" type="curve" smooth="yes"/>
      <point x="1012" y="416"/>
      <point x="1074" y="379"/>
      <point x="1078" y="289" type="curve"/>
      <point x="1078" y="283" type="line" smooth="yes"/>
      <point x="1078" y="223"/>
      <point x="1031" y="173"/>
      <point x="974" y="129" type="curve" smooth="yes"/>
      <point x="928" y="94" type="line"/>
      <point x="1072" y="94" type="line"/>
      <point x="1072" y="0" type="line"/>
      <point x="784" y="0" type="line"/>
      <point x="784" y="83" type="line"/>
      <point x="917" y="190" type="line" smooth="yes"/>
      <point x="966" y="230"/>
      <point x="979" y="251"/>
    </contour>
  </outline>
</glyph>
<glyph name="threequarters" format="1">
  <advance width="1237"/>
  <unicode hex="00BE"/>
  <outline>
    <contour>
      <point x="772" y="161" type="line"/>
      <point x="859" y="161" type="line"/>
      <point x="859" y="285" type="line"/>
    </contour>
    <contour>
      <point x="317" y="0" type="line"/>
      <point x="750" y="711" type="line"/>
      <point x="854" y="711" type="line"/>
      <point x="422" y="0" type="line"/>
    </contour>
    <contour>
      <point x="860" y="0" type="line"/>
      <point x="860" y="95" type="line"/>
      <point x="680" y="95" type="line"/>
      <point x="680" y="150" type="line"/>
      <point x="860" y="397" type="line"/>
      <point x="948" y="397" type="line"/>
      <point x="948" y="161" type="line"/>
      <point x="1004" y="161" type="line"/>
      <point x="1004" y="95" type="line"/>
      <point x="948" y="95" type="line"/>
      <point x="948" y="0" type="line"/>
    </contour>
    <contour>
      <point x="262" y="294" type="curve" smooth="yes"/>
      <point x="213" y="294"/>
      <point x="159" y="310"/>
      <point x="117" y="340" type="curve"/>
      <point x="146" y="406" type="line"/>
      <point x="189" y="380"/>
      <point x="226" y="369"/>
      <point x="254" y="369" type="curve" smooth="yes"/>
      <point x="296" y="369"/>
      <point x="319" y="392"/>
      <point x="319" y="427" type="curve" smooth="yes"/>
      <point x="319" y="457"/>
      <point x="290" y="480"/>
      <point x="242" y="480" type="curve" smooth="yes"/>
      <point x="197" y="480" type="line"/>
      <point x="197" y="550" type="line"/>
      <point x="241" y="550" type="line" smooth="yes"/>
      <point x="279" y="550"/>
      <point x="309" y="569"/>
      <point x="309" y="596" type="curve" smooth="yes"/>
      <point x="309" y="629"/>
      <point x="285" y="643"/>
      <point x="249" y="643" type="curve" smooth="yes"/>
      <point x="220" y="643"/>
      <point x="180" y="632"/>
      <point x="141" y="610" type="curve"/>
      <point x="111" y="672" type="line"/>
      <point x="160" y="699"/>
      <point x="216" y="714"/>
      <point x="265" y="714" type="curve" smooth="yes"/>
      <point x="338" y="714"/>
      <point x="397" y="681"/>
      <point x="397" y="608" type="curve" smooth="yes"/>
      <point x="397" y="579"/>
      <point x="387" y="540"/>
      <point x="329" y="522" type="curve"/>
      <point x="393" y="506"/>
      <point x="412" y="464"/>
      <point x="412" y="426" type="curve" smooth="yes"/>
      <point x="412" y="334"/>
      <point x="341" y="294"/>
    </contour>
  </outline>
</glyph>
<glyph name="AE" format="1">
  <advance width="1081"/>
  <unicode hex="00C6"/>
  <outline>
    <contour>
      <point x="310" y="272" type="line"/>
      <point x="538" y="272" type="line"/>
      <point x="515" y="601" type="line"/>
      <point x="498" y="601" type="line"/>
    </contour>
    <contour>
      <point x="9" y="0" type="line"/>
      <point x="433" y="711" type="line"/>
      <point x="962" y="711" type="line"/>
      <point x="962" y="601" type="line"/>
      <point x="641" y="601" type="line"/>
      <point x="658" y="417" type="line"/>
      <point x="961" y="417" type="line"/>
      <point x="961" y="310" type="line"/>
      <point x="671" y="310" type="line"/>
      <point x="690" y="110" type="line"/>
      <point x="975" y="110" type="line"/>
      <point x="975" y="0" type="line"/>
      <point x="561" y="0" type="line"/>
      <point x="546" y="173" type="line"/>
      <point x="261" y="173" type="line"/>
      <point x="163" y="0" type="line"/>
    </contour>
  </outline>
</glyph>
<glyph name="multiply" format="1">
  <advance width="621"/>
  <unicode hex="00D7"/>
  <outline>
    <contour>
      <point x="177" y="57" type="line"/>
      <point x="98" y="136" type="line"/>
      <point x="229" y="267" type="line"/>
      <point x="98" y="398" type="line"/>
      <point x="177" y="477" type="line"/>
      <point x="308" y="346" type="line"/>
      <point x="440" y="477" type="line"/>
      <point x="519" y="399" type="line"/>
      <point x="387" y="267" type="line"/>
      <point x="519" y="135" type="line"/>
      <point x="440" y="57" type="line"/>
      <point x="308" y="188" type="line"/>
    </contour>
  </outline>
</glyph>
<glyph name="Oslash" format="1">
  <advance width="815"/>
  <unicode hex="00D8"/>
  <outline>
    <contour>
      <point x="410" y="-11" type="curve" smooth="yes"/>
      <point x="633" y="-11"/>
      <point x="764" y="134"/>
      <point x="764" y="359" type="curve" smooth="yes"/>
      <point x="764" y="499"/>
      <point x="709" y="608"/>
      <point x="613" y="670" type="curve"/>
      <point x="652" y="744" type="line"/>
      <point x="596" y="769" type="line"/>
      <point x="558" y="698" type="line"/>
      <point x="515" y="715"/>
      <point x="466" y="724"/>
      <point x="412" y="724" type="curve" smooth="yes"/>
      <point x="187" y="724"/>
      <point x="52" y="577"/>
      <point x="52" y="359" type="curve" smooth="yes"/>
      <point x="52" y="215"/>
      <point x="108" y="104"/>
      <point x="207" y="42" type="curve"/>
      <point x="165" y="-37" type="line"/>
      <point x="221" y="-62" type="line"/>
      <point x="262" y="14" type="line"/>
      <point x="305" y="-3"/>
      <point x="355" y="-11"/>
    </contour>
    <contour>
      <point x="557" y="566" type="line"/>
      <point x="605" y="522"/>
      <point x="629" y="451"/>
      <point x="629" y="359" type="curve" smooth="yes"/>
      <point x="629" y="192"/>
      <point x="554" y="95"/>
      <point x="407" y="95" type="curve" smooth="yes"/>
      <point x="371" y="95"/>
      <point x="340" y="100"/>
      <point x="313" y="111" type="curve"/>
    </contour>
    <contour>
      <point x="505" y="600" type="curve"/>
      <point x="261" y="143" type="line"/>
      <point x="211" y="187"/>
      <point x="186" y="261"/>
      <point x="186" y="359" type="curve" smooth="yes"/>
      <point x="186" y="522"/>
      <point x="264" y="618"/>
      <point x="409" y="618" type="curve" smooth="yes"/>
      <point x="446" y="618"/>
      <point x="478" y="612"/>
    </contour>
  </outline>
</glyph>
<glyph name="Thorn" format="1">
  <advance width="634"/>
  <unicode hex="00DE"/>
  <outline>
    <contour>
      <point x="215" y="266" type="line"/>
      <point x="323" y="266" type="line" smooth="yes"/>
      <point x="410" y="266"/>
      <point x="463" y="300"/>
      <point x="463" y="378" type="curve" smooth="yes"/>
      <point x="463" y="470"/>
      <point x="401" y="492"/>
      <point x="299" y="492" type="curve" smooth="yes"/>
      <point x="215" y="492" type="line"/>
    </contour>
    <contour>
      <point x="93" y="0" type="line"/>
      <point x="93" y="711" type="line"/>
      <point x="216" y="711" type="line"/>
      <point x="216" y="597" type="line"/>
      <point x="293" y="597" type="line" smooth="yes"/>
      <point x="461" y="597"/>
      <point x="596" y="559"/>
      <point x="596" y="377" type="curve" smooth="yes"/>
      <point x="596" y="224"/>
      <point x="458" y="159"/>
      <point x="303" y="159" type="curve" smooth="yes"/>
      <point x="215" y="159" type="line"/>
      <point x="215" y="0" type="line"/>
    </contour>
  </outline>
</glyph>
<glyph name="germandbls" format="1">
  <advance width="617"/>
  <unicode hex="00DF"/>
  <outline>
    <contour>
      <point x="373" y="85" type="curve" smooth="yes"/>
      <point x="422" y="85"/>
      <point x="450" y="109"/>
      <point x="450" y="164" type="curve" smooth="yes"/>
      <point x="450" y="239"/>
      <point x="404" y="283"/>
      <point x="279" y="346" type="curve"/>
      <point x="279" y="438" type="line"/>
      <point x="326" y="459"/>
      <point x="377" y="507"/>
      <point x="377" y="560" type="curve" smooth="yes"/>
      <point x="377" y="602"/>
      <point x="338" y="625"/>
      <point x="297" y="625" type="curve" smooth="yes"/>
      <point x="234" y="625"/>
      <point x="189" y="579"/>
      <point x="189" y="488" type="curve" smooth="yes"/>
      <point x="189" y="0" type="line"/>
      <point x="72" y="0" type="line"/>
      <point x="70" y="488" type="line" smooth="yes"/>
      <point x="70" y="648"/>
      <point x="159" y="722"/>
      <point x="296" y="722" type="curve" smooth="yes"/>
      <point x="421" y="722"/>
      <point x="509" y="657"/>
      <point x="509" y="567" type="curve" smooth="yes"/>
      <point x="509" y="510"/>
      <point x="478" y="447"/>
      <point x="416" y="416" type="curve" smooth="yes"/>
      <point x="398" y="407"/>
      <point x="383" y="401"/>
      <point x="363" y="396" type="curve"/>
      <point x="482" y="370"/>
      <point x="585" y="300"/>
      <point x="585" y="173" type="curve" smooth="yes"/>
      <point x="585" y="59"/>
      <point x="504" y="-11"/>
      <point x="404" y="-11" type="curve" smooth="yes"/>
      <point x="318" y="-11"/>
      <point x="246" y="18"/>
      <point x="246" y="18" type="curve"/>
      <point x="268" y="112" type="line"/>
      <point x="268" y="112"/>
      <point x="323" y="85"/>
    </contour>
  </outline>
</glyph>
<glyph name="ae" format="1">
  <advance width="867"/>
  <unicode hex="00E6"/>
  <outline>
    <contour>
      <point x="478" y="309" type="curve"/>
      <point x="704" y="309" type="line"/>
      <point x="703" y="320" type="line"/>
      <point x="701" y="392"/>
      <point x="647" y="426"/>
      <point x="599" y="426" type="curve" smooth="yes"/>
      <point x="533" y="426"/>
      <point x="494" y="373"/>
    </contour>
    <contour>
      <point x="235" y="86" type="curve" smooth="yes"/>
      <point x="327" y="86"/>
      <point x="358" y="162"/>
      <point x="359" y="228" type="curve"/>
      <point x="310" y="228" type="line" smooth="yes"/>
      <point x="230" y="228"/>
      <point x="152" y="208"/>
      <point x="152" y="148" type="curve" smooth="yes"/>
      <point x="152" y="103"/>
      <point x="191" y="86"/>
    </contour>
    <contour>
      <point x="231" y="-11" type="curve" smooth="yes"/>
      <point x="112" y="-11"/>
      <point x="34" y="44"/>
      <point x="34" y="144" type="curve" smooth="yes"/>
      <point x="34" y="275"/>
      <point x="131" y="312"/>
      <point x="339" y="312" type="curve" smooth="yes"/>
      <point x="359" y="312" type="line"/>
      <point x="358" y="374"/>
      <point x="321" y="419"/>
      <point x="249" y="419" type="curve" smooth="yes"/>
      <point x="218" y="419"/>
      <point x="177" y="413"/>
      <point x="109" y="380" type="curve"/>
      <point x="74" y="460" type="line"/>
      <point x="97" y="474"/>
      <point x="162" y="514"/>
      <point x="275" y="514" type="curve" smooth="yes"/>
      <point x="323" y="514"/>
      <point x="398" y="484"/>
      <point x="430" y="422" type="curve"/>
      <point x="462" y="483"/>
      <point x="541" y="514"/>
      <point x="600" y="514" type="curve" smooth="yes"/>
      <point x="602" y="514" type="line" smooth="yes"/>
      <point x="752" y="513"/>
      <point x="810" y="395"/>
      <point x="810" y="253" type="curve" smooth="yes"/>
      <point x="810" y="241"/>
      <point x="807" y="228"/>
      <point x="807" y="228" type="curve"/>
      <point x="477" y="228" type="line"/>
      <point x="477" y="219" type="line"/>
      <point x="486" y="124"/>
      <point x="535" y="86"/>
      <point x="612" y="86" type="curve" smooth="yes"/>
      <point x="617" y="86" type="line"/>
      <point x="697" y="88"/>
      <point x="770" y="141"/>
      <point x="770" y="141" type="curve"/>
      <point x="803" y="53" type="line"/>
      <point x="803" y="53"/>
      <point x="721" y="-10"/>
      <point x="613" y="-11" type="curve" smooth="yes"/>
      <point x="607" y="-11" type="line" smooth="yes"/>
      <point x="520" y="-11"/>
      <point x="454" y="11"/>
      <point x="418" y="84" type="curve"/>
      <point x="382" y="12"/>
      <point x="300" y="-11"/>
    </contour>
  </outline>
</glyph>
<glyph name="eth" format="1">
  <advance width="594"/>
  <unicode hex="00F0"/>
  <outline>
    <contour>
      <point x="294" y="84" type="curve" smooth="yes"/>
      <point x="345" y="84"/>
      <point x="410" y="125"/>
      <point x="410" y="215" type="curve" smooth="yes"/>
      <point x="410" y="294"/>
      <point x="346" y="338"/>
      <point x="286" y="338" type="curve" smooth="yes"/>
      <point x="230" y="338"/>
      <point x="172" y="305"/>
      <point x="172" y="219" type="curve" smooth="yes"/>
      <point x="172" y="125"/>
      <point x="235" y="84"/>
    </contour>
    <contour>
      <point x="285" y="-12" type="curve" smooth="yes"/>
      <point x="139" y="-12"/>
      <point x="48" y="102"/>
      <point x="48" y="230" type="curve" smooth="yes"/>
      <point x="48" y="358"/>
      <point x="123" y="440"/>
      <point x="259" y="440" type="curve" smooth="yes"/>
      <point x="313" y="440"/>
      <point x="371" y="427"/>
      <point x="427" y="368" type="curve"/>
      <point x="427" y="375"/>
      <point x="429" y="384"/>
      <point x="429" y="397" type="curve" smooth="yes"/>
      <point x="429" y="429"/>
      <point x="416" y="479"/>
      <point x="327" y="544" type="curve"/>
      <point x="203" y="483" type="line"/>
      <point x="171" y="548" type="line"/>
      <point x="249" y="586" type="line"/>
      <point x="222" y="595"/>
      <point x="188" y="604"/>
      <point x="145" y="614" type="curve"/>
      <point x="183" y="692" type="line"/>
      <point x="202" y="692"/>
      <point x="275" y="680"/>
      <point x="351" y="638" type="curve"/>
      <point x="476" y="700" type="line"/>
      <point x="508" y="635" type="line"/>
      <point x="417" y="590" type="line"/>
      <point x="481" y="534"/>
      <point x="537" y="447"/>
      <point x="537" y="303" type="curve" smooth="yes"/>
      <point x="537" y="75"/>
      <point x="443" y="-12"/>
    </contour>
  </outline>
</glyph>
<glyph name="divide" format="1">
  <advance width="731"/>
  <unicode hex="00F7"/>
  <outline>
    <contour>
      <point x="301" y="410" type="line"/>
      <point x="301" y="542" type="line"/>
      <point x="399" y="542" type="line"/>
      <point x="399" y="410" type="line"/>
    </contour>
    <contour>
      <point x="82" y="219" type="line"/>
      <point x="82" y="320" type="line"/>
      <point x="612" y="320" type="line"/>
      <point x="612" y="219" type="line"/>
    </contour>
    <contour>
      <point x="303" y="-9" type="line"/>
      <point x="303" y="124" type="line"/>
      <point x="401" y="124" type="line"/>
      <point x="402" y="-9" type="line"/>
    </contour>
  </outline>
</glyph>
<glyph name="oslash" format="1">
  <advance width="620"/>
  <unicode hex="00F8"/>
  <outline>
    <contour>
      <point x="358" y="409" type="curve"/>
      <point x="224" y="121" type="line"/>
      <point x="193" y="152"/>
      <point x="179" y="201"/>
      <point x="179" y="252" type="curve" smooth="yes"/>
      <point x="179" y="341"/>
      <point x="220" y="416"/>
      <point x="314" y="416" type="curve" smooth="yes"/>
      <point x="330" y="416"/>
      <point x="345" y="413"/>
    </contour>
    <contour>
      <point x="404" y="382" type="line"/>
      <point x="435" y="352"/>
      <point x="449" y="304"/>
      <point x="449" y="252" type="curve" smooth="yes"/>
      <point x="449" y="166"/>
      <point x="412" y="86"/>
      <point x="314" y="86" type="curve" smooth="yes"/>
      <point x="297" y="86"/>
      <point x="283" y="89"/>
      <point x="270" y="93" type="curve"/>
    </contour>
    <contour>
      <point x="316" y="-11" type="curve" smooth="yes"/>
      <point x="491" y="-11"/>
      <point x="575" y="114"/>
      <point x="575" y="250" type="curve" smooth="yes"/>
      <point x="575" y="351"/>
      <point x="536" y="440"/>
      <point x="452" y="484" type="curve"/>
      <point x="492" y="569" type="line"/>
      <point x="443" y="591" type="line"/>
      <point x="402" y="503" type="line"/>
      <point x="376" y="510"/>
      <point x="348" y="514"/>
      <point x="316" y="514" type="curve" smooth="yes"/>
      <point x="140" y="514"/>
      <point x="53" y="393"/>
      <point x="53" y="250" type="curve" smooth="yes"/>
      <point x="53" y="154"/>
      <point x="93" y="66"/>
      <point x="177" y="21" type="curve"/>
      <point x="133" y="-72" type="line"/>
      <point x="182" y="-95" type="line"/>
      <point x="227" y="0" type="line"/>
      <point x="254" y="-8"/>
      <point x="283" y="-11"/>
    </contour>
  </outline>
</glyph>
<glyph name="thorn" format="1">
  <advance width="600"/>
  <unicode hex="00FE"/>
  <outline>
    <contour>
      <point x="302" y="86" type="curve" smooth="yes"/>
      <point x="388" y="86"/>
      <point x="424" y="166"/>
      <point x="424" y="254" type="curve" smooth="yes"/>
      <point x="424" y="337"/>
      <point x="395" y="415"/>
      <point x="306" y="415" type="curve" smooth="yes"/>
      <point x="214" y="415"/>
      <point x="182" y="332"/>
      <point x="182" y="241" type="curve" smooth="yes"/>
      <point x="182" y="152"/>
      <point x="223" y="86"/>
    </contour>
    <contour>
      <point x="68" y="-193" type="line"/>
      <point x="68" y="715" type="line"/>
      <point x="185" y="715" type="line"/>
      <point x="183" y="463" type="line"/>
      <point x="212" y="494"/>
      <point x="277" y="513"/>
      <point x="315" y="513" type="curve" smooth="yes"/>
      <point x="470" y="513"/>
      <point x="551" y="394"/>
      <point x="551" y="256" type="curve" smooth="yes"/>
      <point x="551" y="117"/>
      <point x="472" y="-11"/>
      <point x="314" y="-11" type="curve" smooth="yes"/>
      <point x="265" y="-11"/>
      <point x="216" y="8"/>
      <point x="182" y="30" type="curve"/>
      <point x="181" y="-193" type="line"/>
    </contour>
  </outline>
</glyph>
<glyph name="dotlessi" format="1">
  <advance width="236"/>
  <unicode hex="0131"/>
  <outline>
    <contour>
      <point x="50" y="0" type="line"/>
      <point x="50" y="501" type="line"/>
      <point x="172" y="501" type="line"/>
      <point x="172" y="0" type="line"/>
    </contour>
  </outline>
</glyph>
<glyph name="kgreenlandic" format="1">
  <advance width="528"/>
  <unicode hex="0138"/>
  <outline>
    <contour>
      <point x="71" y="0" type="line"/>
      <point x="71" y="501" type="line"/>
      <point x="191" y="501" type="line"/>
      <point x="191" y="309" type="line"/>
      <point x="365" y="501" type="line"/>
      <point x="532" y="501" type="line"/>
      <point x="280" y="247" type="line"/>
      <point x="502" y="43"/>
      <point x="307" y="219"/>
      <point x="548" y="0" type="curve"/>
      <point x="386" y="0" type="line"/>
      <point x="191" y="187" type="line"/>
      <point x="191" y="0" type="line"/>
    </contour>
  </outline>
</glyph>
<glyph name="Lslash" format="1">
  <advance width="569"/>
  <unicode hex="0141"/>
  <outline>
    <contour>
      <point x="17" y="206" type="line"/>
      <point x="17" y="315" type="line"/>
      <point x="299" y="535" type="line"/>
      <point x="299" y="425" type="line"/>
    </contour>
    <component base="L"/>
  </outline>
</glyph>
<glyph name="lslash" format="1">
  <advance width="245"/>
  <unicode hex="0142"/>
  <outline>
    <contour>
      <point x="58" y="0" type="line"/>
      <point x="58" y="355" type="line"/>
      <point x="3" y="306" type="line"/>
      <point x="3" y="413" type="line"/>
      <point x="57" y="461" type="line"/>
      <point x="57" y="712" type="line"/>
      <point x="179" y="712" type="line"/>
      <point x="179" y="552" type="line"/>
      <point x="229" y="599" type="line"/>
      <point x="229" y="490" type="line"/>
      <point x="179" y="441" type="line"/>
      <point x="179" y="0" type="line"/>
    </contour>
  </outline>
</glyph>
<glyph name="Eng" format="1">
  <advance width="791"/>
  <unicode hex="014A"/>
  <outline>
    <contour>
      <point x="697" y="711" type="line"/>
      <point x="697" y="0" type="line" smooth="yes"/>
      <point x="697" y="-170"/>
      <point x="589" y="-231"/>
      <point x="431" y="-231" type="curve"/>
      <point x="431" y="-136" type="line"/>
      <point x="510" y="-136"/>
      <point x="580" y="-125"/>
      <point x="580" y="-20" type="curve" smooth="yes"/>
      <point x="580" y="48" type="line"/>
      <point x="271" y="462" type="line"/>
      <point x="208" y="556" type="line"/>
      <point x="208" y="0" type="line"/>
      <point x="94" y="0" type="line"/>
      <point x="94" y="711" type="line"/>
      <point x="225" y="711" type="line"/>
      <point x="518" y="311" type="line"/>
      <point x="580" y="220" type="line"/>
      <point x="580" y="711" type="line"/>
    </contour>
  </outline>
</glyph>
<glyph name="eng" format="1">
  <advance width="581"/>
  <unicode hex="014B"/>
  <outline>
    <contour>
      <point x="256" y="-193" type="curve"/>
      <point x="256" y="-96" type="line"/>
      <point x="327" y="-96"/>
      <point x="398" y="-72"/>
      <point x="398" y="24" type="curve" smooth="yes"/>
      <point x="398" y="294" type="line" smooth="yes"/>
      <point x="398" y="383"/>
      <point x="378" y="416"/>
      <point x="315" y="416" type="curve" smooth="yes"/>
      <point x="271" y="416"/>
      <point x="197" y="375"/>
      <point x="197" y="300" type="curve" smooth="yes"/>
      <point x="197" y="0" type="line"/>
      <point x="76" y="0" type="line"/>
      <point x="76" y="310" type="line" smooth="yes"/>
      <point x="76" y="430"/>
      <point x="66" y="501"/>
      <point x="66" y="501" type="curve"/>
      <point x="195" y="501" type="line"/>
      <point x="195" y="429" type="line"/>
      <point x="223" y="486"/>
      <point x="291" y="514"/>
      <point x="340" y="514" type="curve" smooth="yes"/>
      <point x="450" y="514"/>
      <point x="520" y="460"/>
      <point x="520" y="286" type="curve" smooth="yes"/>
      <point x="520" y="54" type="line" smooth="yes"/>
      <point x="520" y="-114"/>
      <point x="412" y="-193"/>
    </contour>
  </outline>
</glyph>
<glyph name="OE" format="1">
  <advance width="1004"/>
  <unicode hex="0152"/>
  <outline>
    <contour>
      <point x="401" y="85" type="curve" smooth="yes"/>
      <point x="403" y="85" type="line" smooth="yes"/>
      <point x="489" y="85"/>
      <point x="523" y="118"/>
      <point x="528" y="123" type="curve"/>
      <point x="528" y="582" type="line"/>
      <point x="508" y="598"/>
      <point x="473" y="619"/>
      <point x="410" y="619" type="curve" smooth="yes"/>
      <point x="401" y="619"/>
      <point x="391" y="619"/>
      <point x="381" y="618" type="curve" smooth="yes"/>
      <point x="285" y="608"/>
      <point x="186" y="541"/>
      <point x="186" y="354" type="curve" smooth="yes"/>
      <point x="186" y="177"/>
      <point x="273" y="85"/>
    </contour>
    <contour>
      <point x="528" y="123" type="line"/>
    </contour>
    <contour>
      <point x="528" y="683" type="curve"/>
      <point x="528" y="711" type="line"/>
      <point x="937" y="711" type="line"/>
      <point x="937" y="605" type="line"/>
      <point x="652" y="605" type="line"/>
      <point x="652" y="417" type="line"/>
      <point x="918" y="417" type="line"/>
      <point x="918" y="311" type="line"/>
      <point x="653" y="311" type="line"/>
      <point x="653" y="106" type="line"/>
      <point x="950" y="106" type="line"/>
      <point x="950" y="0" type="line"/>
      <point x="528" y="0" type="line"/>
      <point x="528" y="30" type="line"/>
      <point x="525" y="27"/>
      <point x="478" y="-10"/>
      <point x="399" y="-12" type="curve"/>
      <point x="386" y="-12" type="line" smooth="yes"/>
      <point x="205" y="-12"/>
      <point x="52" y="104"/>
      <point x="52" y="357" type="curve" smooth="yes"/>
      <point x="52" y="586"/>
      <point x="199" y="716"/>
      <point x="371" y="724" type="curve" smooth="yes"/>
      <point x="387" y="724" type="line" smooth="yes"/>
      <point x="486" y="724"/>
      <point x="524" y="688"/>
    </contour>
  </outline>
</glyph>
<glyph name="oe" format="1">
  <advance width="978"/>
  <unicode hex="0153"/>
  <outline>
    <contour>
      <point x="790" y="313" type="line"/>
      <point x="790" y="323" type="line" smooth="yes"/>
      <point x="790" y="386"/>
      <point x="734" y="418"/>
      <point x="678" y="418" type="curve" smooth="yes"/>
      <point x="617" y="418"/>
      <point x="569" y="386"/>
      <point x="561" y="313" type="curve"/>
    </contour>
    <contour>
      <point x="313" y="86" type="curve" smooth="yes"/>
      <point x="398" y="86"/>
      <point x="436" y="163"/>
      <point x="436" y="250" type="curve" smooth="yes"/>
      <point x="436" y="344"/>
      <point x="400" y="416"/>
      <point x="310" y="416" type="curve" smooth="yes"/>
      <point x="223" y="416"/>
      <point x="176" y="344"/>
      <point x="176" y="250" type="curve" smooth="yes"/>
      <point x="176" y="161"/>
      <point x="217" y="86"/>
    </contour>
    <contour>
      <point x="312" y="-11" type="curve" smooth="yes"/>
      <point x="148" y="-11"/>
      <point x="49" y="99"/>
      <point x="49" y="250" type="curve" smooth="yes"/>
      <point x="49" y="399"/>
      <point x="142" y="514"/>
      <point x="309" y="514" type="curve" smooth="yes"/>
      <point x="401" y="514"/>
      <point x="463" y="475"/>
      <point x="498" y="426" type="curve"/>
      <point x="537" y="482"/>
      <point x="588" y="515"/>
      <point x="681" y="515" type="curve" smooth="yes"/>
      <point x="825" y="515"/>
      <point x="907" y="408"/>
      <point x="907" y="244" type="curve" smooth="yes"/>
      <point x="907" y="211" type="line"/>
      <point x="560" y="211" type="line"/>
      <point x="561" y="200" type="line" smooth="yes"/>
      <point x="567" y="121"/>
      <point x="622" y="86"/>
      <point x="712" y="86" type="curve" smooth="yes"/>
      <point x="796" y="86"/>
      <point x="867" y="141"/>
      <point x="867" y="141" type="curve"/>
      <point x="900" y="52" type="line"/>
      <point x="900" y="52"/>
      <point x="822" y="-11"/>
      <point x="698" y="-11" type="curve" smooth="yes"/>
      <point x="620" y="-11"/>
      <point x="536" y="25"/>
      <point x="499" y="78" type="curve"/>
      <point x="467" y="27"/>
      <point x="387" y="-11"/>
    </contour>
  </outline>
</glyph>
<glyph name="florin" format="1">
  <advance width="542"/>
  <unicode hex="0192"/>
  <outline>
    <contour>
      <point x="99" y="-154" type="curve" smooth="yes"/>
      <point x="98" y="-154"/>
      <point x="70" y="-153"/>
      <point x="46" y="-145" type="curve"/>
      <point x="55" y="-44" type="line"/>
      <point x="59" y="-45"/>
      <point x="81" y="-49"/>
      <point x="103" y="-49" type="curve" smooth="yes"/>
      <point x="127" y="-49"/>
      <point x="158" y="-43"/>
      <point x="174" y="42" type="curve"/>
      <point x="222" y="309" type="line"/>
      <point x="154" y="309" type="line"/>
      <point x="174" y="389" type="line"/>
      <point x="238" y="389" type="line"/>
      <point x="266" y="541" type="line" smooth="yes"/>
      <point x="279" y="608"/>
      <point x="307" y="708"/>
      <point x="440" y="708" type="curve" smooth="yes"/>
      <point x="504" y="708"/>
      <point x="533" y="686"/>
      <point x="533" y="686" type="curve"/>
      <point x="524" y="588" type="line"/>
      <point x="518" y="590"/>
      <point x="490" y="598"/>
      <point x="468" y="598" type="curve" smooth="yes"/>
      <point x="445" y="598"/>
      <point x="412" y="594"/>
      <point x="401" y="535" type="curve" smooth="yes"/>
      <point x="373" y="389" type="line"/>
      <point x="446" y="389" type="line"/>
      <point x="430" y="309" type="line"/>
      <point x="354" y="309" type="line"/>
      <point x="303" y="22" type="line" smooth="yes"/>
      <point x="279" y="-114"/>
      <point x="203" y="-154"/>
    </contour>
    <contour>
      <point x="526" y="588" type="line"/>
      <point x="524" y="588" type="line"/>
    </contour>
  </outline>
</glyph>
<glyph name="dotlessj" format="1">
  <advance width="292"/>
  <unicode hex="0237"/>
  <outline>
    <contour>
      <point x="49" y="-177" type="curve" smooth="yes"/>
      <point x="-12" y="-177"/>
      <point x="-42" y="-164"/>
      <point x="-42" y="-164" type="curve"/>
      <point x="-28" y="-81" type="line"/>
      <point x="-22" y="-83"/>
      <point x="9" y="-90"/>
      <point x="42" y="-90" type="curve" smooth="yes"/>
      <point x="84" y="-90"/>
      <point x="106" y="-78"/>
      <point x="106" y="10" type="curve" smooth="yes"/>
      <point x="106" y="501" type="line"/>
      <point x="230" y="501" type="line"/>
      <point x="230" y="-4" type="line" smooth="yes"/>
      <point x="230" y="-115"/>
      <point x="195" y="-177"/>
    </contour>
    <contour>
      <point x="-28" y="-81" type="line"/>
      <point x="-29" y="-81"/>
      <point x="-29" y="-80"/>
      <point x="-29" y="-80" type="curve"/>
      <point x="-28" y="-80" type="line"/>
    </contour>
  </outline>
</glyph>
<glyph name="circumflex" format="1">
  <advance width="341"/>
  <unicode hex="02C6"/>
  <outline>
    <contour>
      <point x="-18" y="579" type="line"/>
      <point x="107" y="759" type="line"/>
      <point x="230" y="759" type="line"/>
      <point x="360" y="579" type="line"/>
      <point x="239" y="579" type="line"/>
      <point x="173" y="674" type="line"/>
      <point x="105" y="579" type="line"/>
    </contour>
  </outline>
</glyph>
<glyph name="caron" format="1">
  <advance width="341"/>
  <unicode hex="02C7"/>
  <outline>
    <contour>
      <point x="122" y="579" type="line"/>
      <point x="-15" y="758" type="line"/>
      <point x="109" y="758" type="line"/>
      <point x="167" y="687" type="line"/>
      <point x="227" y="758" type="line"/>
      <point x="357" y="758" type="line"/>
      <point x="221" y="579" type="line"/>
    </contour>
  </outline>
</glyph>
<glyph name="firsttonechinese" format="1">
  <advance width="292"/>
  <unicode hex="02C9"/>
  <outline>
    <contour>
      <point x="-24" y="654" type="line"/>
      <point x="311" y="654" type="line"/>
      <point x="311" y="735" type="line"/>
      <point x="-24" y="735" type="line"/>
    </contour>
  </outline>
</glyph>
<glyph name="breve" format="1">
  <advance width="341"/>
  <unicode hex="02D8"/>
  <outline>
    <contour>
      <point x="172" y="566" type="curve" smooth="yes"/>
      <point x="79" y="566"/>
      <point x="22" y="608"/>
      <point x="15" y="711" type="curve"/>
      <point x="100" y="711" type="line"/>
      <point x="104" y="659"/>
      <point x="138" y="651"/>
      <point x="172" y="651" type="curve" smooth="yes"/>
      <point x="206" y="651"/>
      <point x="238" y="659"/>
      <point x="243" y="711" type="curve"/>
      <point x="328" y="711" type="line"/>
      <point x="321" y="608"/>
      <point x="265" y="566"/>
    </contour>
  </outline>
</glyph>
<glyph name="dotaccent" format="1">
  <advance width="255"/>
  <unicode hex="02D9"/>
  <outline>
    <contour>
      <point x="62" y="569" type="line"/>
      <point x="62" y="681" type="line"/>
      <point x="183" y="681" type="line"/>
      <point x="183" y="569" type="line"/>
    </contour>
  </outline>
</glyph>
<glyph name="ring" format="1">
  <advance width="341"/>
  <unicode hex="02DA"/>
  <outline>
    <contour>
      <point x="165" y="563" type="curve" smooth="yes"/>
      <point x="105" y="563"/>
      <point x="58" y="607"/>
      <point x="58" y="667" type="curve" smooth="yes"/>
      <point x="58" y="728"/>
      <point x="105" y="771"/>
      <point x="165" y="771" type="curve" smooth="yes"/>
      <point x="224" y="771"/>
      <point x="273" y="728"/>
      <point x="273" y="667" type="curve" smooth="yes"/>
      <point x="273" y="607"/>
      <point x="224" y="563"/>
    </contour>
    <contour>
      <point x="166" y="614" type="curve" smooth="yes"/>
      <point x="195" y="614"/>
      <point x="218" y="638"/>
      <point x="218" y="667" type="curve" smooth="yes"/>
      <point x="218" y="696"/>
      <point x="195" y="720"/>
      <point x="166" y="720" type="curve" smooth="yes"/>
      <point x="138" y="720"/>
      <point x="114" y="696"/>
      <point x="114" y="667" type="curve" smooth="yes"/>
      <point x="114" y="638"/>
      <point x="138" y="614"/>
    </contour>
  </outline>
</glyph>
<glyph name="ogonek" format="1">
  <advance width="248"/>
  <unicode hex="02DB"/>
  <outline>
    <contour>
      <point x="114" y="-174" type="curve" smooth="yes"/>
      <point x="52" y="-174"/>
      <point x="11" y="-155"/>
      <point x="11" y="-111" type="curve" smooth="yes"/>
      <point x="11" y="-39"/>
      <point x="94" y="-8"/>
      <point x="130" y="10" type="curve"/>
      <point x="196" y="11" type="line"/>
      <point x="149" y="-15"/>
      <point x="123" y="-53"/>
      <point x="123" y="-77" type="curve" smooth="yes"/>
      <point x="123" y="-97"/>
      <point x="140" y="-100"/>
      <point x="154" y="-100" type="curve" smooth="yes"/>
      <point x="186" y="-100"/>
      <point x="227" y="-85"/>
      <point x="238" y="-82" type="curve"/>
      <point x="238" y="-154" type="line"/>
      <point x="195" y="-167"/>
      <point x="151" y="-174"/>
    </contour>
  </outline>
</glyph>
<glyph name="tilde" format="1">
  <advance width="360"/>
  <unicode hex="02DC"/>
  <outline>
    <contour>
      <point x="251" y="573" type="curve" smooth="yes"/>
      <point x="251" y="573" type="line" smooth="yes"/>
      <point x="203" y="573"/>
      <point x="140" y="625"/>
      <point x="110" y="625" type="curve" smooth="yes"/>
      <point x="98" y="625"/>
      <point x="80" y="613"/>
      <point x="77" y="576" type="curve"/>
      <point x="-1" y="576" type="line"/>
      <point x="-1" y="659"/>
      <point x="42" y="718"/>
      <point x="105" y="718" type="curve" smooth="yes"/>
      <point x="163" y="718"/>
      <point x="218" y="670"/>
      <point x="245" y="666" type="curve" smooth="yes"/>
      <point x="247" y="666"/>
      <point x="250" y="665"/>
      <point x="252" y="665" type="curve" smooth="yes"/>
      <point x="269" y="665"/>
      <point x="282" y="674"/>
      <point x="282" y="718" type="curve"/>
      <point x="361" y="718" type="line"/>
      <point x="361" y="618"/>
      <point x="317" y="573"/>
    </contour>
  </outline>
</glyph>
<glyph name="hungarumlaut" format="1">
  <advance width="473"/>
  <unicode hex="02DD"/>
  <outline>
    <contour>
      <point x="199" y="562" type="line"/>
      <point x="301" y="730" type="line"/>
      <point x="445" y="730" type="line"/>
      <point x="290" y="562" type="line"/>
    </contour>
    <contour>
      <point x="34" y="562" type="line"/>
      <point x="108" y="730" type="line"/>
      <point x="237" y="730" type="line"/>
      <point x="121" y="562" type="line"/>
    </contour>
  </outline>
</glyph>
<glyph name="uni0307" format="1">
  <advance width="255"/>
  <unicode hex="0307"/>
  <outline>
    <contour>
      <point x="66" y="563" type="line"/>
      <point x="66" y="677" type="line"/>
      <point x="189" y="677" type="line"/>
      <point x="189" y="563" type="line"/>
    </contour>
  </outline>
</glyph>
<glyph name="uni030F" format="1">
  <advance width="473"/>
  <unicode hex="030F"/>
  <outline>
    <contour>
      <point x="274" y="562" type="line"/>
      <point x="172" y="730" type="line"/>
      <point x="27" y="730" type="line"/>
      <point x="183" y="562" type="line"/>
    </contour>
    <contour>
      <point x="439" y="562" type="line"/>
      <point x="364" y="730" type="line"/>
      <point x="235" y="730" type="line"/>
      <point x="352" y="562" type="line"/>
    </contour>
  </outline>
</glyph>
<glyph name="uni0311" format="1">
  <advance width="307"/>
  <unicode hex="0311"/>
  <outline>
    <contour>
      <point x="-7" y="562" type="line"/>
      <point x="0" y="665"/>
      <point x="51" y="710"/>
      <point x="153" y="710" type="curve" smooth="yes"/>
      <point x="255" y="710"/>
      <point x="306" y="664"/>
      <point x="313" y="562" type="curve"/>
      <point x="222" y="562" type="line"/>
      <point x="218" y="610"/>
      <point x="180" y="619"/>
      <point x="152" y="619" type="curve" smooth="yes"/>
      <point x="125" y="619"/>
      <point x="87" y="611"/>
      <point x="85" y="562" type="curve"/>
    </contour>
  </outline>
</glyph>
<glyph name="uni0312" format="1">
  <advance width="292"/>
  <unicode hex="0312"/>
  <outline>
    <contour>
      <point x="284" y="848" type="line"/>
      <point x="229" y="605" type="line"/>
      <point x="94" y="605" type="line"/>
      <point x="182" y="848" type="line"/>
    </contour>
  </outline>
</glyph>
<glyph name="uni0326" format="1">
  <advance width="263"/>
  <unicode hex="0326"/>
  <outline>
    <contour>
      <point x="36" y="-316" type="line"/>
      <point x="91" y="-69" type="line"/>
      <point x="228" y="-69" type="line"/>
      <point x="140" y="-316" type="line"/>
    </contour>
  </outline>
</glyph>
<glyph name="uni0358" format="1">
  <advance width="255"/>
  <unicode hex="0358"/>
  <outline>
    <contour>
      <point x="66" y="563" type="line"/>
      <point x="66" y="677" type="line"/>
      <point x="189" y="677" type="line"/>
      <point x="189" y="563" type="line"/>
    </contour>
  </outline>
</glyph>
<glyph name="uni0394" format="1">
  <advance width="733"/>
  <unicode hex="0394"/>
  <outline>
    <contour>
      <point x="157" y="106" type="line"/>
      <point x="548" y="106" type="line"/>
      <point x="347" y="566" type="line"/>
    </contour>
    <contour>
      <point x="30" y="0" type="line"/>
      <point x="30" y="107" type="line"/>
      <point x="298" y="711" type="line"/>
      <point x="431" y="711" type="line"/>
      <point x="701" y="114" type="line"/>
      <point x="701" y="0" type="line"/>
    </contour>
  </outline>
</glyph>
<glyph name="Sigma" format="1">
  <advance width="616"/>
  <unicode hex="03A3"/>
  <outline>
    <contour>
      <point x="40" y="-130" type="line"/>
      <point x="40" y="-65" type="line"/>
      <point x="293" y="295" type="line"/>
      <point x="51" y="648" type="line"/>
      <point x="51" y="711" type="line"/>
      <point x="571" y="711" type="line"/>
      <point x="571" y="611" type="line"/>
      <point x="233" y="611" type="line"/>
      <point x="442" y="296" type="line"/>
      <point x="227" y="-27" type="line"/>
      <point x="592" y="-27" type="line"/>
      <point x="592" y="-130" type="line"/>
    </contour>
  </outline>
</glyph>
<glyph name="uni03A9" format="1">
  <advance width="782"/>
  <unicode hex="03A9"/>
  <outline>
    <contour>
      <point x="34" y="0" type="line"/>
      <point x="23" y="103" type="line"/>
      <point x="178" y="102" type="line"/>
      <point x="79" y="179"/>
      <point x="45" y="268"/>
      <point x="45" y="396" type="curve" smooth="yes"/>
      <point x="45" y="595"/>
      <point x="191" y="722"/>
      <point x="389" y="722" type="curve" smooth="yes"/>
      <point x="584" y="722"/>
      <point x="737" y="601"/>
      <point x="737" y="397" type="curve" smooth="yes"/>
      <point x="737" y="270"/>
      <point x="707" y="180"/>
      <point x="605" y="102" type="curve"/>
      <point x="765" y="103" type="line"/>
      <point x="752" y="0" type="line"/>
      <point x="447" y="0" type="line"/>
      <point x="447" y="83" type="line"/>
      <point x="538" y="140"/>
      <point x="607" y="242"/>
      <point x="607" y="375" type="curve" smooth="yes"/>
      <point x="607" y="453"/>
      <point x="578" y="622"/>
      <point x="390" y="622" type="curve" smooth="yes"/>
      <point x="196" y="622"/>
      <point x="175" y="447"/>
      <point x="175" y="375" type="curve" smooth="yes"/>
      <point x="175" y="241"/>
      <point x="246" y="141"/>
      <point x="336" y="83" type="curve"/>
      <point x="336" y="0" type="line"/>
    </contour>
  </outline>
</glyph>
<glyph name="uni03BC" format="1">
  <advance width="600"/>
  <unicode hex="03BC"/>
  <outline>
    <contour>
      <point x="391" y="139" type="line"/>
      <point x="374" y="117"/>
      <point x="344" y="88"/>
      <point x="292" y="88" type="curve" smooth="yes"/>
      <point x="235" y="88"/>
      <point x="211" y="123"/>
      <point x="211" y="215" type="curve" smooth="yes"/>
      <point x="211" y="528" type="line"/>
      <point x="62" y="528" type="line"/>
      <point x="62" y="-154" type="line"/>
      <point x="211" y="-154" type="line"/>
      <point x="211" y="-8" type="line"/>
      <point x="222" y="-9"/>
      <point x="234" y="-10"/>
      <point x="246" y="-10" type="curve" smooth="yes"/>
      <point x="328" y="-10"/>
      <point x="376" y="28"/>
      <point x="405" y="74" type="curve"/>
      <point x="412" y="0" type="line"/>
      <point x="541" y="0" type="line"/>
      <point x="541" y="528" type="line"/>
      <point x="391" y="528" type="line"/>
    </contour>
  </outline>
</glyph>
<glyph name="pi" format="1">
  <advance width="721"/>
  <unicode hex="03C0"/>
  <outline>
    <contour>
      <point x="560" y="-6" type="curve" smooth="yes"/>
      <point x="598" y="-6"/>
      <point x="629" y="5"/>
      <point x="646" y="21" type="curve"/>
      <point x="646" y="84" type="line"/>
      <point x="632" y="79"/>
      <point x="618" y="77"/>
      <point x="598" y="77" type="curve" smooth="yes"/>
      <point x="570" y="77"/>
      <point x="546" y="82"/>
      <point x="546" y="116" type="curve" smooth="yes"/>
      <point x="546" y="168"/>
      <point x="548" y="320"/>
      <point x="555" y="420" type="curve"/>
      <point x="670" y="420" type="line"/>
      <point x="670" y="528" type="line"/>
      <point x="236" y="528" type="line" smooth="yes"/>
      <point x="120" y="528"/>
      <point x="84" y="461"/>
      <point x="84" y="356" type="curve"/>
      <point x="131" y="356" type="line"/>
      <point x="137" y="393"/>
      <point x="156" y="420"/>
      <point x="195" y="420" type="curve"/>
      <point x="236" y="420" type="line"/>
      <point x="205" y="189" type="line"/>
      <point x="191" y="84"/>
      <point x="125" y="54"/>
      <point x="90" y="54" type="curve"/>
      <point x="90" y="2" type="line"/>
      <point x="258" y="2"/>
      <point x="293" y="52"/>
      <point x="298" y="158" type="curve" smooth="yes"/>
      <point x="311" y="420" type="line"/>
      <point x="475" y="420" type="line"/>
      <point x="456" y="322"/>
      <point x="441" y="167"/>
      <point x="441" y="103" type="curve" smooth="yes"/>
      <point x="441" y="16"/>
      <point x="493" y="-6"/>
    </contour>
  </outline>
</glyph>
<glyph name="endash" format="1">
  <advance width="524"/>
  <unicode hex="2013"/>
  <outline>
    <contour>
      <point x="-7" y="219" type="line"/>
      <point x="-7" y="321" type="line"/>
      <point x="532" y="321" type="line"/>
      <point x="532" y="219" type="line"/>
    </contour>
  </outline>
</glyph>
<glyph name="emdash" format="1">
  <advance width="1060"/>
  <unicode hex="2014"/>
  <outline>
    <contour>
      <point x="15" y="221" type="line"/>
      <point x="15" y="321" type="line"/>
      <point x="1045" y="321" type="line"/>
      <point x="1045" y="221" type="line"/>
    </contour>
  </outline>
</glyph>
<glyph name="uni2015" format="1">
  <advance width="1999"/>
  <unicode hex="2015"/>
  <outline>
    <contour>
      <point x="26" y="221" type="line"/>
      <point x="26" y="313" type="line"/>
      <point x="1973" y="313" type="line"/>
      <point x="1973" y="221" type="line"/>
    </contour>
  </outline>
</glyph>
<glyph name="quoteleft" format="1">
  <advance width="281"/>
  <unicode hex="2018"/>
  <outline>
    <contour>
      <point x="150" y="422" type="line"/>
      <point x="69" y="711" type="line"/>
      <point x="208" y="711" type="line"/>
      <point x="227" y="422" type="line"/>
    </contour>
  </outline>
</glyph>
<glyph name="quoteright" format="1">
  <advance width="308"/>
  <unicode hex="2019"/>
  <outline>
    <contour>
      <point x="55" y="423" type="line"/>
      <point x="103" y="711" type="line"/>
      <point x="239" y="711" type="line"/>
      <point x="144" y="423" type="line"/>
    </contour>
  </outline>
</glyph>
<glyph name="quotesinglbase" format="1">
  <advance width="339"/>
  <unicode hex="201A"/>
  <outline>
    <contour>
      <point x="78" y="-159" type="line"/>
      <point x="134" y="128" type="line"/>
      <point x="268" y="128" type="line"/>
      <point x="185" y="-159" type="line"/>
    </contour>
  </outline>
</glyph>
<glyph name="quotedblleft" format="1">
  <advance width="500"/>
  <unicode hex="201C"/>
  <outline>
    <contour>
      <point x="289" y="422" type="line"/>
      <point x="376" y="711" type="line"/>
      <point x="479" y="711" type="line"/>
      <point x="424" y="422" type="line"/>
    </contour>
    <contour>
      <point x="63" y="422" type="line"/>
      <point x="157" y="711" type="line"/>
      <point x="259" y="711" type="line"/>
      <point x="203" y="422" type="line"/>
    </contour>
  </outline>
</glyph>
<glyph name="quotedblright" format="1">
  <advance width="500"/>
  <unicode hex="201D"/>
  <outline>
    <contour>
      <point x="289" y="422" type="line"/>
      <point x="345" y="711" type="line"/>
      <point x="478" y="711" type="line"/>
      <point x="394" y="422" type="line"/>
    </contour>
    <contour>
      <point x="86" y="422" type="line"/>
      <point x="140" y="711" type="line"/>
      <point x="274" y="711" type="line"/>
      <point x="192" y="422" type="line"/>
    </contour>
  </outline>
</glyph>
<glyph name="quotedblbase" format="1">
  <advance width="500"/>
  <unicode hex="201E"/>
  <outline>
    <contour>
      <point x="238" y="-107" type="line"/>
      <point x="292" y="128" type="line"/>
      <point x="426" y="128" type="line"/>
      <point x="343" y="-107" type="line"/>
    </contour>
    <contour>
      <point x="42" y="-107" type="line"/>
      <point x="97" y="128" type="line"/>
      <point x="230" y="128" type="line"/>
      <point x="151" y="-107" type="line"/>
    </contour>
  </outline>
</glyph>
<glyph name="dagger" format="1">
  <advance width="499"/>
  <unicode hex="2020"/>
  <outline>
    <contour>
      <point x="186" y="0" type="line"/>
      <point x="186" y="440" type="line"/>
      <point x="26" y="440" type="line"/>
      <point x="26" y="527" type="line"/>
      <point x="186" y="527" type="line"/>
      <point x="186" y="689" type="line"/>
      <point x="282" y="689" type="line"/>
      <point x="282" y="527" type="line"/>
      <point x="443" y="527" type="line"/>
      <point x="443" y="440" type="line"/>
      <point x="284" y="440" type="line"/>
      <point x="284" y="0" type="line"/>
    </contour>
  </outline>
</glyph>
<glyph name="daggerdbl" format="1">
  <advance width="573"/>
  <unicode hex="2021"/>
  <outline>
    <contour>
      <point x="72" y="529" type="line"/>
      <point x="237" y="529" type="line"/>
      <point x="237" y="711" type="line"/>
      <point x="344" y="711" type="line"/>
      <point x="344" y="529" type="line"/>
      <point x="503" y="529" type="line"/>
      <point x="503" y="437" type="line"/>
      <point x="344" y="437" type="line"/>
      <point x="344" y="260" type="line"/>
      <point x="499" y="260" type="line"/>
      <point x="499" y="172" type="line"/>
      <point x="344" y="172" type="line"/>
      <point x="344" y="-55" type="line"/>
      <point x="237" y="-55" type="line"/>
      <point x="237" y="172" type="line"/>
      <point x="70" y="172" type="line"/>
      <point x="70" y="260" type="line"/>
      <point x="237" y="260" type="line"/>
      <point x="237" y="437" type="line"/>
      <point x="72" y="437" type="line"/>
    </contour>
  </outline>
</glyph>
<glyph name="bullet" format="1">
  <advance width="482"/>
  <unicode hex="2022"/>
  <outline>
    <contour>
      <point x="239" y="175" type="curve" smooth="yes"/>
      <point x="138" y="175"/>
      <point x="73" y="249"/>
      <point x="73" y="333" type="curve" smooth="yes"/>
      <point x="73" y="419"/>
      <point x="146" y="493"/>
      <point x="239" y="493" type="curve" smooth="yes"/>
      <point x="337" y="493"/>
      <point x="406" y="419"/>
      <point x="406" y="333" type="curve" smooth="yes"/>
      <point x="406" y="248"/>
      <point x="333" y="175"/>
    </contour>
  </outline>
</glyph>
<glyph name="ellipsis" format="1">
  <advance width="791"/>
  <unicode hex="2026"/>
  <outline>
    <contour>
      <point x="565" y="-5" type="line"/>
      <point x="565" y="127" type="line"/>
      <point x="711" y="127" type="line"/>
      <point x="711" y="-5" type="line"/>
    </contour>
    <contour>
      <point x="311" y="-5" type="line"/>
      <point x="311" y="127" type="line"/>
      <point x="458" y="127" type="line"/>
      <point x="458" y="-5" type="line"/>
    </contour>
    <contour>
      <point x="56" y="-5" type="line"/>
      <point x="56" y="127" type="line"/>
      <point x="203" y="127" type="line"/>
      <point x="204" y="-5" type="line"/>
    </contour>
  </outline>
</glyph>
<glyph name="perthousand" format="1">
  <advance width="1345"/>
  <unicode hex="2030"/>
  <outline>
    <contour>
      <point x="1118" y="-10" type="curve" smooth="yes"/>
      <point x="1009" y="-10"/>
      <point x="938" y="69"/>
      <point x="938" y="175" type="curve" smooth="yes"/>
      <point x="938" y="278"/>
      <point x="1008" y="361"/>
      <point x="1118" y="361" type="curve" smooth="yes"/>
      <point x="1228" y="361"/>
      <point x="1297" y="277"/>
      <point x="1297" y="175" type="curve" smooth="yes"/>
      <point x="1297" y="69"/>
      <point x="1228" y="-10"/>
    </contour>
    <contour>
      <point x="1118" y="66" type="curve" smooth="yes"/>
      <point x="1168" y="66"/>
      <point x="1195" y="97"/>
      <point x="1195" y="175" type="curve" smooth="yes"/>
      <point x="1195" y="247"/>
      <point x="1172" y="285"/>
      <point x="1118" y="285" type="curve" smooth="yes"/>
      <point x="1064" y="285"/>
      <point x="1041" y="248"/>
      <point x="1041" y="176" type="curve" smooth="yes"/>
      <point x="1041" y="98"/>
      <point x="1068" y="66"/>
    </contour>
    <component base="percent"/>
  </outline>
</glyph>
<glyph name="guilsinglleft" format="1">
  <advance width="354"/>
  <unicode hex="2039"/>
  <outline>
    <contour>
      <point x="203" y="77" type="line"/>
      <point x="67" y="264" type="line"/>
      <point x="206" y="450" type="line"/>
      <point x="303" y="450" type="line"/>
      <point x="187" y="264" type="line"/>
      <point x="299" y="77" type="line"/>
    </contour>
  </outline>
</glyph>
<glyph name="guilsinglright" format="1">
  <advance width="354"/>
  <unicode hex="203A"/>
  <outline>
    <contour>
      <point x="44" y="77" type="line"/>
      <point x="161" y="263" type="line"/>
      <point x="48" y="450" type="line"/>
      <point x="145" y="450" type="line"/>
      <point x="281" y="263" type="line"/>
      <point x="142" y="77" type="line"/>
    </contour>
  </outline>
</glyph>
<glyph name="fraction" format="1">
  <advance width="553"/>
  <unicode hex="2044"/>
  <outline>
    <contour>
      <point x="-6" y="0" type="line"/>
      <point x="426" y="711" type="line"/>
      <point x="548" y="711" type="line"/>
      <point x="116" y="0" type="line"/>
    </contour>
  </outline>
</glyph>
<glyph name="foursuperior" format="1">
  <advance width="372"/>
  <unicode hex="2074"/>
  <outline>
    <contour>
      <point x="115" y="475" type="line"/>
      <point x="203" y="475" type="line"/>
      <point x="203" y="600" type="line"/>
    </contour>
    <contour>
      <point x="204" y="313" type="line"/>
      <point x="204" y="409" type="line"/>
      <point x="25" y="409" type="line"/>
      <point x="25" y="465" type="line"/>
      <point x="205" y="711" type="line"/>
      <point x="295" y="711" type="line"/>
      <point x="295" y="475" type="line"/>
      <point x="352" y="475" type="line"/>
      <point x="352" y="409" type="line"/>
      <point x="295" y="409" type="line"/>
      <point x="295" y="313" type="line"/>
    </contour>
  </outline>
</glyph>
<glyph name="Euro" format="1">
  <advance width="712"/>
  <unicode hex="20AC"/>
  <outline>
    <contour>
      <point x="67" y="246" type="line"/>
      <point x="70" y="301" type="line"/>
      <point x="145" y="301" type="line"/>
      <point x="143" y="319"/>
      <point x="142" y="336"/>
      <point x="142" y="355" type="curve" smooth="yes"/>
      <point x="142" y="371"/>
      <point x="144" y="387"/>
      <point x="145" y="402" type="curve"/>
      <point x="67" y="402" type="line"/>
      <point x="69" y="460" type="line"/>
      <point x="154" y="460" type="line"/>
      <point x="196" y="638"/>
      <point x="345" y="724"/>
      <point x="488" y="724" type="curve" smooth="yes"/>
      <point x="569" y="724"/>
      <point x="651" y="706"/>
      <point x="726" y="647" type="curve"/>
      <point x="677" y="561" type="line"/>
      <point x="611" y="607"/>
      <point x="554" y="617"/>
      <point x="499" y="617" type="curve" smooth="yes"/>
      <point x="407" y="617"/>
      <point x="323" y="560"/>
      <point x="289" y="460" type="curve"/>
      <point x="516" y="460" type="line"/>
      <point x="512" y="402" type="line"/>
      <point x="275" y="402" type="line"/>
      <point x="273" y="387"/>
      <point x="272" y="372"/>
      <point x="272" y="356" type="curve" smooth="yes"/>
      <point x="272" y="336"/>
      <point x="273" y="319"/>
      <point x="276" y="301" type="curve"/>
      <point x="498" y="301" type="line"/>
      <point x="495" y="246" type="line"/>
      <point x="291" y="246" type="line"/>
      <point x="326" y="152"/>
      <point x="407" y="96"/>
      <point x="506" y="96" type="curve" smooth="yes"/>
      <point x="568" y="96"/>
      <point x="636" y="114"/>
      <point x="703" y="168" type="curve"/>
      <point x="744" y="70" type="line"/>
      <point x="667" y="10"/>
      <point x="584" y="-11"/>
      <point x="498" y="-11" type="curve" smooth="yes"/>
      <point x="344" y="-11"/>
      <point x="198" y="79"/>
      <point x="155" y="246" type="curve"/>
    </contour>
  </outline>
</glyph>
<glyph name="trademark" format="1">
  <advance width="912"/>
  <unicode hex="2122"/>
  <outline>
    <contour>
      <point x="141" y="307" type="line"/>
      <point x="141" y="606" type="line"/>
      <point x="36" y="606" type="line"/>
      <point x="36" y="689" type="line"/>
      <point x="345" y="689" type="line"/>
      <point x="345" y="606" type="line"/>
      <point x="236" y="606" type="line"/>
      <point x="236" y="307" type="line"/>
    </contour>
    <contour>
      <point x="393" y="307" type="line"/>
      <point x="393" y="689" type="line"/>
      <point x="504" y="689" type="line"/>
      <point x="615" y="450" type="line"/>
      <point x="724" y="689" type="line"/>
      <point x="836" y="689" type="line"/>
      <point x="836" y="307" type="line"/>
      <point x="739" y="307" type="line"/>
      <point x="739" y="525" type="line"/>
      <point x="645" y="307" type="line"/>
      <point x="585" y="307" type="line"/>
      <point x="487" y="520" type="line"/>
      <point x="487" y="307" type="line"/>
    </contour>
  </outline>
</glyph>
<glyph name="estimated" format="1">
  <advance width="581"/>
  <unicode hex="212E"/>
  <outline>
    <contour>
      <point x="174" y="348" type="curve"/>
      <point x="422" y="348" type="line"/>
      <point x="422" y="506"/>
      <point x="360" y="557"/>
      <point x="297" y="557" type="curve" smooth="yes"/>
      <point x="234" y="557"/>
      <point x="174" y="506"/>
    </contour>
    <contour>
      <point x="306" y="56" type="curve" smooth="yes"/>
      <point x="167" y="56"/>
      <point x="47" y="143"/>
      <point x="47" y="318" type="curve" smooth="yes"/>
      <point x="47" y="512"/>
      <point x="174" y="585"/>
      <point x="298" y="585" type="curve" smooth="yes"/>
      <point x="413" y="585"/>
      <point x="524" y="525"/>
      <point x="524" y="342" type="curve" smooth="yes"/>
      <point x="524" y="337"/>
      <point x="524" y="328"/>
      <point x="522" y="320" type="curve"/>
      <point x="171" y="320" type="line"/>
      <point x="171" y="163"/>
      <point x="235" y="86"/>
      <point x="333" y="86" type="curve" smooth="yes"/>
      <point x="383" y="86"/>
      <point x="441" y="106"/>
      <point x="502" y="146" type="curve"/>
      <point x="516" y="121" type="line"/>
      <point x="450" y="78"/>
      <point x="375" y="56"/>
    </contour>
  </outline>
</glyph>
<glyph name="partialdiff" format="1">
  <advance width="567"/>
  <unicode hex="2202"/>
  <outline>
    <contour>
      <point x="233" y="87" type="curve" smooth="yes"/>
      <point x="304" y="87"/>
      <point x="361" y="136"/>
      <point x="387" y="314" type="curve"/>
      <point x="369" y="354"/>
      <point x="330" y="394"/>
      <point x="286" y="394" type="curve" smooth="yes"/>
      <point x="207" y="394"/>
      <point x="146" y="307"/>
      <point x="146" y="207" type="curve" smooth="yes"/>
      <point x="146" y="135"/>
      <point x="179" y="87"/>
    </contour>
    <contour>
      <point x="233" y="-12" type="curve" smooth="yes"/>
      <point x="94" y="-12"/>
      <point x="23" y="84"/>
      <point x="23" y="209" type="curve" smooth="yes"/>
      <point x="23" y="366"/>
      <point x="139" y="489"/>
      <point x="279" y="489" type="curve" smooth="yes"/>
      <point x="337" y="489"/>
      <point x="383" y="463"/>
      <point x="394" y="433" type="curve"/>
      <point x="394" y="475" type="line" smooth="yes"/>
      <point x="389" y="572"/>
      <point x="338" y="633"/>
      <point x="266" y="633" type="curve" smooth="yes"/>
      <point x="196" y="633"/>
      <point x="142" y="603"/>
      <point x="119" y="591" type="curve"/>
      <point x="112" y="679" type="line"/>
      <point x="155" y="711"/>
      <point x="215" y="730"/>
      <point x="273" y="730" type="curve" smooth="yes"/>
      <point x="425" y="730"/>
      <point x="519" y="629"/>
      <point x="519" y="402" type="curve" smooth="yes"/>
      <point x="519" y="197"/>
      <point x="427" y="-12"/>
    </contour>
  </outline>
</glyph>
<glyph name="Delta" format="1">
  <advance width="733"/>
  <unicode hex="2206"/>
  <outline>
    <contour>
      <point x="157" y="106" type="line"/>
      <point x="548" y="106" type="line"/>
      <point x="347" y="566" type="line"/>
    </contour>
    <contour>
      <point x="30" y="0" type="line"/>
      <point x="30" y="107" type="line"/>
      <point x="298" y="711" type="line"/>
      <point x="431" y="711" type="line"/>
      <point x="701" y="114" type="line"/>
      <point x="701" y="0" type="line"/>
    </contour>
  </outline>
</glyph>
<glyph name="product" format="1">
  <advance width="765"/>
  <unicode hex="220F"/>
  <outline>
    <contour>
      <point x="95" y="-49" type="line"/>
      <point x="95" y="613" type="line"/>
      <point x="19" y="613" type="line"/>
      <point x="19" y="711" type="line"/>
      <point x="709" y="711" type="line"/>
      <point x="710" y="613" type="line"/>
      <point x="649" y="613" type="line"/>
      <point x="649" y="-49" type="line"/>
      <point x="510" y="-49" type="line"/>
      <point x="510" y="613" type="line"/>
      <point x="230" y="613" type="line"/>
      <point x="230" y="-49" type="line"/>
    </contour>
  </outline>
</glyph>
<glyph name="summation" format="1">
  <advance width="616"/>
  <unicode hex="2211"/>
  <outline>
    <contour>
      <point x="40" y="-130" type="line"/>
      <point x="40" y="-65" type="line"/>
      <point x="293" y="295" type="line"/>
      <point x="51" y="648" type="line"/>
      <point x="51" y="711" type="line"/>
      <point x="571" y="711" type="line"/>
      <point x="571" y="611" type="line"/>
      <point x="233" y="611" type="line"/>
      <point x="442" y="296" type="line"/>
      <point x="227" y="-27" type="line"/>
      <point x="592" y="-27" type="line"/>
      <point x="592" y="-130" type="line"/>
    </contour>
  </outline>
</glyph>
<glyph name="minus" format="1">
  <advance width="731"/>
  <unicode hex="2212"/>
  <outline>
    <contour>
      <point x="98" y="139" type="line"/>
      <point x="98" y="237" type="line"/>
      <point x="633" y="237" type="line"/>
      <point x="633" y="139" type="line"/>
    </contour>
  </outline>
</glyph>
<glyph name="radical" format="1">
  <advance width="641"/>
  <unicode hex="221A"/>
  <outline>
    <contour>
      <point x="251" y="-69" type="line"/>
      <point x="103" y="310" type="line"/>
      <point x="102" y="310"/>
      <point x="24" y="295"/>
      <point x="24" y="295" type="curve"/>
      <point x="2" y="383" type="line"/>
      <point x="183" y="412" type="line"/>
      <point x="290" y="128" type="line"/>
      <point x="461" y="759" type="line"/>
      <point x="572" y="759" type="line"/>
      <point x="352" y="-69" type="line"/>
    </contour>
  </outline>
</glyph>
<glyph name="infinity" format="1">
  <advance width="850"/>
  <unicode hex="221E"/>
  <outline>
    <contour>
      <point x="625" y="188" type="curve" smooth="yes"/>
      <point x="696" y="188"/>
      <point x="723" y="240"/>
      <point x="723" y="306" type="curve" smooth="yes"/>
      <point x="723" y="357"/>
      <point x="685" y="400"/>
      <point x="623" y="400" type="curve" smooth="yes"/>
      <point x="561" y="400"/>
      <point x="507" y="349"/>
      <point x="467" y="294" type="curve"/>
      <point x="524" y="225"/>
      <point x="567" y="188"/>
    </contour>
    <contour>
      <point x="236" y="188" type="curve" smooth="yes"/>
      <point x="297" y="188"/>
      <point x="349" y="236"/>
      <point x="391" y="293" type="curve"/>
      <point x="349" y="353"/>
      <point x="296" y="400"/>
      <point x="231" y="400" type="curve" smooth="yes"/>
      <point x="164" y="400"/>
      <point x="130" y="352"/>
      <point x="130" y="294" type="curve" smooth="yes"/>
      <point x="130" y="240"/>
      <point x="169" y="188"/>
    </contour>
    <contour>
      <point x="228" y="113" type="curve" smooth="yes"/>
      <point x="120" y="113"/>
      <point x="47" y="202"/>
      <point x="47" y="306" type="curve" smooth="yes"/>
      <point x="47" y="400"/>
      <point x="131" y="476"/>
      <point x="226" y="476" type="curve" smooth="yes"/>
      <point x="307" y="476"/>
      <point x="370" y="429"/>
      <point x="428" y="351" type="curve"/>
      <point x="483" y="427"/>
      <point x="542" y="476"/>
      <point x="626" y="476" type="curve" smooth="yes"/>
      <point x="734" y="476"/>
      <point x="804" y="400"/>
      <point x="804" y="296" type="curve" smooth="yes"/>
      <point x="804" y="187"/>
      <point x="721" y="113"/>
      <point x="625" y="113" type="curve" smooth="yes"/>
      <point x="551" y="113"/>
      <point x="492" y="151"/>
      <point x="427" y="237" type="curve"/>
      <point x="370" y="162"/>
      <point x="307" y="113"/>
    </contour>
  </outline>
</glyph>
<glyph name="integral" format="1">
  <advance width="400"/>
  <unicode hex="222B"/>
  <outline>
    <contour>
      <point x="97" y="-158" type="curve" smooth="yes"/>
      <point x="44" y="-158"/>
      <point x="13" y="-145"/>
      <point x="13" y="-145" type="curve"/>
      <point x="13" y="-53" type="line"/>
      <point x="13" y="-53"/>
      <point x="50" y="-61"/>
      <point x="80" y="-61" type="curve" smooth="yes"/>
      <point x="121" y="-61"/>
      <point x="127" y="-32"/>
      <point x="127" y="20" type="curve" smooth="yes"/>
      <point x="127" y="565" type="line" smooth="yes"/>
      <point x="127" y="673"/>
      <point x="178" y="753"/>
      <point x="290" y="753" type="curve" smooth="yes"/>
      <point x="335" y="753"/>
      <point x="376" y="740"/>
      <point x="376" y="740" type="curve"/>
      <point x="376" y="645" type="line"/>
      <point x="376" y="645"/>
      <point x="337" y="656"/>
      <point x="309" y="656" type="curve" smooth="yes"/>
      <point x="266" y="656"/>
      <point x="254" y="628"/>
      <point x="254" y="576" type="curve" smooth="yes"/>
      <point x="254" y="29" type="line" smooth="yes"/>
      <point x="254" y="-78"/>
      <point x="210" y="-158"/>
    </contour>
  </outline>
</glyph>
<glyph name="approxequal" format="1">
  <advance width="659"/>
  <unicode hex="2248"/>
  <outline>
    <contour>
      <point x="107" y="51" type="curve"/>
      <point x="33" y="94" type="line"/>
      <point x="67" y="215"/>
      <point x="111" y="233"/>
      <point x="173" y="233" type="curve" smooth="yes"/>
      <point x="211" y="233"/>
      <point x="258" y="223"/>
      <point x="318" y="203" type="curve" smooth="yes"/>
      <point x="371" y="184"/>
      <point x="416" y="177"/>
      <point x="444" y="177" type="curve" smooth="yes"/>
      <point x="479" y="177"/>
      <point x="490" y="186"/>
      <point x="502" y="252" type="curve"/>
      <point x="583" y="215" type="line"/>
      <point x="552" y="92"/>
      <point x="517" y="69"/>
      <point x="455" y="69" type="curve" smooth="yes"/>
      <point x="416" y="69"/>
      <point x="365" y="81"/>
      <point x="299" y="99" type="curve" smooth="yes"/>
      <point x="252" y="113"/>
      <point x="211" y="125"/>
      <point x="184" y="125" type="curve" smooth="yes"/>
      <point x="144" y="125"/>
      <point x="129" y="114"/>
    </contour>
    <contour>
      <point x="107" y="340" type="curve"/>
      <point x="33" y="384" type="line"/>
      <point x="68" y="504"/>
      <point x="112" y="522"/>
      <point x="173" y="522" type="curve" smooth="yes"/>
      <point x="211" y="522"/>
      <point x="262" y="510"/>
      <point x="320" y="493" type="curve" smooth="yes"/>
      <point x="371" y="477"/>
      <point x="415" y="466"/>
      <point x="444" y="466" type="curve" smooth="yes"/>
      <point x="479" y="466"/>
      <point x="490" y="476"/>
      <point x="502" y="542" type="curve"/>
      <point x="583" y="504" type="line"/>
      <point x="552" y="382"/>
      <point x="518" y="359"/>
      <point x="456" y="359" type="curve" smooth="yes"/>
      <point x="418" y="359"/>
      <point x="365" y="371"/>
      <point x="299" y="389" type="curve" smooth="yes"/>
      <point x="253" y="402"/>
      <point x="210" y="415"/>
      <point x="184" y="415" type="curve" smooth="yes"/>
      <point x="143" y="415"/>
      <point x="128" y="404"/>
    </contour>
  </outline>
</glyph>
<glyph name="notequal" format="1">
  <advance width="677"/>
  <unicode hex="2260"/>
  <outline>
    <contour>
      <point x="247" y="17" type="line"/>
      <point x="151" y="32" type="line"/>
      <point x="206" y="146" type="line"/>
      <point x="76" y="146" type="line"/>
      <point x="76" y="238" type="line"/>
      <point x="252" y="238" type="line"/>
      <point x="300" y="329" type="line"/>
      <point x="76" y="329" type="line"/>
      <point x="76" y="421" type="line"/>
      <point x="344" y="421" type="line"/>
      <point x="406" y="548" type="line"/>
      <point x="504" y="533" type="line"/>
      <point x="448" y="421" type="line"/>
      <point x="598" y="421" type="line"/>
      <point x="598" y="329" type="line"/>
      <point x="404" y="329" type="line"/>
      <point x="355" y="238" type="line"/>
      <point x="598" y="238" type="line"/>
      <point x="598" y="146" type="line"/>
      <point x="311" y="146" type="line"/>
    </contour>
  </outline>
</glyph>
<glyph name="lessequal" format="1">
  <advance width="659"/>
  <unicode hex="2264"/>
  <outline>
    <contour>
      <point x="49" y="0" type="line"/>
      <point x="49" y="92" type="line"/>
      <point x="572" y="92" type="line"/>
      <point x="572" y="0" type="line"/>
    </contour>
    <contour>
      <point x="563" y="128" type="line"/>
      <point x="51" y="359" type="line"/>
      <point x="51" y="415" type="line"/>
      <point x="565" y="655" type="line"/>
      <point x="565" y="544" type="line"/>
      <point x="211" y="389" type="line"/>
      <point x="563" y="237" type="line"/>
    </contour>
  </outline>
</glyph>
<glyph name="greaterequal" format="1">
  <advance width="659"/>
  <unicode hex="2265"/>
  <outline>
    <contour>
      <point x="47" y="0" type="line"/>
      <point x="47" y="92" type="line"/>
      <point x="570" y="92" type="line"/>
      <point x="570" y="0" type="line"/>
    </contour>
    <contour>
      <point x="50" y="127" type="line"/>
      <point x="50" y="239" type="line"/>
      <point x="404" y="394" type="line"/>
      <point x="52" y="545" type="line"/>
      <point x="52" y="654" type="line"/>
      <point x="564" y="423" type="line"/>
      <point x="564" y="367" type="line"/>
    </contour>
  </outline>
</glyph>
<glyph name="lozenge" format="1">
  <advance width="609"/>
  <unicode hex="25CA"/>
  <outline>
    <contour>
      <point x="290" y="110" type="line"/>
      <point x="428" y="340" type="line"/>
      <point x="292" y="563" type="line"/>
      <point x="154" y="340" type="line"/>
    </contour>
    <contour>
      <point x="249" y="-20" type="line"/>
      <point x="35" y="340" type="line"/>
      <point x="252" y="701" type="line"/>
      <point x="332" y="701" type="line"/>
      <point x="548" y="341" type="line"/>
      <point x="329" y="-20" type="line"/>
    </contour>
  </outline>
</glyph>
<glyph name="fi" format="1">
  <advance width="630"/>
  <unicode hex="FB01"/>
  <outline>
    <contour>
      <point x="128" y="0" type="line"/>
      <point x="128" y="417" type="line"/>
      <point x="34" y="417" type="line"/>
      <point x="34" y="501" type="line"/>
      <point x="128" y="501" type="line"/>
      <point x="128" y="519" type="line" smooth="yes"/>
      <point x="128" y="663"/>
      <point x="144" y="725"/>
      <point x="341" y="725" type="curve" smooth="yes"/>
      <point x="367" y="725" type="line"/>
      <point x="362" y="628" type="line"/>
      <point x="261" y="628"/>
      <point x="251" y="619"/>
      <point x="251" y="519" type="curve" smooth="yes"/>
      <point x="251" y="501" type="line"/>
      <point x="451" y="501" type="line"/>
      <point x="451" y="417" type="line"/>
      <point x="251" y="417" type="line"/>
      <point x="251" y="0" type="line"/>
    </contour>
    <component base="i" xOffset="371"/>
  </outline>
</glyph>
<glyph name="uniFB01" format="1">
  <advance width="630"/>
  <unicode hex="FB01"/>
  <outline>
    <component base="i" xOffset="371"/>
    <contour>
      <point x="128" y="0" type="line"/>
      <point x="128" y="417" type="line"/>
      <point x="34" y="417" type="line"/>
      <point x="34" y="501" type="line"/>
      <point x="128" y="501" type="line"/>
      <point x="128" y="519" type="line" smooth="yes"/>
      <point x="128" y="663"/>
      <point x="144" y="725"/>
      <point x="341" y="725" type="curve" smooth="yes"/>
      <point x="367" y="725" type="line"/>
      <point x="362" y="628" type="line"/>
      <point x="261" y="628"/>
      <point x="251" y="619"/>
      <point x="251" y="519" type="curve" smooth="yes"/>
      <point x="251" y="501" type="line"/>
      <point x="451" y="501" type="line"/>
      <point x="451" y="417" type="line"/>
      <point x="251" y="417" type="line"/>
      <point x="251" y="0" type="line"/>
    </contour>
  </outline>
</glyph>
<glyph name="fl" format="1">
  <advance width="617"/>
  <unicode hex="FB02"/>
  <outline>
    <contour>
      <point x="125" y="0" type="line"/>
      <point x="125" y="417" type="line"/>
      <point x="34" y="417" type="line"/>
      <point x="34" y="501" type="line"/>
      <point x="125" y="501" type="line"/>
      <point x="125" y="506" type="line" smooth="yes"/>
      <point x="125" y="649"/>
      <point x="161" y="714"/>
      <point x="328" y="714" type="curve" smooth="yes"/>
      <point x="552" y="714" type="line"/>
      <point x="552" y="0" type="line"/>
      <point x="429" y="0" type="line"/>
      <point x="429" y="618" type="line"/>
      <point x="355" y="618" type="line" smooth="yes"/>
      <point x="269" y="618"/>
      <point x="249" y="596"/>
      <point x="249" y="534" type="curve" smooth="yes"/>
      <point x="249" y="501" type="line"/>
      <point x="361" y="501" type="line"/>
      <point x="361" y="417" type="line"/>
      <point x="249" y="417" type="line"/>
      <point x="249" y="0" type="line"/>
    </contour>
  </outline>
</glyph>
<glyph name="uniFB02" format="1">
  <advance width="617"/>
  <unicode hex="FB02"/>
  <outline>
    <contour>
      <point x="125" y="0" type="line"/>
      <point x="125" y="417" type="line"/>
      <point x="34" y="417" type="line"/>
      <point x="34" y="501" type="line"/>
      <point x="125" y="501" type="line"/>
      <point x="125" y="506" type="line" smooth="yes"/>
      <point x="125" y="649"/>
      <point x="161" y="714"/>
      <point x="328" y="714" type="curve" smooth="yes"/>
      <point x="552" y="714" type="line"/>
      <point x="552" y="0" type="line"/>
      <point x="429" y="0" type="line"/>
      <point x="429" y="618" type="line"/>
      <point x="355" y="618" type="line" smooth="yes"/>
      <point x="269" y="618"/>
      <point x="249" y="596"/>
      <point x="249" y="534" type="curve" smooth="yes"/>
      <point x="249" y="501" type="line"/>
      <point x="361" y="501" type="line"/>
      <point x="361" y="417" type="line"/>
      <point x="249" y="417" type="line"/>
      <point x="249" y="0" type="line"/>
    </contour>
  </outline>
</glyph>
<glyph name="uniFB04" format="1">
  <advance width="1077"/>
  <unicode hex="FB04"/>
  <outline>
    <component base="uniFB02" xOffset="360"/>
    <contour>
      <point x="127" y="0" type="line"/>
      <point x="127" y="417" type="line"/>
      <point x="34" y="417" type="line"/>
      <point x="34" y="501" type="line"/>
      <point x="127" y="501" type="line"/>
      <point x="127" y="521" type="line" smooth="yes"/>
      <point x="127" y="664"/>
      <point x="143" y="725"/>
      <point x="338" y="725" type="curve" smooth="yes"/>
      <point x="364" y="725" type="line"/>
      <point x="360" y="631" type="line"/>
      <point x="257" y="631"/>
      <point x="248" y="620"/>
      <point x="248" y="522" type="curve" smooth="yes"/>
      <point x="248" y="501" type="line"/>
      <point x="444" y="501" type="line"/>
      <point x="444" y="417" type="line"/>
      <point x="248" y="417" type="line"/>
      <point x="248" y="0" type="line"/>
    </contour>
  </outline>
</glyph>
<glyph name="caron.alt" format="1">
  <advance width="292"/>
  <outline>
    <contour>
      <point x="132" y="464" type="line"/>
      <point x="187" y="711" type="line"/>
      <point x="324" y="711" type="line"/>
      <point x="235" y="464" type="line"/>
    </contour>
    <contour>
      <point x="-8" y="501" type="move" name="_caron.alt"/>
    </contour>
  </outline>
</glyph>
<glyph name="f_f" format="1">
  <advance width="826"/>
  <outline>
    <contour>
      <point x="672" y="417" type="line"/>
      <point x="672" y="0" type="line"/>
      <point x="549" y="0" type="line"/>
      <point x="549" y="417" type="line"/>
      <point x="251" y="417" type="line"/>
      <point x="251" y="0" type="line"/>
      <point x="128" y="0" type="line"/>
      <point x="128" y="417" type="line"/>
      <point x="34" y="417" type="line"/>
      <point x="34" y="501" type="line"/>
      <point x="128" y="501" type="line"/>
      <point x="128" y="519" type="line" smooth="yes"/>
      <point x="128" y="663"/>
      <point x="144" y="725"/>
      <point x="341" y="725" type="curve" smooth="yes"/>
      <point x="367" y="725" type="line"/>
      <point x="362" y="628" type="line"/>
      <point x="261" y="628"/>
      <point x="251" y="619"/>
      <point x="251" y="519" type="curve" smooth="yes"/>
      <point x="251" y="501" type="line"/>
      <point x="549" y="501" type="line"/>
      <point x="549" y="519" type="line" smooth="yes"/>
      <point x="549" y="663"/>
      <point x="565" y="725"/>
      <point x="762" y="725" type="curve" smooth="yes"/>
      <point x="788" y="725" type="line"/>
      <point x="783" y="628" type="line"/>
      <point x="682" y="628"/>
      <point x="672" y="619"/>
      <point x="672" y="519" type="curve" smooth="yes"/>
      <point x="672" y="501" type="line"/>
      <point x="785" y="501" type="line"/>
      <point x="785" y="417" type="line"/>
    </contour>
  </outline>
</glyph>
